<svg width="16" height="16" viewBox="0 0 16 16" fill="none" xmlns="http://www.w3.org/2000/svg">
<path d="M4 15C3.9265 15 3.8525 14.9835 3.783 14.9505C3.6105 14.867 3.5 14.6925 3.5 14.5V12H2C1.173 12 0.5 11.327 0.5 10.5V2.5C0.5 1.673 1.173 1 2 1H14C14.827 1 15.5 1.673 15.5 2.5V10.5C15.5 11.327 14.827 12 14 12H7.9255L4.3125 14.8905C4.222 14.963 4.1115 15 4 15ZM2 2C1.724 2 1.5 2.2245 1.5 2.5V10.5C1.5 10.7755 1.724 11 2 11H4C4.2765 11 4.5 11.2235 4.5 11.5V13.46L7.4375 11.1095C7.5265 11.0385 7.636 11 7.75 11H14C14.276 11 14.5 10.7755 14.5 10.5V2.5C14.5 2.2245 14.276 2 14 2H2Z" fill="#101010"/>
<path d="M12 6H4C3.7235 6 3.5 5.776 3.5 5.5C3.5 5.224 3.7235 5 4 5H12C12.2765 5 12.5 5.224 12.5 5.5C12.5 5.776 12.2765 6 12 6Z" fill="#101010"/>
<path d="M8 8H4C3.7235 8 3.5 7.776 3.5 7.5C3.5 7.224 3.7235 7 4 7H8C8.2765 7 8.5 7.224 8.5 7.5C8.5 7.776 8.2765 8 8 8Z" fill="#101010"/>
</svg>
