<svg width="14" height="15" viewBox="0 0 14 15" fill="none" xmlns="http://www.w3.org/2000/svg">
<path d="M13.5625 7.5C13.5625 8.06 12.8745 8.52156 12.7367 9.03781C12.5945 9.57156 12.9544 10.3153 12.6842 10.7823C12.4097 11.257 11.5839 11.3139 11.1989 11.6989C10.8139 12.0839 10.757 12.9097 10.2823 13.1842C9.81531 13.4544 9.07156 13.0945 8.53781 13.2367C8.02156 13.3745 7.56 14.0625 7 14.0625C6.44 14.0625 5.97844 13.3745 5.46219 13.2367C4.92844 13.0945 4.18469 13.4544 3.71766 13.1842C3.24297 12.9097 3.18609 12.0839 2.80109 11.6989C2.41609 11.3139 1.59031 11.257 1.31578 10.7823C1.04562 10.3153 1.40547 9.57156 1.26328 9.03781C1.12547 8.52156 0.4375 8.06 0.4375 7.5C0.4375 6.94 1.12547 6.47844 1.26328 5.96219C1.40547 5.42844 1.04562 4.68469 1.31578 4.21766C1.59031 3.74297 2.41609 3.68609 2.80109 3.30109C3.18609 2.91609 3.24297 2.09031 3.71766 1.81578C4.18469 1.54562 4.92844 1.90547 5.46219 1.76328C5.97844 1.62547 6.44 0.9375 7 0.9375C7.56 0.9375 8.02156 1.62547 8.53781 1.76328C9.07156 1.90547 9.81531 1.54562 10.2823 1.81578C10.757 2.09031 10.8139 2.91609 11.1989 3.30109C11.5839 3.68609 12.4097 3.74297 12.6842 4.21766C12.9544 4.68469 12.5945 5.42844 12.7367 5.96219C12.8745 6.47844 13.5625 6.94 13.5625 7.5Z" fill="#34D674"/>
<path d="M8.89674 5.54438L6.39861 8.0425L5.10361 6.7486C4.82252 6.4675 4.36643 6.4675 4.08533 6.7486C3.80424 7.02969 3.80424 7.48578 4.08533 7.76688L5.90205 9.5836C6.17549 9.85703 6.61955 9.85703 6.89299 9.5836L9.91393 6.56266C10.195 6.28157 10.195 5.82547 9.91393 5.54438C9.63283 5.26328 9.17783 5.26328 8.89674 5.54438Z" fill="#FFFCEE"/>
</svg>
