<svg width="90" height="37" viewBox="0 0 90 37" fill="none" xmlns="http://www.w3.org/2000/svg">
<g clip-path="url(#clip0_463_3451)">
<path d="M45.067 0.961914C19.2466 0.961914 -1.45117 8.70134 -1.45117 18.4048C-1.45117 28.0492 19.4171 35.8484 45.067 35.8484C70.7174 35.8484 91.5858 28.023 91.5858 18.4048C91.5858 8.7866 70.7174 0.961914 45.067 0.961914Z" fill="#003478"/>
<path d="M63.3906 22.1C63.403 22.1799 63.5079 22.2564 63.6094 22.2926C63.6469 22.3051 63.6652 22.3301 63.626 22.415C63.3364 23.0358 63.0701 23.3938 62.707 23.9332C62.3729 24.4317 61.9966 24.8205 61.5412 25.1946C60.8541 25.7631 59.8999 26.3821 59.1111 25.966C58.7607 25.7842 58.6091 25.2938 58.6159 24.8968C58.6325 23.7804 59.1292 22.6343 60.0462 21.5079C61.1642 20.1315 62.4002 19.4176 63.2113 19.8078C64.0505 20.2081 63.7827 21.1797 63.4069 21.9423C63.3777 22.0014 63.3778 22.0513 63.3902 22.0996M72.3959 13.4011C72.4562 13.2946 72.3927 13.2168 72.2582 13.2168C71.5572 13.2168 70.6376 13.2184 69.9072 13.2184C69.7333 13.2184 69.6434 13.2392 69.5614 13.4014C69.2918 13.9179 66.0065 18.8416 65.395 19.7977C65.2918 19.9434 65.1662 19.923 65.1516 19.7561C65.0896 19.1882 64.5992 18.5354 63.8265 18.223C63.2376 17.9842 62.662 17.9409 62.0634 18.0204C60.9829 18.1656 60.0202 18.7356 59.1739 19.3785C57.8983 20.3482 56.7977 21.6051 55.377 22.5338C54.6014 23.0393 53.5394 23.4802 52.8287 22.8221C52.1855 22.2258 52.2582 20.9014 53.2422 19.877C53.3458 19.7697 53.4702 19.8604 53.4507 19.9557C53.3579 20.4189 53.4715 20.8796 53.8235 21.2026C54.2528 21.5875 54.8672 21.6309 55.3931 21.374C56.0136 21.0665 56.3783 20.4728 56.4846 19.799C56.649 18.7536 55.8444 17.8317 54.8375 17.7577C54.0196 17.7003 53.2352 17.9849 52.471 18.6157C52.0877 18.9336 51.8701 19.1684 51.5387 19.6397C51.458 19.7558 51.334 19.7674 51.3377 19.596C51.3752 18.2577 50.8222 17.5047 49.7158 17.4801C48.8569 17.4593 47.9394 17.9256 47.2243 18.4957C46.4403 19.1253 45.7548 19.9597 45.0199 20.7437C44.9284 20.8402 44.8489 20.8356 44.8231 20.6484C44.8023 19.7617 44.578 18.9028 44.1677 18.2929C44.0225 18.0807 43.7168 17.9758 43.46 18.1189C43.3414 18.1838 42.9289 18.3736 42.6285 18.6154C42.4795 18.7382 42.4212 18.9159 42.4874 19.1436C42.8835 20.4684 42.7966 21.9746 42.259 23.2467C41.7654 24.4118 40.8063 25.4627 39.679 25.8183C38.9363 26.0538 38.1643 25.9386 37.6865 25.2802C37.0304 24.3715 37.2954 22.7912 38.2735 21.479C39.1366 20.3236 40.3851 19.5897 41.6304 19.1171C41.7769 19.0605 41.8073 18.9664 41.7656 18.842C41.6982 18.6373 41.59 18.3585 41.5463 18.2312C41.4319 17.9271 41.1122 17.8779 40.7217 17.9204C39.8168 18.0257 39.0005 18.3357 38.1943 18.7674C36.0829 19.898 35.0244 22.0862 34.5605 23.2569C34.3371 23.8192 34.1461 24.17 33.8993 24.4811C33.5664 24.8994 33.1485 25.2803 32.3846 25.9513C32.3155 26.0129 32.2639 26.141 32.3221 26.2604C32.4 26.4219 32.7973 26.983 32.9094 27.0331C33.0338 27.0943 33.1782 27.0081 33.236 26.9673C33.7706 26.6049 34.4103 26.0305 34.7232 25.6409C34.8331 25.5074 34.9459 25.5636 35.0041 25.7662C35.2962 26.8083 36.0611 27.6592 37.1187 28.0152C39.0546 28.668 41.0625 27.7231 42.5782 26.0779C43.5415 25.0323 43.889 24.3598 44.2583 23.9027C44.884 23.1274 46.1183 21.3931 47.5884 20.2796C48.1275 19.8689 48.7655 19.5557 49.0863 19.7637C49.3438 19.9306 49.4271 20.3183 49.0139 21.0697C47.515 23.8067 45.3097 27.0225 44.9053 27.8023C44.8312 27.9375 44.8969 28.044 45.0376 28.044C45.8219 28.0401 46.5994 28.0421 47.3114 28.0421C47.43 28.0379 47.4829 27.9822 47.5424 27.8985C48.6926 26.098 49.7751 24.3843 50.9354 22.6125C51.0003 22.508 51.0602 22.5875 51.0627 22.6332C51.0877 23.0443 51.1876 23.6066 51.4318 23.9758C51.8704 24.6584 52.492 24.9517 53.1813 24.9562C53.7298 24.9645 54.0073 24.8792 54.5988 24.6582C55.0801 24.4797 55.4664 24.2455 55.763 24.0335C55.9361 23.9128 55.9664 24.1146 55.9623 24.1454C55.696 25.5748 56.0247 27.2685 57.4453 27.9707C59.1455 28.809 61.0132 27.6308 62.0879 26.5671C62.1932 26.4648 62.3059 26.4756 62.3167 26.6965C62.3417 27.1026 62.5231 27.5845 62.8591 27.9218C63.7597 28.8256 65.5771 28.4674 67.4009 27.0558C68.5719 26.1519 69.7971 24.875 70.9038 23.5228C70.9454 23.4704 70.9754 23.3863 70.8955 23.301C70.727 23.1246 70.4832 22.9228 70.316 22.7674C70.2399 22.7025 70.128 22.7212 70.0639 22.7696C68.9294 23.8486 67.9082 25.079 66.4323 26.0965C65.9345 26.4439 65.1412 26.7242 64.7849 26.2418C64.6459 26.0545 64.6617 25.7956 64.7974 25.4557C65.2277 24.3826 72.0407 14.0098 72.3944 13.3981" fill="white"/>
<path d="M40.339 14.6535C40.3681 14.8075 40.428 14.8374 40.4979 14.8245C40.845 14.7551 41.2248 14.4696 41.4496 14.1387C41.6543 13.8387 41.7504 13.4058 41.5469 13.2323C41.3655 13.0763 41.0701 13.1204 40.8511 13.3138C40.415 13.6991 40.2826 14.2458 40.3388 14.6538M22.9744 28.0059C20.4341 28.0225 18.1961 26.4537 17.9393 23.7361C17.7966 22.2301 18.2222 20.8879 19.0744 19.7822C19.8306 18.797 21.1102 17.9784 22.1933 17.7785C22.5457 17.714 23.0193 17.7535 23.215 17.9882C23.5221 18.3456 23.4339 18.7382 23.1268 18.8949C22.3005 19.3168 21.3062 20.039 20.8142 21.0252C20.4152 21.8302 20.3345 22.8003 20.944 23.7245C21.9642 25.2647 24.8078 25.3071 27.4518 22.8507C28.1066 22.2496 28.6926 21.672 29.2882 20.9878C30.4527 19.6563 30.8401 19.1711 32.388 17.0239C32.4047 16.999 32.413 16.9665 32.4046 16.9507C32.3922 16.9215 32.3714 16.9174 32.3252 16.9132C31.2918 16.9423 30.3909 17.2499 29.5152 17.9043C29.263 18.0882 28.9001 18.0624 28.7412 17.8202C28.5643 17.5464 28.6913 17.19 28.9821 16.9888C30.3908 16.009 31.9297 15.8313 33.5013 15.5661C33.5 15.5661 33.6103 15.5703 33.7002 15.4521C34.3453 14.6241 34.8324 13.8773 35.5201 13.04C36.2131 12.1905 37.1081 11.4104 37.792 10.8244C38.7465 10.0036 39.3587 9.72737 39.9809 9.38884C40.1448 9.30312 39.9601 9.20078 39.9101 9.20078C36.4366 8.54793 32.8261 7.70314 29.3764 8.98021C26.9873 9.87177 25.9403 11.7664 26.4439 13.0323C26.8022 13.9303 27.9832 14.0763 29.089 13.5352C30.0073 13.0853 30.8572 12.3601 31.4596 11.4265C31.7967 10.9081 32.5069 11.2821 32.1232 12.1824C31.1137 14.555 29.1852 16.437 26.8361 16.5165C24.8369 16.5814 23.547 15.1106 23.5512 13.2962C23.5596 9.71737 27.5436 7.35992 31.7307 7.00749C36.7732 6.59077 41.5492 7.93395 46.5558 8.54124C50.3918 9.00576 54.0695 9.01543 57.9252 8.12969C58.381 8.03066 58.7008 8.3215 58.6711 8.78187C58.6336 9.44732 58.118 10.0882 56.8482 10.7808C55.4039 11.5729 53.893 11.8132 52.3151 11.8261C48.4994 11.8594 44.9452 10.3706 41.2671 9.57137C41.2713 9.7324 41.3138 9.92419 41.1789 10.0258C39.1416 11.5286 37.3001 13.0546 36.0667 15.1979C36.0251 15.2474 36.0459 15.2945 36.1196 15.2895C37.1904 15.2325 38.1534 15.205 39.1531 15.1251C39.3279 15.1085 39.3345 15.0668 39.3191 14.9395C39.2305 14.2007 39.4464 13.3583 40.0963 12.7788C40.7614 12.1825 41.5942 12.1147 42.1463 12.5441C42.7739 13.0332 42.7184 13.9128 42.3751 14.5724C42.0256 15.2417 41.4484 15.5997 40.8944 15.7735C40.8944 15.7735 40.7779 15.7985 40.7953 15.9041C40.8161 16.0731 41.5719 16.4914 41.6365 16.6028C41.6989 16.7089 41.6657 16.8733 41.5521 16.9994C41.4722 17.0909 41.347 17.1766 41.1868 17.1737C41.0574 17.1711 40.9787 17.1263 40.8131 17.0368C40.4744 16.8533 40.0511 16.5516 39.7688 16.1959C39.6726 16.0757 39.6235 16.0732 39.3834 16.0865C38.3016 16.149 36.6148 16.3121 35.4719 16.4548C35.1948 16.4881 35.154 16.5409 35.097 16.637C33.2748 19.6418 31.3291 22.8822 29.193 25.0516C26.9017 27.3778 24.9971 27.9902 22.9753 28.0061" fill="white"/>
<path d="M45.066 3.81427C21.312 3.81427 2.05757 10.3783 2.05757 18.4104C2.05757 26.4432 21.312 33.0077 45.066 33.0077C68.8197 33.0077 88.0728 26.4432 88.0728 18.4104C88.0728 10.3783 68.8197 3.81427 45.066 3.81427ZM45.066 34.3306C20.4473 34.3306 0.490234 27.2029 0.490234 18.4104C0.490234 9.61659 20.4473 2.49023 45.066 2.49023C69.6825 2.49023 89.6383 9.61659 89.6383 18.4104C89.6383 27.2029 69.6825 34.3306 45.066 34.3306Z" fill="white"/>
</g>
<defs>
<clipPath id="clip0_463_3451">
<rect width="94.1379" height="35.9874" fill="white" transform="translate(-2 0.412109)"/>
</clipPath>
</defs>
</svg>
