<svg width="67" height="72" viewBox="0 0 67 72" fill="none" xmlns="http://www.w3.org/2000/svg">
<g clip-path="url(#clip0_463_13018)">
<mask id="mask0_463_13018" style="mask-type:alpha" maskUnits="userSpaceOnUse" x="0" y="0" width="67" height="73">
<path d="M66.038 72.1034H0.6875V0.217773H66.038V72.1034Z" fill="black"/>
</mask>
<g mask="url(#mask0_463_13018)">
<path fill-rule="evenodd" clip-rule="evenodd" d="M31.899 71.2513C22.7619 67.0013 14.826 60.0361 9.55197 51.6415C4.29071 43.2712 1.52572 33.577 0.849236 21.1304C0.633782 17.1596 0.633782 12.2064 0.848077 5.9907L0.945379 3.15389L3.74513 2.68476C13.5969 1.04105 23.5623 0.207031 33.3631 0.207031C43.164 0.207031 53.1282 1.04105 62.9788 2.68476L65.7786 3.15389L65.877 5.9907C66.0925 12.2076 66.0925 17.1607 65.8759 21.1304C65.1982 33.577 62.4344 43.2712 57.1731 51.6415C51.9003 60.0361 43.9621 67.0013 34.8261 71.2513L33.3631 71.9313L31.899 71.2513Z" fill="black"/>
</g>
<path fill-rule="evenodd" clip-rule="evenodd" d="M33.3645 2.25195C23.4842 2.25195 13.2283 3.09264 2.81904 4.88282C2.66363 9.04091 2.4865 15.4681 2.78406 20.922C3.44679 33.0821 6.13321 42.5203 11.2385 50.6251C16.3285 58.7063 24.2111 65.655 33.3645 69.7818C42.518 65.655 50.3998 58.7063 55.4898 50.6251C60.5958 42.5203 63.2813 33.0821 63.9448 20.922C64.2409 15.4681 64.0647 9.04091 63.9093 4.88282C53.5 3.09264 43.2449 2.25195 33.3645 2.25195ZM33.3645 3.42341C43.1041 3.42341 52.9936 4.24874 62.7708 5.87763C62.9854 12.0463 62.9853 16.9544 62.772 20.8587C62.1205 32.8116 59.4912 42.0726 54.496 50.0023C49.5015 57.9312 42.0114 64.4809 33.3645 68.4937C24.717 64.4809 17.2276 57.9312 12.2331 50.0023C7.23787 42.0726 4.60794 32.8116 3.95705 20.8587C3.74381 16.9544 3.74369 12.0463 3.95833 5.87763C13.7355 4.24874 23.6243 3.42341 33.3645 3.42341Z" fill="white"/>
<path fill-rule="evenodd" clip-rule="evenodd" d="M12.9297 9.00354C12.8338 9.00119 12.7317 9.00569 12.6236 9.01681C11.1769 9.16767 9.7323 9.33373 8.28906 9.51587V13.7782C8.53924 13.7462 8.79016 13.7156 9.04034 13.685V12.3663C10.2334 12.2203 11.4285 12.0853 12.6236 11.9609C13.4878 11.8712 13.9707 11.5106 13.9707 10.6179V10.1354C13.9707 9.37199 13.6011 9.01999 12.9297 9.00354ZM12.8468 9.68129C13.0412 9.66113 13.2363 9.80861 13.2363 10.004V10.8673C13.2363 11.0529 13.0412 11.2304 12.8468 11.2512C11.577 11.3812 10.308 11.5245 9.04034 11.6788V10.1096C10.308 9.95461 11.577 9.81199 12.8468 9.68129Z" fill="white"/>
<path fill-rule="evenodd" clip-rule="evenodd" d="M31.9767 7.94633C33.3294 7.93659 34.682 7.94145 36.034 7.95953V8.64641C34.5886 8.62764 33.1426 8.62347 31.6966 8.63528C31.5008 8.63737 31.305 8.80631 31.305 9.00166V11.1374C31.305 11.3327 31.5008 11.526 31.6966 11.5239C32.9935 11.5128 34.2897 11.5149 35.5866 11.5295V10.3775C34.8339 10.3692 34.0813 10.365 33.3294 10.3657V9.67811C34.3273 9.67811 35.3252 9.68576 36.3232 9.70036V12.2261C34.9211 12.2052 33.5189 12.1997 32.1168 12.208C31.0903 12.215 30.5684 12.0384 30.5684 11.0442V9.1866C30.5684 8.25848 31.0346 7.95328 31.9767 7.94633V7.94633Z" fill="white"/>
<path fill-rule="evenodd" clip-rule="evenodd" d="M46.6273 8.39162C45.8188 8.39391 45.4551 8.64904 45.4551 9.48547V11.3888C45.4551 12.4017 45.9769 12.5994 47.0013 12.6682C47.9421 12.7322 48.8815 12.803 49.8216 12.8801C50.8355 12.9636 51.366 12.7911 51.366 11.8338V9.93042C51.366 8.95503 50.7519 8.69427 49.8216 8.61779C48.8815 8.53993 47.9421 8.4698 47.0013 8.40515C46.8674 8.39611 46.7428 8.39129 46.6273 8.39162ZM46.5826 9.06478C47.8029 9.14473 49.0216 9.23656 50.2405 9.33946C50.4356 9.35614 50.6308 9.54023 50.6308 9.7627V11.8715C50.6308 12.0662 50.4356 12.2448 50.2405 12.2282C49.0216 12.1253 47.8029 12.0334 46.5826 11.9527C46.3589 11.9374 46.1908 11.7325 46.1908 11.5371V9.42906C46.1908 9.20589 46.3589 9.04948 46.5826 9.06478Z" fill="white"/>
<path fill-rule="evenodd" clip-rule="evenodd" d="M28.7245 7.99512V11.0784C28.7245 12.0538 28.2109 12.2679 27.176 12.2999C26.275 12.3277 25.3739 12.3611 24.4728 12.4014C23.5126 12.4445 22.9258 12.2624 22.9258 11.2967V8.21342L23.6617 8.17588V11.3892C23.6617 11.5845 23.8296 11.7437 24.0526 11.7333C25.2338 11.6784 26.4144 11.6339 27.5956 11.5998C27.82 11.5936 27.9691 11.4225 27.9691 11.2272V8.01389C28.2207 8.00693 28.4722 8.00069 28.7245 7.99512V7.99512Z" fill="white"/>
<path fill-rule="evenodd" clip-rule="evenodd" d="M38.166 7.99902C39.9807 8.04212 41.7947 8.11026 43.6086 8.20342V8.89029C42.0407 8.81034 40.472 8.74847 38.9026 8.70536V9.75445C40.2985 9.79338 41.6936 9.84621 43.0881 9.91365V10.6012C41.6936 10.5338 40.2985 10.4803 38.9026 10.442V11.5933C40.472 11.6364 42.0407 11.6983 43.6086 11.7789V12.4658C41.7947 12.3733 39.9807 12.3052 38.166 12.2614V7.99902Z" fill="white"/>
<path fill-rule="evenodd" clip-rule="evenodd" d="M21.0788 8.31738V9.00426C19.5115 9.10089 17.9449 9.2156 16.3797 9.34839V10.3982C17.7721 10.2793 19.1652 10.1757 20.5589 10.0867V10.7743C19.1652 10.8633 17.7721 10.9669 16.3797 11.085V12.237C17.9449 12.1035 19.5115 11.9888 21.0788 11.8929V12.5798C19.2662 12.691 17.455 12.8273 15.6445 12.9878V8.72478C17.455 8.56418 19.2662 8.42862 21.0788 8.31738Z" fill="white"/>
<path fill-rule="evenodd" clip-rule="evenodd" d="M52.7305 8.87793C54.6357 9.06286 56.5396 9.27559 58.44 9.51475V10.2023C57.6184 10.0987 56.7954 10 55.9716 9.90685V13.4823C55.7215 13.4538 55.4713 13.426 55.2197 13.3982V9.82273C54.3911 9.73166 53.5604 9.64614 52.7305 9.5655V8.87793Z" fill="white"/>
<path fill-rule="evenodd" clip-rule="evenodd" d="M27.5204 17.0354C31.0187 16.7288 35.7526 16.6454 40.2746 16.9868C40.5318 17.0062 40.782 17.0667 41.0196 17.1668C42.5012 17.7884 45.1298 19.1482 48.0525 20.816C48.1814 20.8897 48.3027 20.9759 48.4142 21.0739C49.1884 21.7546 51.1501 23.7568 51.1501 23.7568L50.5383 23.6358C50.4525 23.6191 50.3724 23.5858 50.2999 23.5371C49.0623 22.7077 47.2553 21.628 45.7409 20.8668C45.5612 20.7771 45.3667 20.7194 45.1667 20.6985C44.4301 20.62 43.4343 20.5511 42.7827 20.5247C42.4614 20.5115 42.2426 20.458 41.9283 20.2988C41.3276 19.995 39.8725 19.3366 39.1478 19.0606C38.8377 18.9424 38.6795 18.9146 38.3756 18.9195C37.1303 18.9375 34.2933 19.0279 32.8445 19.1176C32.7943 19.1204 32.7463 19.1183 32.6975 19.1106L32.0069 19.0029C33.9651 18.6664 38.8056 18.2361 40.8091 18.1311L39.9938 17.8593C39.8363 17.8071 39.6725 17.7793 39.506 17.7751C39.071 17.7648 38.1038 17.7455 36.8483 17.7438L36.4195 17.7439C34.5178 17.7476 32.0711 17.7942 29.8145 17.9635C29.6173 17.9781 29.4249 18.0254 29.2438 18.1054C28.3322 18.5048 26.1095 19.707 23.8803 20.9419L23.3853 21.2166C22.809 21.5369 22.2387 21.8555 21.6973 22.1592C21.6973 22.1592 21.9753 21.8025 22.029 21.733C22.0764 21.6725 22.091 21.6614 22.1551 21.6197C22.2447 21.5611 22.5505 21.3601 22.8588 21.1562L23.0872 21.0049C23.2724 20.882 23.4376 20.7715 23.5308 20.7076C23.5767 20.6763 23.606 20.654 23.6639 20.6109C24.3349 20.1062 25.3942 19.2163 26.0256 18.665C26.1684 18.5406 26.2897 18.396 26.3893 18.2347C26.5935 17.9051 26.8165 17.5478 26.9538 17.3497C27.0709 17.1779 27.2709 17.0577 27.5204 17.0354V17.0354Z" fill="white"/>
<path fill-rule="evenodd" clip-rule="evenodd" d="M29.2165 20.4082C29.2966 20.4076 29.3468 20.4937 29.3071 20.5625L27.6165 23.4665C27.5224 23.6375 27.3649 23.7647 27.1781 23.821L24.008 24.8103C23.6401 24.9216 23.3293 24.9813 22.946 25.0105C22.2428 25.0634 20.1543 25.1287 20.1543 25.1287L20.2003 25.03C20.2219 24.9834 20.2602 24.9466 20.3076 24.9264L21.2958 24.5079C21.3697 24.4766 21.4345 24.4286 21.4839 24.3668L23.0101 22.4925C23.0916 22.3924 23.1983 22.2964 23.3118 22.2366C24.3202 21.7076 26.1133 20.9129 27.3691 20.4944C27.4875 20.4548 27.6471 20.4298 27.7719 20.4284L29.2165 20.4082Z" fill="white"/>
<path fill-rule="evenodd" clip-rule="evenodd" d="M21.3245 25.6256C21.3907 25.62 21.4534 25.6568 21.4792 25.7173C21.5663 25.9196 21.5426 26.1456 21.4583 26.3388C21.4256 26.4174 21.3245 26.4939 21.2416 26.512L20.5482 26.6656C20.5064 26.6746 20.4681 26.6413 20.4708 26.5989L20.5357 25.7868C20.5405 25.7319 20.5837 25.6881 20.6388 25.6839L21.3245 25.6256Z" fill="white"/>
<path fill-rule="evenodd" clip-rule="evenodd" d="M36.7037 22.196C36.8075 22.1779 36.9142 22.1925 37.0096 22.2377L37.7337 22.5833C37.8048 22.6173 37.857 22.682 37.8759 22.7598C37.9741 23.1728 38.0947 23.7199 38.1755 24.185C38.2083 24.3783 38.172 24.5757 38.0738 24.7461C37.7741 25.2654 37.1588 26.1998 36.8145 26.7017C36.7379 26.8143 36.7288 26.9506 36.7525 27.0848C36.9086 27.9455 37.5595 30.9509 37.5595 30.9509L37.1497 30.5789C37.0682 30.5039 37.0145 30.4246 36.9797 30.321C36.6884 29.4708 36.1434 27.6945 35.8926 26.8303C35.8521 26.6878 35.8828 26.5356 35.9769 26.4222C36.4041 25.905 37.0264 25.0777 37.3901 24.5535C37.4919 24.4061 37.5253 24.2434 37.4654 24.1218C37.3818 23.9507 37.241 23.6907 37.1058 23.4551C37.0696 23.3897 37.009 23.341 36.9372 23.3174L36.4459 23.1603C36.3602 23.1332 36.2682 23.1346 36.1831 23.1652C35.1127 23.5524 33.673 24.1107 32.7921 24.4749C32.6632 24.5285 32.6103 24.5326 32.4542 24.509C32.1991 24.4715 31.4562 24.3387 31.0918 24.2706C31.0262 24.258 30.9935 24.1843 31.0269 24.1266L31.459 23.38C31.5176 23.2792 31.6144 23.2076 31.7287 23.1818C33.1183 22.8662 34.9559 22.5033 36.7037 22.196V22.196Z" fill="white"/>
<path fill-rule="evenodd" clip-rule="evenodd" d="M21.594 22.9785L21.3097 23.3275C21.2936 23.3428 21.2783 23.3574 21.2623 23.3734C21.0121 23.5576 19.9591 24.362 19.6741 24.5873C19.5932 24.6512 19.5612 24.7068 19.5424 24.8076C19.4783 25.1636 19.3716 25.84 19.3403 26.2148C19.3312 26.3246 19.2838 26.3788 19.1716 26.424C18.6831 26.6222 18.104 26.8307 17.6357 27.0177C17.5354 27.0574 17.5075 27.0727 17.4483 27.1178C17.4016 27.154 16.7793 27.7081 16.7793 27.7081C16.7793 27.7081 18.1319 27.3758 18.6281 27.2638C18.7465 27.2374 18.7974 27.2444 18.9068 27.2958C19.0093 27.3431 19.18 27.4105 19.2699 27.4432C19.4079 27.494 19.481 27.4919 19.6337 27.4585C20.1926 27.3341 21.1326 27.1116 21.633 26.9816C21.8929 26.9141 22.0351 26.8439 22.2553 26.6903C22.495 26.5241 23.102 26.0702 23.102 26.0702C23.102 26.0702 23.0909 26.1501 23.0825 26.1946C23.0762 26.2328 23.0623 26.2544 23.0372 26.2843C22.9139 26.4324 22.6978 26.6736 22.5905 26.7841C22.3445 27.0379 22.1975 27.1283 21.8888 27.2569C20.4671 27.8478 18.0378 28.7655 16.2155 29.3947C16.0963 29.4364 16.0447 29.4705 15.9562 29.5608C15.8601 29.6582 15.7318 29.8 15.7318 29.8C15.7318 29.8 17.2176 29.9077 17.6713 29.9599C17.8183 29.9766 17.9235 30.0245 18.0357 30.1212C18.4086 30.441 19.6427 31.7084 20.0121 32.1484C20.0121 32.1484 16.5033 32.7303 14.8775 33.1329C14.6768 33.1822 14.5764 33.3094 14.5311 33.47C14.3966 33.9414 14.0795 35.457 14.0795 35.457C14.0795 35.457 13.9667 35.4208 13.8092 35.3304C13.7011 35.2686 13.6461 35.2171 13.5276 35.092C13.1429 34.6867 12.5109 33.9108 12.207 33.461C12.1178 33.3282 12.0802 33.1593 12.1917 33.0237C12.5213 32.6191 13.1834 31.8808 13.5485 31.5012C13.5876 31.4602 13.637 31.3886 13.6893 31.2857C13.8122 31.0422 13.9741 30.4256 14.0306 30.203L14.0486 30.131L14.051 30.1212C14.051 30.1212 14.0475 30.1233 14.0412 30.1273L13.9745 30.1691C13.8841 30.2258 13.7381 30.3175 13.6753 30.3568C13.5813 30.4166 13.5555 30.4424 13.5165 30.5244C13.4572 30.6481 13.3534 30.8435 13.2746 30.9791C13.2489 31.0236 13.1799 31.0924 13.1429 31.1209C12.6767 31.4761 12.1617 31.8578 11.7952 32.1151C11.7701 32.1324 11.738 32.1248 11.7164 32.1039C11.6697 32.0573 11.4739 31.8356 11.4391 31.7834C11.4098 31.7396 11.3965 31.6986 11.3965 31.6458C11.3959 31.5533 11.4049 31.3906 11.414 31.2697C11.4251 31.1265 11.4662 31.0583 11.6412 30.8776C11.837 30.6753 12.0502 30.4625 12.2746 30.2442C12.8245 29.7826 14.2126 28.6591 16.6914 26.8947C16.7381 26.8613 16.7806 26.8224 16.8148 26.7758C17.0754 26.4254 17.8148 25.4688 17.9974 25.2414C18.0232 25.2095 18.0517 25.1796 18.0845 25.1538C18.3765 24.9237 18.5207 24.8243 18.8169 24.638C19.5075 24.2042 20.8448 23.413 21.594 22.9785L21.594 22.9785Z" fill="white"/>
<path fill-rule="evenodd" clip-rule="evenodd" d="M15.9889 34.9004L15.683 37.0062L14.6426 35.7882C14.8321 35.3787 15.3861 34.9922 15.9889 34.9004Z" fill="white"/>
<path fill-rule="evenodd" clip-rule="evenodd" d="M22.8402 36.0186C22.3217 36.8695 21.7022 37.7733 21.2339 38.3378C21.1726 38.4115 21.0911 38.4685 20.9984 38.5033C20.4862 38.6944 19.6325 38.9823 19.0039 39.1734L22.8402 36.0186Z" fill="white"/>
<path fill-rule="evenodd" clip-rule="evenodd" d="M44.9607 22.3463C45.2352 22.2455 45.5363 22.2524 45.806 22.3657C47.898 23.2417 51.4159 25.3023 53.3713 26.7539C53.5601 26.8944 53.6354 26.991 53.6849 27.2176C54.1441 29.3005 54.3183 32.5201 54.0291 35.2307C54.0082 35.4254 53.9692 35.5422 53.8675 35.75C52.6284 38.2771 51.234 40.6555 49.7663 42.4902L49.7693 42.4601C49.7884 42.2648 49.8937 41.1632 49.8994 40.5672C49.9001 40.4997 49.9315 40.4379 49.9851 40.3969C50.2576 40.1855 50.6318 39.8852 50.8437 39.7023C50.9468 39.6133 51.004 39.5466 51.0576 39.4604C51.6555 38.4968 52.7246 36.4793 53.1552 35.2655C53.2605 34.9693 53.3023 34.6558 53.2765 34.3422C53.1385 32.6508 52.8723 30.3072 52.4758 28.7777C52.4082 28.517 52.2353 28.2966 51.9949 28.1736C51.6528 27.9984 50.9817 27.6932 49.4534 27.0821C49.2416 26.9973 49.0436 26.8798 48.8694 26.7338C47.8673 25.8939 46.3007 24.6349 45.3258 23.9105C45.0408 23.6985 44.677 23.6213 44.33 23.6998C43.6198 23.8604 42.716 24.0843 42.2073 24.222C42.0344 24.2685 41.9662 24.2727 41.7878 24.2518C41.6948 24.2411 41.5748 24.2294 41.4486 24.2179L41.2575 24.2011C41.0354 24.1822 40.827 24.1662 40.7453 24.16L40.709 24.1573C42.3669 23.3808 43.962 22.7106 44.9606 22.3463L44.9607 22.3463Z" fill="white"/>
<path fill-rule="evenodd" clip-rule="evenodd" d="M20.2757 33.0313C20.4401 32.9784 20.615 32.9722 20.7823 33.0125C21.5363 33.1933 23.1322 33.5833 24.3384 33.8913C24.5078 33.9344 24.7189 34.0922 24.8088 34.2417L25.0716 34.6776C25.1636 34.8305 25.1698 35.0182 25.0883 35.1767C24.869 35.6007 24.5563 36.1749 24.2256 36.7669L23.9755 37.2122C23.5151 38.0271 23.0565 38.8134 22.7963 39.2271C22.6248 39.5003 22.5294 39.6212 22.2241 39.729C21.0373 40.1454 19.5634 40.6432 18.6875 40.9262C18.5084 40.9839 18.4477 41.0923 18.4826 41.2905C18.5453 41.6513 18.7474 42.8762 18.8248 43.2336C18.8533 43.3657 18.9593 43.4706 19.1558 43.4331C19.6736 43.3351 21.052 42.9986 21.052 42.9986C21.052 42.9986 20.6457 43.3733 20.4025 43.5944C20.3579 43.6361 20.3063 43.6667 20.2485 43.6855C19.8729 43.8106 18.9558 44.0671 18.67 44.1297C18.447 44.1777 18.3049 44.0901 18.2477 43.8384C18.2477 43.8384 17.8568 42.1782 17.7153 41.6137C17.693 41.5275 17.6707 41.4531 17.6435 41.3683C17.5376 41.0416 17.2833 40.3992 17.1397 40.0627C17.123 40.0238 17.1146 39.9821 17.1153 39.939C17.1195 39.5545 17.1906 38.6966 17.1906 38.6966C17.1906 38.6966 18.0345 39.4857 18.4429 39.7707C18.5348 39.8354 18.5899 39.8486 18.7028 39.8201C19.2638 39.6762 20.5537 39.2507 21.2617 38.9865C21.4234 38.926 21.5649 38.8245 21.675 38.6917C22.4074 37.8095 23.3259 36.4371 23.8562 35.402C23.9294 35.2594 23.9433 35.0961 23.8973 34.9431L23.783 34.5677C23.7496 34.4579 23.6332 34.3341 23.5259 34.2931C22.2778 33.8197 21.2938 33.4679 20.1377 33.0751L20.2757 33.0313Z" fill="white"/>
<path fill-rule="evenodd" clip-rule="evenodd" d="M42.6436 28.7852L43.075 28.9722C43.2025 29.0271 43.3189 29.1077 43.415 29.2078C46.0597 31.9609 48.1747 34.8155 48.5984 35.5677C48.6799 35.7123 48.7357 35.8569 48.7559 36.0224C49.2312 40.0372 48.8228 44.2906 47.8521 47.9905C47.7642 48.3242 47.666 48.4952 47.344 48.7365C46.3076 49.514 44.7606 50.7538 43.222 52.0179L42.7371 52.4174C40.8838 53.9478 39.123 55.4463 38.3759 56.1357C38.1885 56.3095 38.0247 56.5055 37.8909 56.7231C37.5405 57.2911 37.0056 58.2686 36.7429 58.7538L36.6695 58.8896C36.6168 58.9874 36.5863 59.0445 36.5863 59.0445C36.2379 58.286 35.4783 56.4353 35.2177 55.6873C35.1326 55.4432 35.1173 55.3153 35.2072 54.9886C35.6323 53.4375 37.6414 48.9284 38.0323 48.1129L38.033 48.4466C38.033 48.4952 38.0253 48.5432 38.01 48.5891C37.8337 49.1223 36.7535 52.6763 36.534 54.2176C36.4852 54.5603 36.4894 54.6528 36.534 54.9893C36.6302 55.7088 37.0615 57.0283 37.0615 57.0283C37.0615 57.0283 37.3173 56.4958 37.5556 56.1357C37.6727 55.9591 37.7431 55.8743 37.934 55.6852C38.8999 54.7323 40.5477 53.2594 42.264 51.7784L42.8716 51.2561C44.19 50.1274 45.5062 49.0291 46.5461 48.19C46.8164 47.9717 46.9175 47.8257 46.9774 47.4114C47.2757 45.3702 47.3621 41.7065 47.1823 39.0403C47.1482 38.537 46.9844 38.0503 46.7001 37.6325C46.0478 36.671 45.268 35.761 44.0854 34.5923C43.9167 34.4248 43.8018 34.2106 43.7585 33.977C43.4136 32.1417 42.6435 28.7852 42.6435 28.7852H42.6436Z" fill="white"/>
<path fill-rule="evenodd" clip-rule="evenodd" d="M28.7173 30.1211C28.7173 30.1211 28.9576 30.8975 29.1894 31.7407L29.2704 32.0399C29.4168 32.5893 29.5474 33.1317 29.5947 33.4748C29.64 33.805 29.6323 33.894 29.5145 34.2104C29.2289 34.9681 28.7034 36.1869 28.1428 37.4328L27.901 37.9672C27.2131 39.4789 26.5167 40.9392 26.1786 41.5713C26.012 41.8828 25.8552 42.0858 25.5416 42.4035C24.8259 43.13 23.4559 44.503 22.6078 45.2713C22.2997 45.5507 22.2168 45.7892 22.1541 46.1507C22.053 46.7312 21.9527 47.7219 21.9248 48.2336C21.9004 48.6834 21.9736 48.894 22.2252 49.3397C23.72 51.9989 28.7103 58.1168 30.1319 59.4015C30.2351 59.4947 30.3103 59.5573 30.5278 59.7012C30.7368 59.8402 31.4184 60.281 31.4184 60.281C31.4456 60.2997 31.4686 60.3248 31.486 60.3533L31.7327 60.7864C31.7327 60.7864 31.7096 60.775 31.668 60.7544L31.5615 60.7016C31.4758 60.6591 31.3625 60.6028 31.2324 60.538L30.9156 60.3798C30.4299 60.1368 29.851 59.8444 29.5466 59.681C29.4211 59.6136 29.3034 59.5343 29.1939 59.4432C27.5291 58.0639 22.4273 52.1094 20.9269 49.6233C20.5527 49.0025 20.5143 48.8016 20.5645 48.2141C20.6586 47.1205 20.8042 45.7454 20.9318 45.1426C21.0091 44.779 21.0893 44.5656 21.3687 44.2444C22.3078 43.1663 23.4532 41.743 24.5694 40.2826L24.9617 39.7661C26.6532 37.5257 28.2114 35.2832 28.7932 34.1408C28.9263 33.8808 28.9375 33.7904 28.9403 33.545C28.9479 32.8331 28.7201 31.4469 28.6601 31.0965C28.6511 31.0416 28.6483 30.9859 28.6531 30.9303L28.7173 30.1211Z" fill="white"/>
<path fill-rule="evenodd" clip-rule="evenodd" d="M33.2776 38.9336C33.2776 38.9336 33.4699 40.0717 33.5285 40.4019C33.5612 40.5889 33.5682 40.639 33.5208 40.8225C33.3671 41.4127 32.657 44.5234 32.0886 47.7078L32.0001 48.2109C31.7679 49.5521 31.5673 50.8835 31.4504 52.0224C31.3842 52.6697 31.4058 52.8247 31.5772 53.399C32.063 55.0216 33.8595 59.261 34.2045 60.0341C34.2428 60.1196 34.2658 60.2093 34.2769 60.3018L34.4066 61.3015C33.8309 60.4345 30.7033 54.7011 29.4747 51.526C29.3298 51.152 29.3019 50.9678 29.4622 50.2802C30.3166 46.6324 32.6281 40.4339 33.2776 38.9336H33.2776Z" fill="white"/>
</g>
<defs>
<clipPath id="clip0_463_13018">
<rect width="65.3505" height="71.7241" fill="white" transform="translate(0.689453 0.207031)"/>
</clipPath>
</defs>
</svg>
