<svg width="90" height="90" viewBox="0 0 90 90" fill="none" xmlns="http://www.w3.org/2000/svg">
<path d="M50.3758 46.227L47.3866 52.097H47.3244L47.1733 46.227H44.673L44.5755 46.4382L44.7899 46.569C44.9968 46.7149 45.0547 46.8628 45.0815 47.2702L45.4203 54.3936H48.2057L52.7013 46.227H50.3758ZM41.478 50.4545C41.1982 51.2575 40.9784 51.7743 40.6535 52.1153C40.3984 52.3833 40.0617 52.5752 39.2865 52.5752C38.6786 52.5752 38.3398 52.3265 38.3398 51.8558C38.3355 51.5524 38.4181 51.0914 38.743 50.194C39.0239 49.392 39.2437 48.8752 39.5696 48.5343C39.8215 48.2663 40.1593 48.0733 40.9355 48.0733C41.5434 48.0733 41.8811 48.322 41.8801 48.7905C41.8865 49.0982 41.8039 49.5593 41.478 50.4545ZM41.3483 46.1262H41.0888C39.5503 46.1262 38.6711 46.5412 37.9496 47.3077C37.0522 48.2566 36.2095 50.8223 36.2256 52.1796C36.2427 53.5637 37.138 54.5233 39.0196 54.5233H39.2951C40.8379 54.5233 41.7171 54.1084 42.4387 53.3418C43.335 52.3908 44.1605 49.8262 44.1444 48.47C44.1262 47.0869 43.231 46.1262 41.3483 46.1262ZM33.7939 49.1915C33.6535 49.54 33.4991 49.6236 33.2964 49.7061C33.1603 49.7598 32.8719 49.7791 32.5942 49.7791H31.5188L32.1042 48.0915H33.4037C33.7929 48.0915 33.9515 48.2941 33.9569 48.5246C33.959 48.6715 33.8915 48.9406 33.7939 49.1915ZM33.6009 46.227H30.0746L30.0039 46.4382L30.1465 46.5787C30.2966 46.7266 30.2912 46.9025 30.1593 47.2799L27.6955 54.3936H29.9471L30.9098 51.5695L31.6721 51.5706L32.5191 54.3936H34.7814L33.7178 51.5041C34.3354 51.4044 34.6452 51.2275 34.9551 50.952C35.3796 50.5639 35.6734 50.0192 35.9168 49.2172C36.2727 48.054 36.0572 47.3892 35.8289 47.0483C35.5147 46.5787 34.8532 46.227 33.6009 46.227ZM57.2225 51.1182L57.8465 49.4102H54.9764L55.4213 48.1065H58.5305L59.2135 46.2217H53.3435L53.262 46.4618L53.4025 46.6001C53.5536 46.747 53.5472 46.9218 53.4164 47.3013L50.9719 54.3904H56.457L57.1196 52.4927H53.9182L54.3899 51.1182H57.2225ZM63.8087 49.1915C63.6683 49.54 63.5117 49.6236 63.3123 49.7061C63.1729 49.7598 62.8888 49.7791 62.6111 49.7791H61.5368L62.1169 48.0915H63.4185C63.8055 48.0915 63.9663 48.2941 63.9696 48.5246C63.9738 48.6715 63.9042 48.9406 63.8087 49.1915ZM63.6125 46.227H60.0873L60.0187 46.4382L60.1602 46.5787C60.3114 46.7266 60.3039 46.9025 60.1741 47.2799L57.7082 54.3936H59.9629L60.9247 51.5706H61.6859L62.5339 54.3936H64.794L63.7326 51.5041C64.3491 51.4044 64.6589 51.2275 64.9677 50.952C65.3934 50.5639 65.6882 50.0192 65.9316 49.2172C66.2875 48.054 66.072 47.3892 65.8447 47.0483C65.5306 46.5787 64.868 46.227 63.6125 46.227ZM68.2356 57.1865C62.0504 60.3826 53.8002 62.1431 45.0011 62.1431C36.203 62.1431 27.9539 60.3826 21.7676 57.1865C15.8183 54.1116 12.5396 50.1071 12.5396 45.9129C12.5396 41.7154 15.8183 37.7109 21.7676 34.6382C27.9539 31.4432 36.203 29.6805 45.0011 29.6805C53.8002 29.6805 62.0504 31.4432 68.2356 34.6382C74.1861 37.7109 77.4615 41.7154 77.4615 45.9129C77.4615 50.1071 74.1861 54.1116 68.2356 57.1865ZM69.073 33.0171C62.6315 29.6891 54.0833 27.8568 45.0011 27.8568C35.9189 27.8568 27.3696 29.6891 20.9303 33.0171C17.1156 34.9888 10.7148 39.2859 10.7148 45.9129C10.7148 52.5366 17.1156 56.8349 20.9303 58.8065C27.3685 62.1345 35.9168 63.9668 45.0011 63.9668C54.0843 63.9668 62.6326 62.1345 69.073 58.8065C72.8877 56.8349 79.2863 52.5377 79.2863 45.9129C79.2863 39.2849 72.8877 34.9888 69.073 33.0171ZM67.3693 55.5108C60.7145 58.9481 52.4364 60.255 45.0011 60.255C37.5647 60.255 29.2888 58.9481 22.6318 55.5108C19.1098 53.6892 14.4277 50.3334 14.4277 45.9129C14.4277 41.4881 19.1087 38.1355 22.6318 36.315C29.2888 32.8777 37.5647 31.5707 45.0011 31.5707C52.4364 31.5707 60.7145 32.8756 67.3693 36.315C70.8946 38.1355 75.5745 41.4881 75.5745 45.9129C75.5745 50.3355 70.8935 53.6892 67.3693 55.5108ZM67.7146 35.6449C60.9579 32.1508 52.5447 30.8138 45.0011 30.8138C37.4564 30.8138 29.0454 32.1519 22.2855 35.6449C18.4901 37.6048 13.6729 41.1429 13.6729 45.9129C13.6729 50.6786 18.4901 54.2188 22.2855 56.1809C29.0454 59.6718 37.4585 61.0098 45.0011 61.0098C52.5447 61.0098 60.9579 59.6739 67.7146 56.1809C71.5121 54.2188 76.3293 50.6786 76.3293 45.9129C76.3293 41.1429 71.5132 37.6048 67.7146 35.6449ZM27.9582 47.2799L21.7966 49.3062L21.0439 51.3712H26.4776L27.1852 49.4252H23.4187L27.6945 47.9778L27.9582 47.2799ZM52.4761 38.232H53.3692C53.9771 38.232 54.3127 38.4357 54.3202 38.9064C54.3256 39.2098 54.2441 39.6258 53.9289 40.521C53.6501 41.3219 53.4271 41.7862 53.1108 42.1261C52.8567 42.3941 52.519 42.5131 51.7438 42.5131H50.9976L52.4761 38.232ZM50.5184 37.3475L48.0803 44.4612H51.6774C53.2191 44.4612 54.0993 44.1192 54.8134 43.3537C55.7097 42.4059 56.5288 39.9399 56.502 38.5826C56.4752 37.1974 55.5811 36.2957 53.6994 36.2957H50.4315L50.3629 36.5058L50.5044 36.6442C50.6545 36.7932 50.6492 36.969 50.5184 37.3475ZM64.0918 39.2237H58.6581L57.9505 41.1676H61.7159L57.4391 42.6192L57.1753 43.3151L63.337 41.2887L64.0918 39.2237ZM39.8065 44.4569H41.8543L43.6405 39.1744L44.6848 44.4569H46.7348L49.5288 36.2925L47.3866 36.2957L45.8942 40.7333L45.0418 36.2957H42.1545L42.0838 36.5058L42.2253 36.6442C42.3775 36.7932 42.37 36.969 42.2403 37.3475L39.8065 44.4569ZM25.1245 44.4612L30.6965 44.459L31.3698 42.5131H28.1308L30.2708 36.2957H27.4768L27.4071 36.5058L27.5465 36.6442C27.6988 36.7932 27.6923 36.969 27.5615 37.3475L25.1245 44.4612ZM36.9793 38.5526H37.0522L37.0908 41.0185H35.5876L36.9793 38.5526ZM31.2744 44.4569H33.6449L34.672 42.6525H37.1262L37.1508 44.4569H39.3015L38.8373 36.2957H35.6176L35.5458 36.5058L35.6498 36.6098C35.8192 36.776 35.7495 37.0151 35.1223 38.0101L31.2744 44.4569Z" fill="black"/>
</svg>
