<svg width="72" height="72" viewBox="0 0 72 72" fill="none" xmlns="http://www.w3.org/2000/svg">
<g clip-path="url(#clip0_463_3655)">
<path d="M36.0727 0.266602C16.2924 0.266602 0.255859 16.3016 0.255859 36.0826C0.255859 55.8633 16.2924 71.8986 36.0727 71.8986C55.8544 71.8986 71.8893 55.8633 71.8893 36.0826C71.8894 16.3016 55.8545 0.266602 36.0727 0.266602ZM36.0727 70.1077C17.2803 70.1077 2.04826 54.8743 2.04826 36.0826C2.04826 17.2911 17.2803 2.05695 36.0727 2.05695C54.8649 2.05695 70.0983 17.291 70.0983 36.0826C70.0983 54.8743 54.8649 70.1077 36.0727 70.1077Z" fill="url(#paint0_linear_463_3655)"/>
<path d="M70.356 36.0833C70.356 55.0152 55.0059 70.3648 36.0738 70.3648C17.1415 70.3648 1.79297 55.0152 1.79297 36.0833C1.79297 17.1503 17.1415 1.80176 36.0738 1.80176C55.0059 1.80176 70.356 17.1503 70.356 36.0833Z" fill="#333333"/>
<path d="M70.0989 36.0833C70.0989 54.875 54.8655 70.1083 36.0733 70.1083C17.2809 70.1083 2.04883 54.875 2.04883 36.0833C2.04883 17.2918 17.2809 2.05762 36.0733 2.05762C54.8655 2.05762 70.0989 17.2918 70.0989 36.0833Z" fill="url(#paint1_radial_463_3655)"/>
<path d="M58.8849 36.083C58.8849 48.681 48.6718 58.8936 36.0735 58.8936C23.4748 58.8936 13.2617 48.6811 13.2617 36.083C13.2617 23.4844 23.4748 13.2715 36.0735 13.2715C48.6718 13.2715 58.8849 23.4844 58.8849 36.083Z" fill="url(#paint2_linear_463_3655)"/>
<path d="M36.9863 12.6558L39.3559 6.37534V12.6558H41.1556V3.66113H38.451L35.9909 10.1012H36.0143L33.5544 3.66113H30.8496V12.6558H32.6494V6.37534L35.0189 12.6558H36.9863Z" fill="black"/>
<path d="M61.6858 16.6877L58.6108 21.1711L63.4406 18.7958L64.7506 20.3667L57.1493 24.1834L55.6133 22.3239L58.5599 17.8813L58.5424 17.8594L53.6414 19.9571L52.0879 18.1101L57.2133 11.3232L58.5236 12.895L55.3142 17.2168L60.281 15.0015L61.6858 16.6877Z" fill="black"/>
<path d="M20.1422 14.9701C19.4178 14.2669 18.3 14.0549 17.2492 14.7063C17.4504 14.186 17.3687 13.6564 17.2624 13.3626C16.8091 12.5385 16.6503 12.4343 16.2802 12.1217C15.0721 11.1095 13.8012 11.9738 12.8933 13.0558L8.50391 18.2869L15.4043 24.0761L20.0328 18.561C21.0908 17.3004 21.2541 16.0507 20.1422 14.9701ZM11.2158 17.4928L13.8523 14.3508C14.1583 13.9871 14.8491 14.0017 15.2921 14.3749C15.7803 14.7844 15.7817 15.3643 15.4539 15.7557L12.8466 18.8613L11.2158 17.4928ZM18.4895 18.0152L15.741 21.2907L14.02 19.8442L16.7889 16.5434C17.1023 16.1702 17.8003 16.0617 18.271 16.4566C18.8014 16.9026 18.8538 17.581 18.4895 18.0152Z" fill="#333333"/>
<path d="M37.0062 12.3071L39.3757 6.02685V12.3071H41.1756V3.3125H38.4706L36.0107 9.75234H36.0341L33.5741 3.3125H30.8691V12.3071H32.669V6.02685L35.0387 12.3071H37.0062Z" fill="url(#paint3_radial_463_3655)"/>
<path d="M61.7019 16.0851L58.6283 20.5687L63.458 18.1925L64.7667 19.7642L57.1665 23.5809L55.6306 21.7207L58.5773 17.2787L58.56 17.2561L53.6573 19.3547L52.1055 17.5068L57.2309 10.7207L58.5409 12.2919L55.332 16.6135L60.2969 14.3991L61.7019 16.0851Z" fill="url(#paint4_radial_463_3655)"/>
<path d="M19.82 14.7926C19.0971 14.0895 17.9778 13.8773 16.9287 14.5281C17.1282 14.0078 17.0467 13.4781 16.9404 13.1858C16.4871 12.3603 16.3297 12.2575 15.9565 11.9442C14.7485 10.9314 13.4791 11.7962 12.5726 12.8792L8.18164 18.1095L15.0822 23.8987L19.7106 18.3827C20.7673 17.1221 20.9319 15.8733 19.82 14.7926ZM10.8939 17.3152L13.5301 14.174C13.8348 13.8097 14.5255 13.8242 14.97 14.1965C15.4582 14.6068 15.4597 15.1874 15.1303 15.5773L12.5247 18.6836L10.8939 17.3152ZM18.1689 17.8376L15.4203 21.113L13.6963 19.6665L16.4668 16.365C16.7801 15.9927 17.4767 15.8841 17.9474 16.2791C18.4807 16.7257 18.5332 17.4027 18.1689 17.8376Z" fill="url(#paint5_radial_463_3655)"/>
<path d="M14.0195 36.0833C14.0195 23.9038 23.893 14.0303 36.0719 14.0303C48.2521 14.0303 58.1242 23.9038 58.1242 36.0833C58.1242 48.2623 48.2521 58.1355 36.0719 58.1355C23.8929 58.1355 14.0195 48.2623 14.0195 36.0833Z" fill="url(#paint6_radial_463_3655)"/>
<path d="M14.6543 36.0832C14.6543 24.2541 24.2436 14.6641 36.0727 14.6641C47.9019 14.6641 57.4925 24.254 57.4925 36.0832C57.4925 47.9125 47.9019 57.5025 36.0727 57.5025C24.2436 57.5025 14.6543 47.9125 14.6543 36.0832Z" fill="url(#paint7_radial_463_3655)"/>
<path d="M14.6211 36.0837H36.073V14.6318C24.2248 14.6318 14.6211 24.2357 14.6211 36.0837Z" fill="url(#paint8_radial_463_3655)"/>
<path d="M36.0723 36.083V57.5352C47.9203 57.5352 57.5242 47.9296 57.5242 36.083H36.0723Z" fill="url(#paint9_radial_463_3655)"/>
<path d="M57.7007 35.7024H36.4515V14.4531H35.6907V35.7024H14.4414V36.4632H35.6907V57.7132H36.4515V36.4632H57.7007V35.7024Z" fill="url(#paint10_radial_463_3655)"/>
<path d="M36.4532 15.0548C47.7694 15.2561 56.901 24.3869 57.1035 35.7023H57.4823C57.28 24.177 47.9792 14.875 36.4531 14.6738V15.0548H36.4532Z" fill="url(#paint11_linear_463_3655)"/>
<path d="M15.0054 35.6996C15.2064 24.3688 24.3511 15.2249 35.682 15.023V14.6426C24.14 14.8444 14.8276 24.1589 14.625 35.6995H15.0054V35.6996Z" fill="#C2D7E8"/>
<path d="M35.6912 57.1115C24.3751 56.9106 15.2435 47.779 15.0424 36.4629H14.6621C14.8646 47.9888 24.1653 57.2912 35.6913 57.4921V57.1115H35.6912Z" fill="url(#paint12_linear_463_3655)"/>
<path d="M57.1035 36.4629C56.9009 47.779 47.7693 56.9106 36.4531 57.1115V57.4921C47.9792 57.2912 57.2812 47.9889 57.4823 36.4629H57.1035Z" fill="#12404F"/>
<path d="M35.2862 14.6426V35.2849H14.6445V35.6922H35.2862H35.6927V35.2849V14.6426H35.2862Z" fill="url(#paint13_linear_463_3655)"/>
<path d="M35.2486 57.2922V36.8982H14.8125V36.4961H35.2486H35.6507V36.8982V57.2922H35.2486Z" fill="url(#paint14_linear_463_3655)"/>
<path d="M36.8871 57.2922V36.8982H57.281V36.4961H36.8871H36.4863V36.8982V57.2922H36.8871Z" fill="url(#paint15_linear_463_3655)"/>
<path d="M36.8871 14.8252V35.219H57.281V35.6205H36.8871H36.4863V35.219V14.8252H36.8871Z" fill="url(#paint16_linear_463_3655)"/>
</g>
<defs>
<linearGradient id="paint0_linear_463_3655" x1="-4.9872" y1="-3.59508" x2="71.0084" y2="69.8417" gradientUnits="userSpaceOnUse">
<stop stop-color="#DFF4FF"/>
<stop offset="0.0984" stop-color="#D6EAF5"/>
<stop offset="0.2678" stop-color="#BFD0D9"/>
<stop offset="0.4879" stop-color="#98A5AC"/>
<stop offset="0.7469" stop-color="#646B6E"/>
<stop offset="1" stop-color="#2B2B2B"/>
</linearGradient>
<radialGradient id="paint1_radial_463_3655" cx="0" cy="0" r="1" gradientUnits="userSpaceOnUse" gradientTransform="translate(-0.189985 2.63607) scale(50.8858 50.8858)">
<stop stop-color="white"/>
<stop offset="0.3064" stop-color="#A8A8A8"/>
<stop offset="0.6461" stop-color="#4F4F4F"/>
<stop offset="0.8853" stop-color="#161616"/>
<stop offset="1"/>
</radialGradient>
<linearGradient id="paint2_linear_463_3655" x1="62.2244" y1="61.3533" x2="13.8231" y2="14.5817" gradientUnits="userSpaceOnUse">
<stop stop-color="#DFF4FF"/>
<stop offset="0.0855" stop-color="#D6EAF5"/>
<stop offset="0.2327" stop-color="#BED0D9"/>
<stop offset="0.4239" stop-color="#96A4AC"/>
<stop offset="0.6516" stop-color="#5F686D"/>
<stop offset="0.9075" stop-color="#1A1D1E"/>
<stop offset="1"/>
</linearGradient>
<radialGradient id="paint3_radial_463_3655" cx="0" cy="0" r="1" gradientUnits="userSpaceOnUse" gradientTransform="translate(-9.32877 -2.54662) scale(122.271 122.271)">
<stop stop-color="white"/>
<stop offset="0.3102" stop-color="#FDFDFD"/>
<stop offset="0.4505" stop-color="#F6F6F6"/>
<stop offset="0.5567" stop-color="#E9E9E9"/>
<stop offset="0.6456" stop-color="#D7D7D7"/>
<stop offset="0.7238" stop-color="#BFBFBF"/>
<stop offset="0.7944" stop-color="#A2A2A2"/>
<stop offset="0.8593" stop-color="#808080"/>
<stop offset="0.9199" stop-color="#575757"/>
<stop offset="0.9746" stop-color="#2B2B2B"/>
<stop offset="1" stop-color="#141414"/>
</radialGradient>
<radialGradient id="paint4_radial_463_3655" cx="0" cy="0" r="1" gradientUnits="userSpaceOnUse" gradientTransform="translate(-9.33578 -2.54589) scale(122.282 122.282)">
<stop stop-color="white"/>
<stop offset="0.3102" stop-color="#FDFDFD"/>
<stop offset="0.4505" stop-color="#F6F6F6"/>
<stop offset="0.5567" stop-color="#E9E9E9"/>
<stop offset="0.6456" stop-color="#D7D7D7"/>
<stop offset="0.7238" stop-color="#BFBFBF"/>
<stop offset="0.7944" stop-color="#A2A2A2"/>
<stop offset="0.8593" stop-color="#808080"/>
<stop offset="0.9199" stop-color="#575757"/>
<stop offset="0.9746" stop-color="#2B2B2B"/>
<stop offset="1" stop-color="#141414"/>
</radialGradient>
<radialGradient id="paint5_radial_463_3655" cx="0" cy="0" r="1" gradientUnits="userSpaceOnUse" gradientTransform="translate(-9.34211 -2.58247) scale(122.375)">
<stop stop-color="white"/>
<stop offset="0.3102" stop-color="#FDFDFD"/>
<stop offset="0.4505" stop-color="#F6F6F6"/>
<stop offset="0.5567" stop-color="#E9E9E9"/>
<stop offset="0.6456" stop-color="#D7D7D7"/>
<stop offset="0.7238" stop-color="#BFBFBF"/>
<stop offset="0.7944" stop-color="#A2A2A2"/>
<stop offset="0.8593" stop-color="#808080"/>
<stop offset="0.9199" stop-color="#575757"/>
<stop offset="0.9746" stop-color="#2B2B2B"/>
<stop offset="1" stop-color="#141414"/>
</radialGradient>
<radialGradient id="paint6_radial_463_3655" cx="0" cy="0" r="1" gradientUnits="userSpaceOnUse" gradientTransform="translate(12.5685 14.4052) scale(32.9803 32.9802)">
<stop stop-color="#E6E6E6"/>
<stop offset="0.1045" stop-color="#D6D6D6"/>
<stop offset="0.3074" stop-color="#ADADAD"/>
<stop offset="0.5884" stop-color="#6C6C6C"/>
<stop offset="0.9335" stop-color="#121212"/>
<stop offset="1"/>
</radialGradient>
<radialGradient id="paint7_radial_463_3655" cx="0" cy="0" r="1" gradientUnits="userSpaceOnUse" gradientTransform="translate(21.5898 18.8409) scale(47.9627)">
<stop stop-color="white"/>
<stop offset="0.3435" stop-color="#FDFDFD"/>
<stop offset="0.4814" stop-color="#F6F6F6"/>
<stop offset="0.5824" stop-color="#EAEAEA"/>
<stop offset="0.6654" stop-color="#D8D8D8"/>
<stop offset="0.7373" stop-color="#C2C2C2"/>
<stop offset="0.8016" stop-color="#A6A6A6"/>
<stop offset="0.8602" stop-color="#848484"/>
<stop offset="0.9126" stop-color="#5F5F5F"/>
<stop offset="0.9494" stop-color="#404040"/>
<stop offset="0.9566" stop-color="#404040"/>
<stop offset="1"/>
</radialGradient>
<radialGradient id="paint8_radial_463_3655" cx="0" cy="0" r="1" gradientUnits="userSpaceOnUse" gradientTransform="translate(7.50763 0.660303) scale(84.9426 84.9426)">
<stop offset="0.1685" stop-color="white"/>
<stop offset="0.1957" stop-color="#E0EFF7"/>
<stop offset="0.2406" stop-color="#B2D9EC"/>
<stop offset="0.2872" stop-color="#8BC5E2"/>
<stop offset="0.335" stop-color="#6BB5DA"/>
<stop offset="0.3844" stop-color="#52A9D4"/>
<stop offset="0.4359" stop-color="#41A0CF"/>
<stop offset="0.4911" stop-color="#369BCD"/>
<stop offset="0.5562" stop-color="#3399CC"/>
<stop offset="0.606" stop-color="#3396C8"/>
<stop offset="0.6553" stop-color="#328EBC"/>
<stop offset="0.7045" stop-color="#3180A8"/>
<stop offset="0.7536" stop-color="#2F6D8C"/>
<stop offset="0.8027" stop-color="#2D5468"/>
<stop offset="0.8512" stop-color="#2A373D"/>
<stop offset="0.8708" stop-color="#292929"/>
</radialGradient>
<radialGradient id="paint9_radial_463_3655" cx="0" cy="0" r="1" gradientUnits="userSpaceOnUse" gradientTransform="translate(7.50686 0.658996) scale(84.9409 84.9409)">
<stop offset="0.1685" stop-color="white"/>
<stop offset="0.1957" stop-color="#E0EFF7"/>
<stop offset="0.2406" stop-color="#B2D9EC"/>
<stop offset="0.2872" stop-color="#8BC5E2"/>
<stop offset="0.335" stop-color="#6BB5DA"/>
<stop offset="0.3844" stop-color="#52A9D4"/>
<stop offset="0.4359" stop-color="#41A0CF"/>
<stop offset="0.4911" stop-color="#369BCD"/>
<stop offset="0.5562" stop-color="#3399CC"/>
<stop offset="0.606" stop-color="#3396C8"/>
<stop offset="0.6553" stop-color="#328EBC"/>
<stop offset="0.7045" stop-color="#3180A8"/>
<stop offset="0.7536" stop-color="#2F6D8C"/>
<stop offset="0.8027" stop-color="#2D5468"/>
<stop offset="0.8512" stop-color="#2A373D"/>
<stop offset="0.8708" stop-color="#292929"/>
</radialGradient>
<radialGradient id="paint10_radial_463_3655" cx="0" cy="0" r="1" gradientUnits="userSpaceOnUse" gradientTransform="translate(13.0182 14.8209) scale(32.3482 32.3482)">
<stop stop-color="#E6E6E6"/>
<stop offset="0.1045" stop-color="#D6D6D6"/>
<stop offset="0.3074" stop-color="#ADADAD"/>
<stop offset="0.5884" stop-color="#6C6C6C"/>
<stop offset="0.9335" stop-color="#121212"/>
<stop offset="1"/>
</radialGradient>
<linearGradient id="paint11_linear_463_3655" x1="31.8313" y1="6.74388" x2="63.3771" y2="37.2275" gradientUnits="userSpaceOnUse">
<stop stop-color="#F0F4FF"/>
<stop offset="0.1086" stop-color="#EBEFF9"/>
<stop offset="0.2475" stop-color="#DCE0EA"/>
<stop offset="0.4028" stop-color="#C4C7CF"/>
<stop offset="0.5701" stop-color="#A2A4AB"/>
<stop offset="0.7469" stop-color="#76777C"/>
<stop offset="0.9291" stop-color="#414243"/>
<stop offset="1" stop-color="#2B2B2B"/>
</linearGradient>
<linearGradient id="paint12_linear_463_3655" x1="6.22508" y1="32.4806" x2="37.7714" y2="62.9648" gradientUnits="userSpaceOnUse">
<stop stop-color="#F0F4FF"/>
<stop offset="0.1086" stop-color="#EBEFF9"/>
<stop offset="0.2475" stop-color="#DCE0EA"/>
<stop offset="0.4028" stop-color="#C4C7CF"/>
<stop offset="0.5701" stop-color="#A2A4AB"/>
<stop offset="0.7469" stop-color="#76777C"/>
<stop offset="0.9291" stop-color="#414243"/>
<stop offset="1" stop-color="#2B2B2B"/>
</linearGradient>
<linearGradient id="paint13_linear_463_3655" x1="21.488" y1="21.6107" x2="37.846" y2="37.4179" gradientUnits="userSpaceOnUse">
<stop stop-color="#C2D7E8"/>
<stop offset="0.1337" stop-color="#BACFE1"/>
<stop offset="0.3425" stop-color="#A4BACD"/>
<stop offset="0.6001" stop-color="#8098AC"/>
<stop offset="0.894" stop-color="#4E697F"/>
<stop offset="1" stop-color="#3A566D"/>
</linearGradient>
<linearGradient id="paint14_linear_463_3655" x1="13.2929" y1="25.4834" x2="44.5217" y2="55.6608" gradientUnits="userSpaceOnUse">
<stop stop-color="#F0F4FF"/>
<stop offset="0.0973" stop-color="#E8EBF6"/>
<stop offset="0.2568" stop-color="#D1D4DD"/>
<stop offset="0.4587" stop-color="#ABAEB5"/>
<stop offset="0.6951" stop-color="#78797D"/>
<stop offset="0.9578" stop-color="#363637"/>
<stop offset="1" stop-color="#2B2B2B"/>
</linearGradient>
<linearGradient id="paint15_linear_463_3655" x1="36.3111" y1="36.6775" x2="47.2653" y2="47.2629" gradientUnits="userSpaceOnUse">
<stop stop-color="#D9DEF0"/>
<stop offset="0.1229" stop-color="#D4DAEC"/>
<stop offset="0.2629" stop-color="#C7CFE2"/>
<stop offset="0.4114" stop-color="#B0BCD1"/>
<stop offset="0.5657" stop-color="#90A1B8"/>
<stop offset="0.7246" stop-color="#677F99"/>
<stop offset="0.8849" stop-color="#355674"/>
<stop offset="0.9719" stop-color="#173D5D"/>
</linearGradient>
<linearGradient id="paint16_linear_463_3655" x1="25.1052" y1="14.0313" x2="56.3002" y2="44.1759" gradientUnits="userSpaceOnUse">
<stop stop-color="#F0F4FF"/>
<stop offset="0.1086" stop-color="#EBEFF9"/>
<stop offset="0.2475" stop-color="#DCE0EA"/>
<stop offset="0.4028" stop-color="#C4C7CF"/>
<stop offset="0.5701" stop-color="#A2A4AB"/>
<stop offset="0.7469" stop-color="#76777C"/>
<stop offset="0.9291" stop-color="#414243"/>
<stop offset="1" stop-color="#2B2B2B"/>
</linearGradient>
<clipPath id="clip0_463_3655">
<rect width="71.7241" height="71.7241" fill="white" transform="translate(0.207031 0.207031)"/>
</clipPath>
</defs>
</svg>
