<svg width="89" height="60" viewBox="0 0 89 60" fill="none" xmlns="http://www.w3.org/2000/svg">
<g clip-path="url(#clip0_463_4188)">
<path fill-rule="evenodd" clip-rule="evenodd" d="M56.1585 31.1024C56.1585 30.6653 56.1431 29.8069 56.1431 29.8069C69.04 27.7827 78.3603 22.2286 78.6179 15.6987C81.7931 19.6591 83.5947 24.1943 83.5947 29.0267C83.5947 43.2464 67.9857 54.8976 48.1456 55.9359C52.7418 53.0388 56.1585 43.0136 56.1585 31.1024ZM89.5586 30.0642C89.5586 14.1533 69.7585 1.25293 45.3321 1.25293C20.9063 1.25293 1.10555 14.1533 1.10555 30.0642C1.10555 45.9751 20.9067 58.8758 45.3321 58.8758C69.7585 58.8758 89.5586 45.9747 89.5586 30.0642ZM35.1173 22.5365C25.941 21.1011 19.518 17.807 19.518 13.9739C19.518 8.82912 31.0766 4.66336 45.3321 4.66336C59.5886 4.66336 71.1462 8.82947 71.1462 13.9739C71.1462 17.807 64.7242 21.1011 55.5469 22.5365C54.0583 12.5641 50.0464 5.41099 45.3321 5.41099C40.6167 5.41099 36.6059 12.5638 35.1173 22.5365ZM42.5184 55.9356C22.6792 54.8976 7.068 43.246 7.068 29.0263C7.068 24.1943 8.87172 19.6591 12.047 15.6983C12.3049 22.2283 21.6228 27.7824 34.5211 29.8066C34.5211 29.8066 34.505 30.665 34.505 31.102C34.505 43.0133 37.9242 53.0385 42.5184 55.9356ZM39.2024 23.0241C40.1817 16.6279 42.5567 12.1127 45.332 12.1127C48.1074 12.1127 50.482 16.6279 51.4625 23.0241C47.3202 23.3643 43.2384 23.3697 39.2024 23.0241ZM51.9407 30.3276C51.7786 39.5899 48.8834 46.9779 45.3321 46.9779C41.7822 46.9779 38.8863 39.5903 38.7222 30.3276C43.2595 30.7218 47.689 30.7215 51.9407 30.3276Z" fill="#101010"/>
</g>
<defs>
<clipPath id="clip0_463_4188">
<rect width="88.7853" height="58.2654" fill="white" transform="matrix(-1 0 0 1 89.7578 0.931641)"/>
</clipPath>
</defs>
</svg>
