<svg width="78" height="50" viewBox="0 0 78 50" fill="none" xmlns="http://www.w3.org/2000/svg">
<path d="M9.31697 41.8018L10.4947 41.942C11.0275 41.9981 11.0836 42.4467 11.0836 42.7272V44.1012H5.67154V42.7272C5.67154 42.4467 5.72763 41.9981 6.26042 41.942L7.43817 41.8018V40.624H0.427734V41.8018L1.60549 41.942C2.13828 41.9981 2.19436 42.4467 2.19436 42.7272V47.2699C2.19436 47.5503 2.13828 47.999 1.60549 48.0551L0.427734 48.1953V49.373H7.43817V48.1953L6.26042 48.0551C5.72762 47.999 5.67154 47.5503 5.67154 47.2699V45.8959H11.0556V47.2699C11.0556 47.5503 10.9995 47.999 10.4667 48.0551L9.28893 48.1953V49.373H16.2994V48.1953L15.1216 48.0551C14.5888 47.999 14.5327 47.5503 14.5327 47.2699V42.7272C14.5327 42.4467 14.5888 41.9981 15.1216 41.942L16.2994 41.8018V40.624H9.28893V41.8018H9.31697Z" fill="black"/>
<path d="M56.0049 40.624H47.368V41.8018L48.4056 41.9139C48.7701 41.97 49.0225 42.1102 49.0225 42.615V47.2419C49.0225 47.5223 48.9664 47.971 48.4336 48.027L47.2559 48.1673V49.345H56.0049C59.1456 49.345 61.7254 48.0831 61.7254 44.9705C61.7254 41.8579 59.1456 40.624 56.0049 40.624ZM55.3599 47.6905H52.4155V42.3065H55.3599C57.0985 42.3065 57.6874 43.1197 57.6874 44.9985C57.6874 46.8493 57.0985 47.6905 55.3599 47.6905Z" fill="black"/>
<path d="M76.4203 48.0551C75.8595 47.999 75.6912 47.6345 75.523 47.3821L71.485 41.2129C71.2045 40.7642 70.9802 40.624 70.5596 40.624H63.9417V41.8018L65.5401 41.97C65.7644 41.9981 66.0729 42.3065 65.8205 42.6991L62.8201 47.5503C62.7079 47.7466 62.5396 47.971 62.2031 48.027L61.0254 48.1673V49.345H66.6057V48.1673L65.6523 48.0831C65.2317 48.027 65.0073 47.7466 65.2317 47.4101L65.6803 46.681H71.0643L71.4569 47.2699C71.8215 47.8027 71.3728 48.027 70.9802 48.0551L69.9988 48.1673V49.345H77.57V48.1673L76.4203 48.0551ZM66.6057 45.1387L68.2602 42.4467L70.0268 45.1387H66.6057Z" fill="black"/>
<path d="M41.1159 41.8015L42.2937 41.9417C42.8265 41.9978 42.8826 42.4465 42.8826 42.7269V47.1014L38.2557 40.9883C38.0594 40.7079 37.8631 40.6237 37.3584 40.6237H31.3574V41.8015L32.5352 41.9417C33.068 41.9978 33.1241 42.4465 33.1241 42.7269V47.2696C33.1241 47.5501 33.068 47.9987 32.5352 48.0548L31.3574 48.195V49.3728H36.9658V48.195L35.788 48.0548C35.2552 47.9987 35.1991 47.5501 35.1991 47.2696V42.8951L39.826 48.9802C40.0504 49.2606 40.2186 49.3447 40.7234 49.3447H40.7794H44.9857V42.6988C44.9857 42.4184 45.0418 41.9698 45.5746 41.9137L46.7523 41.7735V40.5957H41.172L41.1159 41.8015Z" fill="black"/>
<path d="M23.8147 40.3145C18.1222 40.3145 16.6641 42.8102 16.6641 44.9694C16.6641 47.1286 18.1222 49.6524 23.8147 49.6524C29.5072 49.6524 30.9654 47.1566 30.9654 44.9974C30.9654 42.8102 29.5072 40.3145 23.8147 40.3145ZM23.8147 47.9979C21.5994 47.9979 20.7021 47.0725 20.7021 44.9974C20.7021 42.9223 21.6275 41.997 23.8147 41.997C26.03 41.997 26.9273 42.9223 26.9273 44.9974C26.9273 47.0725 26.03 47.9979 23.8147 47.9979Z" fill="black"/>
<path d="M48.6876 3.74902C47.7342 8.03941 47.3416 10.0304 46.5564 13.115C45.7993 16.0874 45.2104 18.8635 44.2009 20.2095C43.1914 21.5836 41.8174 21.864 40.892 21.9762C40.4153 22.0322 40.0507 22.0603 39.0132 22.0603C37.9756 22.0603 37.6111 22.0322 37.1344 21.9762C36.209 21.864 34.835 21.5836 33.8255 20.2095C32.816 18.8635 32.2271 16.0874 31.498 13.115C30.7128 10.0023 30.3202 8.03941 29.3668 3.74902C29.3668 3.74902 28.4134 3.77707 27.9928 3.80511C27.4039 3.83315 26.9552 3.88923 26.4785 3.94532C26.4785 3.94532 27.0394 12.7785 27.2917 16.5361C27.5441 20.4619 28.0208 27.1078 28.4414 32.1273C28.4414 32.1273 29.2546 32.2675 30.6007 32.3236C32.0027 32.4077 32.6477 32.4077 32.6477 32.4077C33.2366 30.1924 33.9376 27.1358 34.7508 25.8179C35.4238 24.7523 36.4333 24.6401 37.0222 24.556C37.9196 24.4438 38.7047 24.4158 39.0412 24.4158C39.4058 24.4158 40.1629 24.4158 41.0602 24.556C41.6491 24.6401 42.6586 24.7523 43.3316 25.8179C44.1448 27.1358 44.8739 30.1924 45.4347 32.4077C45.4347 32.4077 46.0517 32.4077 47.4537 32.3236C48.7998 32.2394 49.613 32.1273 49.613 32.1273C50.0336 27.1078 50.5103 20.4899 50.7627 16.5361C51.015 12.8065 51.5759 3.94532 51.5759 3.94532C51.0992 3.88923 50.6225 3.83315 50.0616 3.80511C49.641 3.77707 48.6876 3.74902 48.6876 3.74902Z" fill="black"/>
<path d="M59.8215 8.96442C59.2607 3.35607 55.5031 2.17831 52.2222 1.61748C50.5678 1.33706 47.6234 1.11273 45.7446 1.0286C44.0901 0.916435 40.2204 0.860352 39.0426 0.860352C37.8648 0.860352 33.9951 0.916435 32.3406 1.0286C30.4618 1.11273 27.5174 1.33706 25.863 1.61748C22.5821 2.17831 18.8245 3.35607 18.2637 8.96442C18.0954 10.5067 18.0674 12.4977 18.0954 14.6289C18.1515 18.1902 18.46 20.5737 18.6282 22.2562C18.7404 23.4059 19.2171 26.827 19.834 28.5936C20.6753 31.0333 21.4324 31.7343 22.3297 32.4634C23.9561 33.7814 26.6481 34.202 27.209 34.3142C30.2375 34.847 36.3506 34.9591 39.0706 34.9591C41.7626 34.9591 47.9038 34.875 50.9323 34.3142C51.4931 34.202 54.1851 33.8094 55.8116 32.4634C56.7089 31.7343 57.466 31.0333 58.3073 28.5936C58.9242 26.827 59.4009 23.3779 59.5131 22.2562C59.6813 20.6017 59.9898 18.1902 60.0459 14.6289C60.0178 12.4696 59.9617 10.4787 59.8215 8.96442ZM57.7464 18.3864C57.4099 22.8731 57.0174 25.5651 56.4565 27.5C55.9518 29.2106 55.3349 30.3322 54.4375 31.1454C52.9233 32.5195 50.8482 32.7999 49.6143 32.9962C46.9784 33.3888 42.5198 33.529 39.0426 33.529C35.5374 33.529 31.1068 33.3888 28.4709 32.9962C27.237 32.7999 25.1619 32.5195 23.6477 31.1454C22.7503 30.3322 22.1334 29.1825 21.6287 27.5C21.0678 25.5651 20.6472 22.8731 20.3387 18.3864C20.1425 15.6944 20.1705 11.3199 20.479 8.96442C20.8996 5.43116 22.6382 3.66453 26.3677 3.01957C28.1063 2.71111 30.4618 2.48677 32.6771 2.37461C34.4718 2.26244 37.3881 2.20636 39.0426 2.20636C40.669 2.17831 43.6134 2.26244 45.38 2.37461C47.5953 2.48677 49.9508 2.71111 51.6894 3.01957C55.419 3.69257 57.1576 5.4592 57.6062 8.96442C57.9147 11.2919 57.9427 15.6664 57.7464 18.3864Z" fill="black"/>
</svg>
