<svg width="89" height="70" viewBox="0 0 89 70" fill="none" xmlns="http://www.w3.org/2000/svg">
<path d="M44.1229 65.3128C27.4077 65.3128 13.8081 51.7132 13.8081 34.998C13.8081 34.1354 13.8524 33.2826 13.9263 32.4398L39.2679 34.0221L28.3002 41.6034C28.1523 41.7068 28.0537 41.8794 28.0537 42.0717C28.0537 42.3871 28.3101 42.6484 28.6255 42.6484H73.4623C70.0611 55.6712 58.1958 65.3134 44.123 65.3134M44.123 4.6827C60.8433 4.6827 74.4377 18.2822 74.4377 34.9974C74.4377 35.8551 74.3935 36.703 74.3244 37.541H74.3097L48.9681 35.929L59.9653 28.3921C60.1182 28.2887 60.2118 28.1161 60.2118 27.9238C60.2118 27.6034 59.9555 27.3471 59.64 27.3471H14.7881C18.1844 14.3242 30.0496 4.68201 44.1224 4.68201M87.5837 38.3837L79.2876 37.8563L78.287 37.7922C78.3609 36.8704 78.4103 35.9387 78.4103 34.9973C78.4103 16.094 63.0302 0.713867 44.1218 0.713867C27.8457 0.713867 14.1957 12.1154 10.7065 27.3464H3.13016C2.70131 27.3464 2.32175 27.5485 2.08021 27.864L0.14295 30.5406C0.0542383 30.6539 0 30.7969 0 30.9497C0 31.3145 0.295757 31.6103 0.665458 31.6103L8.92703 32.1229L9.96219 32.1919C9.88824 33.1187 9.83903 34.0503 9.83903 34.9968C9.83903 53.9001 25.2191 69.2853 44.1225 69.2853C60.3985 69.2853 74.0536 57.8788 77.5377 42.6477H85.119C85.5478 42.6477 85.9274 42.4456 86.1689 42.1301L88.1062 39.4535C88.1949 39.3402 88.2442 39.1972 88.2442 39.0444C88.2442 38.6796 87.9485 38.3838 87.5837 38.3838" fill="black"/>
</svg>
