<svg width="72" height="30" viewBox="0 0 72 30" fill="none" xmlns="http://www.w3.org/2000/svg">
<g clip-path="url(#clip0_463_7286)">
<path d="M60.0241 16.0595C59.9658 19.277 60.6607 20.9813 63.313 20.9813C65.961 20.9813 66.341 18.0782 66.341 15.869C66.341 13.6584 65.8385 11.5124 63.0565 11.5124C61.3498 11.5124 60.0897 12.8386 60.0241 16.0595ZM54.6582 29.5049V7.72541H60.0897C60.0897 7.72541 60.0897 8.0408 60.0897 8.60888C60.0897 9.78732 60.565 9.30136 60.9479 8.84214C61.012 8.76535 62.2226 7.28368 64.9488 7.28368C67.6667 7.28368 71.895 9.17696 71.895 15.869C71.895 21.0454 69.3724 24.8324 65.0158 24.8324C62.6152 24.8324 61.2273 23.8873 60.91 23.5058C60.5922 23.1297 60.1509 23.0641 60.1509 23.5058C60.1509 23.9485 60.1509 29.5049 60.1509 29.5049H54.6582Z" fill="#231F20"/>
<path d="M12.6792 0.656542H18.5505C18.5505 0.656542 18.5505 13.407 18.5505 16.0593C18.5505 18.7087 17.4129 24.2656 9.27073 24.2656C1.1276 24.2656 0.244141 19.0863 0.244141 16.1847V13.3443H5.92591C5.92591 13.3443 5.92591 14.4173 5.92591 16.1206C5.92591 17.8248 7.06256 19.4022 9.20755 19.4022C11.3535 19.4022 12.6792 18.2034 12.6792 16.1847C12.6792 14.1646 12.6792 0.656542 12.6792 0.656542Z" fill="#231F20"/>
<path d="M30.829 13.723C30.829 12.1431 29.947 10.6284 27.9269 10.6284C25.97 10.6284 25.2751 12.0158 25.2751 13.723H30.829ZM27.3608 7.09407C31.9715 7.09407 36.0098 8.86099 36.0098 17.0046H25.0899C25.0899 19.5928 26.1619 20.6663 28.0557 20.6663C29.9499 20.6663 30.5807 19.1501 30.5807 19.1501H35.9481C35.9481 21.4866 32.7281 24.6428 27.8662 24.5801C22.3127 24.5801 19.5977 20.4767 19.5977 16.247C19.5977 12.0158 21.9949 7.09407 27.3608 7.09407Z" fill="#231F20"/>
<path d="M48.2856 13.723C48.2856 12.1431 47.4026 10.6284 45.3825 10.6284C43.4265 10.6284 42.7301 12.0158 42.7301 13.723H48.2856ZM44.8173 7.09407C49.4275 7.09407 53.4648 8.86099 53.4648 17.0046H42.5455C42.5455 19.5928 43.6185 20.6663 45.5137 20.6663C47.406 20.6663 48.0377 19.1501 48.0377 19.1501H53.4051C53.4051 21.4866 50.1847 24.6428 45.3242 24.5801C39.7678 24.5801 37.0527 20.4767 37.0527 16.247C37.0527 12.0158 39.4529 7.09407 44.8173 7.09407Z" fill="#231F20"/>
<path d="M68.2999 26.8941C68.2999 26.0315 69.0021 25.3308 69.8676 25.3308C70.7302 25.3308 71.4309 26.0315 71.4309 26.8941C71.4309 27.7552 70.7302 28.4603 69.8676 28.4603C69.0021 28.4603 68.2999 27.7552 68.2999 26.8941ZM68.1191 26.8941C68.1191 27.8592 68.9006 28.6426 69.8676 28.6426C70.8283 28.6426 71.6141 27.8592 71.6141 26.8941C71.6141 25.929 70.8283 25.1457 69.8676 25.1457C68.9006 25.1457 68.1191 25.929 68.1191 26.8941Z" fill="#231F20"/>
<path d="M70.5679 27.7881L70.2048 26.9309C70.32 26.891 70.3584 26.8628 70.4196 26.7972C70.4993 26.7117 70.5494 26.5766 70.5494 26.4541C70.5494 26.1451 70.3118 25.9347 69.9672 25.9347H69.2383V27.7881H69.4545V26.9853H69.9813L70.3273 27.7881H70.5679ZM69.4487 26.7972V26.1363H69.9628C70.1776 26.1363 70.3142 26.2588 70.3142 26.4483C70.3142 26.6636 70.1694 26.7972 69.9327 26.7972H69.4487Z" fill="#231F20"/>
</g>
<defs>
<clipPath id="clip0_463_7286">
<rect width="71.7241" height="28.9199" fill="white" transform="translate(0.207031 0.621094)"/>
</clipPath>
</defs>
</svg>
