<svg width="90" height="90" viewBox="0 0 90 90" fill="none" xmlns="http://www.w3.org/2000/svg">
<path d="M44.8883 77.287C27.1191 77.287 12.5611 62.6576 12.5611 44.8883C12.5611 40.892 13.2747 37.1098 14.6306 33.5417L33.5417 71.578C33.7558 72.0775 34.1126 72.5057 34.6835 72.5057C35.2544 72.5057 35.6112 72.0775 35.8253 71.578L44.5315 52.096C44.6029 51.8819 44.7456 51.6678 44.9597 51.6678C45.1738 51.6678 45.2452 51.8819 45.3879 52.096L54.0941 71.578C54.3082 72.0775 54.665 72.5057 55.2359 72.5057C55.8068 72.5057 56.1636 72.0775 56.3777 71.578L75.2888 33.5417C76.6447 37.1098 77.3583 40.892 77.3583 44.8883C77.2156 62.6576 62.6576 77.287 44.8883 77.287ZM44.8883 37.538C44.6743 37.538 44.6029 37.3239 44.4602 37.1098L34.3267 14.2738C37.6094 13.0606 41.1775 12.4183 44.8883 12.4183C48.5992 12.4183 52.1673 13.0606 55.45 14.2738L45.3165 37.1098C45.1738 37.3953 45.1024 37.538 44.8883 37.538ZM34.5408 61.0163C34.3267 61.0163 34.2553 60.8022 34.1126 60.5881L17.6992 27.4759C20.6251 22.98 24.55 19.1978 29.3313 16.5574L41.1775 42.8902C41.3202 43.3184 41.677 43.4611 42.0338 43.4611H47.7429C48.171 43.4611 48.4565 43.3897 48.6706 42.8902L60.5168 16.5574C65.2267 19.1978 69.223 22.98 72.1489 27.4759L55.5927 60.5881C55.5214 60.8022 55.3787 61.0163 55.1646 61.0163C54.9505 61.0163 54.8791 60.8022 54.7364 60.5881L48.5278 46.4583C48.3138 45.9588 48.0283 45.8874 47.6001 45.8874H41.8911C41.4629 45.8874 41.1775 45.9588 40.9634 46.4583L34.9689 60.5881C34.8976 60.8022 34.7549 61.0163 34.5408 61.0163ZM44.8883 80.5697C64.6558 80.5697 80.5697 64.6558 80.5697 44.8883C80.5697 25.1209 64.6558 9.20703 44.8883 9.20703C25.1209 9.20703 9.20703 25.1209 9.20703 44.8883C9.20703 64.6558 25.1209 80.5697 44.8883 80.5697Z" fill="black"/>
</svg>
