<svg width="90" height="72" viewBox="0 0 90 72" fill="none" xmlns="http://www.w3.org/2000/svg">
<path d="M46.496 39.1362C46.37 39.1362 46.1284 38.9751 45.7187 38.2258C44.0042 35.0336 41.6501 32.2289 38.8034 29.987C36.5694 28.2348 34.0894 26.8214 31.4434 25.7922C31.0424 25.6294 30.6397 25.4706 30.2354 25.3161C26.692 23.9155 23.019 22.4694 19.6086 20.4946C19.2305 20.2806 18.857 20.0588 18.4881 19.8293C19.1674 18.6388 19.9587 17.5009 20.8341 16.4609C22.1044 14.9425 23.5812 13.6096 25.2214 12.5008C26.9823 11.3234 28.8861 10.3751 30.8867 9.67869C35.1514 8.15907 40.26 7.41326 46.496 7.40626C52.7391 7.41326 57.8442 8.15907 62.1089 9.68219C64.1109 10.3762 66.016 11.3234 67.7777 12.5008C69.4169 13.6094 70.8936 14.9411 72.165 16.4574C73.0403 17.5009 73.8282 18.6388 74.5109 19.8293C74.1503 20.0534 73.7686 20.281 73.3905 20.5016C69.9731 22.4764 66.3071 23.9225 62.7566 25.3196L61.5487 25.7958C58.9052 26.8258 56.4277 28.2391 54.1957 29.9905C51.3478 32.2326 48.9935 35.0386 47.2803 38.2328C46.8707 38.9786 46.6256 39.1362 46.496 39.1362ZM46.496 63.9018C41.0898 63.8948 36.699 63.4501 33.0856 62.5467C29.5386 61.6644 26.5904 60.3058 24.0659 58.387C22.1307 56.9009 20.4796 55.0778 19.1919 53.0053C17.9856 51.0717 17.0324 48.9912 16.3558 46.8148C15.3005 43.4325 14.7495 39.9131 14.7206 36.3701C14.7206 34.0101 14.8852 31.7727 15.1933 29.7138C19.0659 31.8007 22.7319 32.8476 25.9777 33.7755L26.7305 33.9856C31.2473 35.2846 34.8328 36.9863 37.7075 39.1957C39.3706 40.4842 40.8237 41.9723 42.0142 43.6215C43.3062 45.4002 44.3356 47.4311 45.085 49.6615C45.4211 50.6734 45.7852 51.3001 46.496 51.3001C47.2208 51.3001 47.5745 50.6699 47.9141 49.6615C49.2506 45.5042 51.8245 41.8541 55.2916 39.1992C58.1628 36.9863 61.7517 35.2846 66.2686 33.9856L67.0249 33.7755C70.2672 32.8476 73.9332 31.8007 77.8023 29.7138C78.1174 31.7762 78.2785 34.0101 78.2785 36.3666C78.2785 37.9702 78.1174 42.1929 76.6503 46.8148C75.9741 48.9907 75.0221 51.0711 73.8177 53.0053C72.526 55.0792 70.87 56.9024 68.9297 58.387C66.3981 60.3058 63.4499 61.6644 59.917 62.5467C56.293 63.4501 51.9057 63.8948 46.496 63.9018ZM80.4318 12.935C73.7476 5.75709 62.9597 2.46575 46.496 2.44824C30.0393 2.46575 19.2514 5.75359 12.5672 12.9315C7.59869 18.2572 4.48242 25.6277 4.48242 35.6278C4.48242 41.1565 5.84798 55.2357 16.9615 62.5047C23.6142 66.8535 32.2067 69.6686 46.496 69.6896C60.7924 69.6686 69.3813 66.8535 76.0376 62.5047C87.1476 55.2357 88.5166 41.153 88.5166 35.6278C88.5166 25.6557 85.3759 18.2327 80.4283 12.928L80.4318 12.935Z" fill="black"/>
</svg>
