<svg width="90" height="90" viewBox="0 0 90 90" fill="none" xmlns="http://www.w3.org/2000/svg">
<path d="M41.7806 46.6682H43.1806L43.1777 42.5196H41.7806V41.5996H47.3234V42.5196H45.9434V46.6653H47.2263C48.412 46.6653 49.1891 45.8825 49.1891 44.8196H50.1034V47.5968H41.7806V46.6682ZM54.1034 47.6025H57.3434L60.092 42.5196H61.4691V41.5996H57.3263V42.5196H58.5234L56.5206 46.2196L54.492 42.5196H55.9491L55.9434 41.5996H49.932V42.5196H51.3091L54.1034 47.6025ZM25.2091 41.5996H19.1948V42.5196H20.5691L23.3691 47.6025H26.6063L29.3548 42.5196H30.732V41.5996H26.5891V42.5196H27.7834L25.7834 46.2196L23.7548 42.5196H25.2091V41.5996ZM35.8006 41.4739C38.5863 41.4739 40.0806 42.8625 40.0806 44.6053C40.0806 46.3711 38.6691 47.7796 35.8148 47.7796C32.9606 47.7796 31.5377 46.3711 31.5377 44.6053C31.5377 42.8625 33.0148 41.4739 35.8006 41.4739ZM35.8491 42.4168C34.8977 42.4025 34.3434 43.4111 34.3234 44.5682C34.3063 45.6825 34.752 46.8082 35.7691 46.8253C36.8148 46.8453 37.2663 45.7111 37.2834 44.6196C37.3063 43.4625 36.8034 42.4368 35.8491 42.4196V42.4168ZM66.5291 41.4739C69.312 41.4739 70.8063 42.8625 70.8063 44.6053C70.8063 46.3711 69.3977 47.7796 66.5434 47.7796C63.6863 47.7796 62.2634 46.3711 62.2634 44.6053C62.2634 42.8625 63.7434 41.4739 66.5291 41.4739ZM65.052 44.5682C65.032 45.6825 65.4806 46.8082 66.4977 46.8253C67.5434 46.8453 67.9948 45.7111 68.012 44.6196C68.0348 43.4625 67.532 42.4368 66.5777 42.4196C65.6263 42.4025 65.072 43.4111 65.052 44.5682ZM73.2148 25.5196L69.732 28.9996C72.8216 33.7633 74.4614 39.3217 74.452 44.9996C74.452 61.2653 61.2663 74.4511 45.0006 74.4511C28.7348 74.4511 15.5491 61.2653 15.5491 44.9996C15.5491 28.7339 28.7348 15.5482 45.0006 15.5482C50.9148 15.5482 56.4177 17.291 61.032 20.291L64.5148 16.8082C58.7857 12.8303 51.9753 10.7034 45.0006 10.7139C26.0663 10.7139 10.7148 26.0653 10.7148 44.9996C10.7148 63.9339 26.0663 79.2853 45.0006 79.2853C63.9348 79.2853 79.2863 63.9339 79.2863 44.9996C79.2863 37.7625 77.0434 31.0511 73.2148 25.5196ZM62.2463 12.0625V13.0253C64.3263 14.151 66.2834 15.4796 68.0948 16.9739L63.2091 21.8596C65.0528 23.3057 66.717 24.967 68.1663 26.8082L73.0463 21.9282C74.5434 23.7453 75.872 25.7053 77.0006 27.751H77.9377V12.0653L62.2463 12.0625Z" fill="black"/>
</svg>
