<svg width="90" height="90" viewBox="0 0 90 90" fill="none" xmlns="http://www.w3.org/2000/svg">
<path d="M51.8934 53.8425C51.8934 54.0042 51.9444 54.098 52.0382 54.098C52.1174 54.098 52.1831 54.0555 52.2427 54.0128L78.7878 36.7845C79.2363 36.471 79.7736 36.3098 80.3206 36.3246H86.1541C87.0484 36.3246 87.653 36.9206 87.653 37.8149V48.9541C87.653 50.2995 87.355 51.0832 86.1627 51.7984L79.0858 56.0566C79.0151 56.1056 78.9316 56.1419 78.8474 56.1419C78.7631 56.1419 78.6771 56.0737 78.6771 55.8267V42.8311C78.6771 42.6777 78.6346 42.5756 78.5323 42.5756C78.4576 42.5756 78.3867 42.6138 78.3278 42.6608L58.9277 55.2649C58.4849 55.5629 57.9653 55.7249 57.4374 55.7163H44.5778C43.675 55.7163 43.0789 55.1203 43.0789 54.2175V38.1645C43.0789 38.0453 43.0279 37.9346 42.9255 37.9346C42.8511 37.9346 42.7804 37.9736 42.7211 38.0199L29.9216 45.7011C29.7938 45.7863 29.7599 45.8459 29.7599 45.9055C29.7599 45.9566 29.7855 46.0076 29.8705 46.1014L39.0169 55.2393C39.1361 55.3585 39.2214 55.4523 39.2214 55.5544C39.2214 55.6396 39.0851 55.7078 38.9234 55.7078H30.6625C30.0151 55.7078 29.5127 55.614 29.1636 55.2649L23.6195 49.7294C23.577 49.6786 23.5159 49.6442 23.4493 49.6442C23.3892 49.6442 23.3306 49.6645 23.279 49.6952L14.0134 55.2649C13.4513 55.6057 13.0681 55.6992 12.5145 55.6992H3.98984C3.0787 55.7078 2.48242 55.1032 2.48242 54.2089V43.2825C2.48242 41.9285 2.78044 41.1534 3.98129 40.4382L11.1009 36.1631C11.1563 36.1255 11.2214 36.1048 11.2883 36.1035C11.3989 36.1035 11.4585 36.2142 11.4585 36.4611V51.092C11.4585 51.2454 11.4925 51.3133 11.6034 51.3133C11.6789 51.3133 11.7483 51.2708 11.8164 51.228L35.8663 36.7589C36.3262 36.4438 36.8883 36.2906 37.4504 36.316H50.395C51.2893 36.316 51.8939 36.9121 51.8939 37.8063L51.8853 53.8425H51.8934Z" fill="black"/>
</svg>
