<svg width="86" height="73" viewBox="0 0 86 73" fill="none" xmlns="http://www.w3.org/2000/svg">
<g clip-path="url(#clip0_463_14836)">
<path d="M50.4334 39.6935C50.3654 39.7105 50.0933 39.7105 49.9742 39.7105H41.1979V41.7515H50.1273C50.1953 41.7515 50.7226 41.7515 50.8246 41.7345C52.6445 41.5645 53.4779 40.0507 53.4779 38.7241C53.4779 37.3634 52.6105 35.9007 50.9607 35.7476C50.6375 35.7136 50.3654 35.7136 50.2463 35.7136H44.4125C44.1574 35.7136 43.8682 35.6966 43.7662 35.6626C43.3069 35.5435 43.1369 35.1353 43.1369 34.7951C43.1369 34.489 43.3069 34.0808 43.7832 33.9447C43.9192 33.9107 44.0723 33.8937 44.3955 33.8937H52.8146V31.8867H44.2594C43.9022 31.8867 43.6301 31.9037 43.409 31.9377C41.9463 32.1418 40.9258 33.3154 40.9258 34.8121C40.9258 36.0367 41.6912 37.4654 43.375 37.7036C43.6811 37.7376 44.1063 37.7376 44.2934 37.7376H49.9742C50.0763 37.7376 50.3314 37.7376 50.3824 37.7546C51.0287 37.8396 51.2498 38.3159 51.2498 38.7411C51.2498 39.1493 50.9947 39.5915 50.4334 39.6935Z" fill="black"/>
<path d="M33.8006 39.6935C33.7326 39.7105 33.4605 39.7105 33.3584 39.7105H24.5651V41.7515H33.4945C33.5625 41.7515 34.0898 41.7515 34.1918 41.7345C36.0117 41.5645 36.8451 40.0507 36.8451 38.7241C36.8451 37.3634 35.9777 35.9007 34.3279 35.7476C34.0047 35.7136 33.7326 35.7136 33.6135 35.7136H27.7797C27.5245 35.7136 27.2354 35.6966 27.1334 35.6626C26.6741 35.5435 26.5041 35.1353 26.5041 34.7951C26.5041 34.489 26.6741 34.0808 27.1504 33.9447C27.2864 33.9107 27.4395 33.8937 27.7627 33.8937H36.1818V31.8867H27.6266C27.2694 31.8867 26.9973 31.9037 26.7762 31.9377C25.3135 32.1418 24.293 33.3154 24.293 34.8121C24.293 36.0367 25.0583 37.4654 26.7422 37.7036C27.0483 37.7376 27.4735 37.7376 27.6606 37.7376H33.3414C33.4434 37.7376 33.6986 37.7376 33.7496 37.7546C34.3959 37.8396 34.617 38.3159 34.617 38.7411C34.617 39.1493 34.3789 39.5915 33.8006 39.6935Z" fill="black"/>
<path d="M19.9904 31.8184H17.7793V41.8022H19.9904V31.8184Z" fill="black"/>
<path d="M12.8965 41.8022V31.8184H10.6855V39.268L3.32086 31.8184H0.480469V41.8022H2.69155V34.3186L10.1072 41.8022H12.8965Z" fill="black"/>
<path d="M84.0077 31.8184V39.268L76.6431 31.8184H73.8027V41.8022H76.0138V34.3186L83.4124 41.8022H86.2018V31.8184H84.0077Z" fill="black"/>
<path d="M62.2895 31.8184L56.0645 41.8022H58.7518L59.8573 40.0164H67.1199L68.2254 41.8022H70.8957L64.6707 31.8184H62.2895ZM65.9803 38.1284H60.9969L63.4971 34.1145L65.9803 38.1284Z" fill="black"/>
<path d="M12.7778 26.1551C17.234 13.1438 29.514 4.4015 43.3588 4.4015C57.2036 4.4015 69.5006 13.1438 73.9398 26.1551L73.9738 26.2572H83.7195V25.0836L79.6716 24.6074C77.1713 24.3182 76.6441 23.2127 75.9637 21.818L75.7937 21.4779C69.9428 9.02776 57.2036 0.96582 43.3588 0.96582C29.497 0.96582 16.7748 9.02776 10.9239 21.5119L10.7538 21.852C10.0735 23.2467 9.54625 24.3523 7.04603 24.6414L2.99805 25.1176V26.2912H12.7268L12.7778 26.1551Z" fill="black"/>
<path d="M73.9743 47.3813L73.9403 47.4833C69.4841 60.4947 57.2041 69.2199 43.3594 69.2199C29.5146 69.2199 17.2176 60.4777 12.7784 47.4663L12.7444 47.3643H3.01562V48.5378L7.06361 49.0141C9.56383 49.3032 10.0911 50.4087 10.7714 51.8034L10.9415 52.1436C16.7924 64.6277 29.5316 72.6896 43.3764 72.6896C57.2211 72.6896 69.9604 64.6277 75.8112 52.1606L75.9813 51.8204C76.6617 50.4258 77.1889 49.3202 79.6891 49.0311L83.7371 48.5548V47.3813H73.9743Z" fill="black"/>
</g>
<defs>
<clipPath id="clip0_463_14836">
<rect width="85.7216" height="71.7241" fill="white" transform="translate(0.484375 0.96582)"/>
</clipPath>
</defs>
</svg>
