<svg width="64" height="31" viewBox="0 0 64 31" fill="none" xmlns="http://www.w3.org/2000/svg">
<g clip-path="url(#clip0_492_19799)">
<path fill-rule="evenodd" clip-rule="evenodd" d="M15.9132 26.6415C15.6941 26.4605 15.3849 25.8659 15.2817 25.6461L11.7768 17.2196H10.7588L7.53751 25.2586C7.39573 25.6205 6.81137 26.6674 6.69981 26.8354C6.59688 26.9905 6.44216 27.2488 6.82863 27.2488H8.09166L9.10002 24.7154H12.7819L13.8387 27.2488H15.8617C16.1579 27.2488 16.1974 26.8762 15.9132 26.6415ZM9.613 23.4773L10.9016 20.1942L12.2676 23.4773H9.613ZM45.5724 26.6415C45.3533 26.4605 45.0438 25.8659 44.9409 25.6461L41.4357 17.2196H40.4177L37.1967 25.2586C37.0546 25.6205 36.4703 26.6674 36.359 26.8354C36.2558 26.9905 36.1017 27.2488 36.4882 27.2488H37.7509L38.7592 24.7154H42.4414L43.4979 27.2488H45.5213C45.8168 27.2488 45.8563 26.8762 45.5724 26.6415ZM39.2722 23.4773L40.5608 20.1942L41.9264 23.4773H39.2722ZM3.09102 18.5557V25.4831C3.09102 28.4813 1.08093 29.5155 0.771484 29.903H3.03955C4.31088 29.0447 5.1011 27.1943 5.1011 26.0515V17.211H3.09102C2.85893 17.211 2.73044 17.3664 2.83337 17.6247C2.93629 17.8837 3.06545 18.1164 3.09102 18.5557ZM23.2935 22.4404H25.3039V26.7315C24.7109 27.1193 23.8861 27.4812 22.1081 27.4812C20.3298 27.4812 16.799 26.6282 16.799 22.1565C16.799 17.6844 21.206 17.0642 22.1855 17.0642C23.165 17.0642 24.4536 17.2966 25.1492 17.5812V19.0547C24.608 18.8738 23.8091 18.2794 22.3143 18.2794C20.6134 18.2794 18.9383 19.6749 18.9124 22.3119C18.8865 24.9485 20.7422 27.0419 23.2935 26.1371V23.5009C23.2805 23.2167 23.242 23.0098 23.1132 22.8288C23.0169 22.6937 22.9585 22.4404 23.2935 22.4404ZM35.3228 24.1978V18.6018C35.3357 18.3176 35.5678 17.7877 35.697 17.6067C35.7929 17.4719 35.8514 17.2189 35.516 17.2189H33.996C33.6606 17.2189 33.7197 17.4719 33.8157 17.6067C33.9442 17.7877 34.1763 18.3176 34.1892 18.6018V23.5002C34.1892 24.9737 33.1321 26.2919 31.612 26.2919C30.0914 26.2919 29.4469 24.7148 29.4469 23.888V17.2189H27.4368C27.1018 17.2189 27.1602 17.4719 27.2562 17.6067C27.3854 17.7877 27.4239 17.9942 27.4368 18.2784V24.0945C27.4368 25.8523 29.3695 27.455 31.6117 27.455C33.8542 27.455 35.3228 25.4904 35.3228 24.1978ZM49.5929 25.6331C49.5929 25.8267 49.748 26.5894 49.8509 26.8351C49.9542 27.0804 49.8121 27.2484 49.5929 27.2484H47.5832V18.2788C47.5702 17.9945 47.5314 17.7877 47.4022 17.6071C47.3069 17.4723 47.2478 17.2193 47.5832 17.2193H50.5209C51.2687 17.2193 53.8199 17.1419 53.8458 20.0109C53.8717 20.7862 53.8458 21.4845 52.6605 22.2857C52.4284 22.4407 52.2993 22.6476 52.4802 22.9577C52.6605 23.2678 54.065 25.762 54.065 25.762C54.2964 26.1239 54.6882 26.6644 54.825 26.77C54.9923 26.8995 55.0441 27.2481 54.7609 27.2481H52.6864L50.2248 22.7764C50.0704 22.4922 50.0704 22.2332 50.431 22.1303C50.8855 21.9998 51.8616 22.0529 51.8616 19.9588C51.8616 18.0072 50.5213 18.2399 50.0836 18.2399C49.6454 18.2399 49.5933 18.563 49.5933 19.0281L49.5929 25.6331ZM6.0673 28.81V29.4817H62.6618V28.81H6.0673Z" fill="black"/>
<path fill-rule="evenodd" clip-rule="evenodd" d="M61.7169 15.5082H59.9518C58.9707 15.5328 58.4829 15.0042 58.2678 14.8302C52.1047 10.39 40.61 5.34954 30.2501 1.86028C28.9097 1.44658 26.9252 1.16236 25.6884 1.16236C24.4516 1.16236 23.8586 1.0591 22.57 1.11057C21.3339 1.16004 20.0443 1.36888 19.3228 1.57574C18.6013 1.78259 16.9777 2.19596 16.9003 3.17842C16.2818 3.64359 15.6506 4.2771 15.3926 4.53541C15.1346 4.79373 15.0446 5.29775 15.5599 5.86651C16.0752 6.43493 16.6941 7.0037 17.1062 6.74538C17.5182 6.48706 17.4153 6.17662 17.57 5.86651C17.7247 5.55639 18.2404 5.09123 18.7557 5.65965C19.271 6.22808 18.9489 6.47378 18.6524 6.74538C18.3778 6.99672 17.8277 7.4692 18.1886 7.93437C18.5492 8.39953 18.9619 8.55492 19.5286 8.14122C19.9447 7.83774 21.0573 7.20026 21.7021 6.84134C21.8608 6.74505 22.0544 6.51263 22.7599 6.79784C23.5193 7.08903 24.6926 7.6113 25.1854 7.88257L24.1159 8.37364C23.5488 8.73554 23.0591 9.75686 23.0076 10.1184C22.9561 10.6869 23.1623 11.5017 23.9353 12.1733H25.6104L26.6154 10.726L26.538 10.571C27.8266 10.4156 31.3318 11.4758 32.9813 10.8293C34.1149 11.2945 36.1253 11.5531 39.8363 11.1912C40.5064 11.1394 41.4211 10.9973 41.9879 11.7341C42.5742 12.4951 45.4539 15.5338 46.3819 15.8439C47.3099 16.1543 51.1757 16.1543 52.1807 16.335C53.049 16.4913 53.392 16.335 54.1138 17.162L55.6597 18.532C55.84 18.7388 56.3815 19.1396 57.0001 19.1396H58.0696C58.6881 19.0878 59.0228 18.6485 59.1779 18.1315H61.8062C62.6309 18.1315 62.8892 17.3948 62.8892 16.7228C62.8892 16.0507 62.4384 15.5082 61.7169 15.5082ZM61.7298 17.512H59.2429C59.1008 16.413 58.289 16.2589 57.8252 16.2324C57.374 16.2068 57.0263 16.0258 56.8201 15.8963C56.8201 15.8963 55.1451 14.3969 54.6809 13.9059C54.2174 13.4148 53.9079 13.2597 53.4697 13.2597H51.9496C51.6402 13.2597 51.279 13.2856 50.7636 12.5877C50.2487 11.8895 48.9342 10.7782 48.5988 10.5457C48.2642 10.313 48.1865 10.5716 48.3927 10.7526C48.5729 10.9336 49.4236 11.4764 49.9392 12.3294C50.4549 13.1824 50.8925 13.622 51.2537 13.8029C51.5625 14.0098 52.5164 13.9835 53.0832 13.9835C53.6506 13.9835 53.8568 14.0353 54.3206 14.5005C54.7845 14.9657 55.8413 15.8963 56.1249 16.2068C56.4084 16.5169 56.8978 16.8011 57.5938 16.8011C58.2897 16.8011 58.6247 17.2404 58.5988 17.6541C58.5749 18.0419 58.3667 18.4812 58.0573 18.4812H56.949C56.7687 18.4812 56.3563 18.2229 56.253 18.1193C55.8925 17.8609 54.9903 17.0853 54.475 16.5425C53.9597 15.9996 53.4444 15.8442 52.7488 15.7413C52.0529 15.6377 49.1659 15.5085 48.5221 15.483C47.8777 15.4571 46.8982 15.4571 46.2026 15.0175C45.5183 14.5852 42.8007 11.6056 42.3368 11.0627C41.7953 10.4422 40.9842 10.5198 40.4944 10.5069C35.6747 11.0368 33.9608 10.5457 33.4455 10.2353L33.9482 9.36938C35.4559 9.71834 37.5175 9.38233 37.8014 9.30497C38.0849 9.22727 38.0328 8.94306 37.7496 8.99452C37.1058 9.07222 34.2965 8.73621 34.0123 8.68441C33.987 7.96059 32.3631 5.78915 32.1569 5.37577C31.9507 4.96207 32.1317 4.70375 32.3372 4.5228C32.5434 4.34184 32.5434 4.10942 32.3631 4.10942C31.616 4.18679 31.4354 4.78145 31.5901 5.50526C31.7445 6.22908 33.3422 8.3225 33.2393 8.8139C33.1361 9.30497 32.6467 9.98994 32.3631 10.2742C30.9716 10.6102 27.8791 9.78309 26.1008 9.83455C25.4178 9.85447 25.5337 10.4422 25.7787 10.649L25.2116 11.4761H24.3998C23.9615 11.3466 23.8071 10.6746 23.7294 10.3386C23.7494 10.1204 23.9097 9.48559 24.4509 9.02042C25.5463 8.0788 29.9147 8.50346 30.3012 8.50346C30.688 8.50346 30.5848 8.3225 30.353 8.24481C29.9406 8.14155 28.6906 7.80554 27.9561 7.77964C27.7888 7.28857 27.4793 6.93961 27.3761 6.46116C27.2881 6.05344 27.402 5.54345 27.5434 5.23333C27.7367 4.63867 27.3243 4.72932 27.1828 4.89732C26.9893 5.18154 26.4999 5.81504 26.474 6.28021C26.4481 6.74538 26.9248 7.57279 27.054 7.77964C26.8219 7.77964 26.4095 7.80554 26.2293 7.80554C24.9792 6.74571 22.737 6.03484 22.2991 5.87979C22.3761 5.67294 22.4923 5.45314 22.5697 5.19482C22.647 4.9365 22.8018 4.98797 22.982 5.03976C23.2397 5.16892 24.4509 5.60852 24.8377 5.76358C25.2242 5.91864 25.5851 5.84094 25.7654 5.68588C25.9457 5.53083 26.5384 5.01386 26.796 4.65196C27.0537 4.29005 26.6413 4.26415 26.4866 4.4451C25.9968 4.89732 25.2753 5.14302 24.8889 5.06566C24.5021 4.98797 23.2653 4.36774 22.9561 4.16089C22.2602 3.85078 22.0026 4.34184 21.9252 4.62606C21.474 5.93358 20.7399 6.54948 20.2113 6.93961C20.0566 7.06877 19.359 7.47982 19.1544 7.61164C18.9742 7.72785 18.8579 7.53394 18.9353 7.41773C19.09 7.30119 19.6568 6.71948 19.6956 6.51296C19.8245 5.76358 19.6183 5.51788 19.3092 5.18187C18.9997 4.84586 18.6003 4.72965 18.1365 4.72965C17.6726 4.72965 17.2343 5.1563 17.0796 5.31103C16.9249 5.46608 17.1185 5.7762 16.8605 5.95748C16.6028 6.1381 16.3063 5.65999 16.1519 5.45314C16.4869 5.06566 16.4611 4.88437 16.3837 4.52247C16.4946 4.43913 16.6696 4.2346 16.886 4.04435C17.0667 4.14794 17.4272 4.19974 17.6593 4.14794C18.9094 4.04435 19.1282 4.18679 19.4118 4.31595C19.6953 4.4451 19.7853 4.26415 19.682 4.0832C19.5439 3.84048 19.4373 3.74718 19.1797 3.48854L19.682 3.33348C20.2491 3.33348 20.8162 3.54033 21.0998 3.56623C21.3833 3.59213 21.5636 3.59213 21.6669 3.38528C21.8472 2.84241 22.1822 2.73915 22.4143 2.66146C22.6464 2.58377 22.8267 2.37725 22.6205 2.32545H22.1048C21.6669 2.35135 21.641 2.5064 21.5122 2.66146C21.383 2.81652 21.2286 2.99747 20.8936 2.94567C20.5586 2.89388 19.8497 2.77767 19.4373 2.80357C19.1149 2.82382 18.6514 3.15253 17.7493 3.12663C18.1102 2.22186 21.4607 1.86028 22.1048 1.83405C26.383 1.6531 27.2851 1.85995 29.2437 2.27365C31.2023 2.68736 34.1481 3.64891 39.7919 5.89772C45.1561 8.0353 55.5664 13.2823 57.9723 15.4239C58.1084 15.5597 58.8943 16.1155 59.7835 16.1155H61.6388C62.103 16.1155 62.2315 16.5421 62.2315 16.749C62.2315 16.9558 62.1163 17.512 61.7298 17.512Z" fill="black"/>
</g>
<defs>
<clipPath id="clip0_492_19799">
<rect width="63" height="30" fill="white" transform="translate(0.244141 0.5)"/>
</clipPath>
</defs>
</svg>
