<svg width="16" height="16" viewBox="0 0 16 16" fill="none" xmlns="http://www.w3.org/2000/svg">
<g clip-path="url(#clip0_17_85694)">
<path d="M2.51998 3.515C2.71288 3.065 3.03367 2.68155 3.44255 2.41223C3.85142 2.1429 4.33037 1.99957 4.81998 2H11.182C12.182 2 13.086 2.596 13.48 3.515L14.272 5.363C14.347 5.538 14.482 5.682 14.652 5.767C15.152 6.017 15.507 6.482 15.617 7.029L15.952 8.708C15.9853 8.86933 16.0016 9.03267 16.001 9.198V9.611C16.001 10.425 15.611 11.154 15.001 11.608V13.5C15.001 13.6326 14.9483 13.7598 14.8545 13.8536C14.7608 13.9473 14.6336 14 14.501 14H12.501C12.3684 14 12.2412 13.9473 12.1474 13.8536C12.0537 13.7598 12.001 13.6326 12.001 13.5V12.162C10.709 12.21 9.25598 12.25 8.00098 12.25C6.74598 12.25 5.29298 12.21 4.00098 12.162V13.5C4.00098 13.6326 3.9483 13.7598 3.85453 13.8536C3.76076 13.9473 3.63358 14 3.50098 14H1.50098C1.36837 14 1.24119 13.9473 1.14742 13.8536C1.05365 13.7598 1.00098 13.6326 1.00098 13.5V11.608C0.390977 11.154 0.000976562 10.425 0.000976562 9.611V9.198C0.00114439 9.03345 0.0175573 8.86932 0.0499766 8.708L0.384977 7.028C0.494977 6.482 0.849976 6.016 1.34898 5.767C1.52014 5.68215 1.65529 5.53884 1.72998 5.363L2.52198 3.515H2.51998ZM2.99998 10C3.26519 10 3.51955 9.89464 3.70708 9.70711C3.89462 9.51957 3.99998 9.26522 3.99998 9C3.99998 8.73478 3.89462 8.48043 3.70708 8.29289C3.51955 8.10536 3.26519 8 2.99998 8C2.73476 8 2.48041 8.10536 2.29287 8.29289C2.10533 8.48043 1.99998 8.73478 1.99998 9C1.99998 9.26522 2.10533 9.51957 2.29287 9.70711C2.48041 9.89464 2.73476 10 2.99998 10ZM13 10C13.2652 10 13.5195 9.89464 13.7071 9.70711C13.8946 9.51957 14 9.26522 14 9C14 8.73478 13.8946 8.48043 13.7071 8.29289C13.5195 8.10536 13.2652 8 13 8C12.7348 8 12.4804 8.10536 12.2929 8.29289C12.1053 8.48043 12 8.73478 12 9C12 9.26522 12.1053 9.51957 12.2929 9.70711C12.4804 9.89464 12.7348 10 13 10ZM5.99998 8C5.73476 8 5.48041 8.10536 5.29287 8.29289C5.10533 8.48043 4.99998 8.73478 4.99998 9C4.99998 9.26522 5.10533 9.51957 5.29287 9.70711C5.48041 9.89464 5.73476 10 5.99998 10H9.99998C10.2652 10 10.5195 9.89464 10.7071 9.70711C10.8946 9.51957 11 9.26522 11 9C11 8.73478 10.8946 8.48043 10.7071 8.29289C10.5195 8.10536 10.2652 8 9.99998 8H5.99998ZM2.90598 5.189C2.86689 5.26965 2.84975 5.35919 2.85627 5.44857C2.8628 5.53796 2.89277 5.62405 2.94317 5.69817C2.99356 5.77229 3.06259 5.83182 3.14332 5.87076C3.22404 5.90971 3.3136 5.92669 3.40298 5.92C4.31298 5.847 6.75298 5.75 7.99998 5.75C9.24698 5.75 11.688 5.847 12.597 5.92C12.6864 5.92669 12.7759 5.90971 12.8566 5.87076C12.9374 5.83182 13.0064 5.77229 13.0568 5.69817C13.1072 5.62405 13.1371 5.53796 13.1437 5.44857C13.1502 5.35919 13.1331 5.26965 13.094 5.189L12.138 3.276C12.0964 3.19305 12.0326 3.12331 11.9536 3.07456C11.8747 3.02582 11.7838 3 11.691 3H4.30898C4.2162 3 4.12525 3.02582 4.04631 3.07456C3.96736 3.12331 3.90354 3.19305 3.86198 3.276L2.90598 5.189Z" fill="#70F46D"/>
</g>
<defs>
<clipPath id="clip0_17_85694">
<rect width="16" height="16" fill="white"/>
</clipPath>
</defs>
</svg>
