<svg width="16" height="16" viewBox="0 0 16 16" fill="none" xmlns="http://www.w3.org/2000/svg">
<path d="M8.00008 0.666626C6.54969 0.666626 5.13186 1.09672 3.9259 1.90252C2.71994 2.70831 1.78001 3.85362 1.22497 5.19361C0.669925 6.53361 0.524701 8.00809 0.807659 9.43062C1.09062 10.8531 1.78905 12.1598 2.81464 13.1854C3.84022 14.211 5.1469 14.9094 6.56942 15.1924C7.99195 15.4753 9.46644 15.3301 10.8064 14.7751C12.1464 14.22 13.2917 13.2801 14.0975 12.0741C14.9033 10.8682 15.3334 9.45036 15.3334 7.99996C15.3311 6.05574 14.5578 4.19181 13.183 2.81704C11.8082 1.44227 9.9443 0.66892 8.00008 0.666626ZM10.4714 10.4713C10.3464 10.5963 10.1769 10.6665 10.0001 10.6665C9.82331 10.6665 9.65377 10.5963 9.52875 10.4713L7.52875 8.47129C7.40372 8.3463 7.33346 8.17676 7.33342 7.99996V3.99996C7.33342 3.82315 7.40366 3.65358 7.52868 3.52855C7.6537 3.40353 7.82327 3.33329 8.00008 3.33329C8.1769 3.33329 8.34647 3.40353 8.47149 3.52855C8.59651 3.65358 8.66675 3.82315 8.66675 3.99996V7.72396L10.4714 9.52863C10.5964 9.65364 10.6666 9.82318 10.6666 9.99996C10.6666 10.1767 10.5964 10.3463 10.4714 10.4713Z" fill="#D6D7D8"/>
</svg>
