<svg width="24" height="24" viewBox="0 0 24 24" fill="none" xmlns="http://www.w3.org/2000/svg">
<path d="M20.1507 6.22779C20.1503 6.22135 20.1496 6.2149 20.1485 6.20849C20.1235 6.17278 20.0928 6.14205 20.0671 6.10705C19.8803 5.85268 19.6827 5.60785 19.474 5.37252C19.4169 5.30821 19.3597 5.24462 19.3011 5.18174C19.0863 4.95169 18.861 4.73231 18.6252 4.52369C18.5816 4.48509 18.5409 4.44511 18.4973 4.40722C17.9162 3.9094 17.2799 3.47977 16.601 3.12685C16.5738 3.11257 16.5453 3.10043 16.5174 3.08611C16.215 2.93246 15.905 2.79435 15.5885 2.67239C15.5171 2.64669 15.452 2.62236 15.3842 2.60093C15.1027 2.49949 14.8169 2.41065 14.5268 2.33441C14.441 2.31155 14.3553 2.28798 14.2681 2.26797C13.9823 2.20153 13.6965 2.15079 13.4043 2.10934C13.3157 2.09649 13.2285 2.07932 13.1392 2.06861C12.3865 1.97713 11.6255 1.97713 10.8727 2.06861C10.7834 2.07932 10.6963 2.09649 10.6076 2.10934C10.3154 2.15079 10.0268 2.20153 9.74379 2.26797C9.65662 2.28798 9.57088 2.31155 9.48514 2.33441C9.19313 2.41061 8.90735 2.49945 8.62773 2.60093C8.55627 2.62521 8.49125 2.64954 8.42339 2.67239C8.10693 2.79435 7.79687 2.93242 7.49451 3.08611C7.46663 3.10039 7.43808 3.11253 7.41091 3.12685C6.72971 3.4794 6.0913 3.90898 5.50815 4.40722C5.46457 4.44507 5.42384 4.48509 5.38026 4.52369C5.14208 4.73327 4.91676 4.95265 4.70433 5.18174C4.64576 5.24462 4.58858 5.30821 4.53143 5.37252C4.32231 5.60735 4.12462 5.85218 3.9384 6.10701C3.9127 6.14201 3.88197 6.17274 3.85693 6.20845C3.85367 6.21469 3.85078 6.22114 3.84835 6.22775C1.38388 9.68155 1.38388 14.319 3.84835 17.7728C3.85078 17.7794 3.85362 17.7858 3.85693 17.7921C3.88192 17.8278 3.91265 17.8585 3.9384 17.8935C4.12466 18.1479 4.32231 18.3927 4.53143 18.628C4.58858 18.6923 4.64576 18.7559 4.70433 18.8188C4.91965 19.0489 5.14493 19.2682 5.38026 19.4769C5.42384 19.5155 5.46457 19.5554 5.50815 19.5933C6.08925 20.0912 6.72552 20.5208 7.40446 20.8737C7.43163 20.888 7.46018 20.9001 7.48807 20.9144C7.79042 21.0681 8.10044 21.2062 8.41694 21.3282C8.48841 21.3539 8.55342 21.3782 8.62129 21.3996C8.90279 21.5011 9.18861 21.5899 9.4787 21.6661C9.56444 21.689 9.65018 21.7126 9.73734 21.7326C10.0232 21.799 10.3089 21.8498 10.6012 21.8912C10.6898 21.9041 10.777 21.9212 10.8663 21.9319C11.619 22.0234 12.38 22.0234 13.1327 21.9319C13.222 21.9212 13.3092 21.9041 13.3978 21.8912C13.69 21.8498 13.9787 21.799 14.2617 21.7326C14.3488 21.7126 14.4346 21.689 14.5203 21.6661C14.8128 21.5899 15.0986 21.5011 15.3777 21.3996C15.4492 21.3753 15.5142 21.351 15.5821 21.3282C15.8985 21.2062 16.2086 21.0681 16.511 20.9144C16.5388 20.9002 16.5674 20.888 16.5946 20.8737C17.2735 20.5207 17.9098 20.0912 18.4909 19.5933C18.5344 19.5554 18.5752 19.5155 18.6188 19.4769C18.8569 19.2677 19.0823 19.0484 19.2947 18.8188C19.3533 18.7559 19.4104 18.6923 19.4676 18.628C19.6767 18.3927 19.8744 18.1479 20.0606 17.8935C20.0863 17.8585 20.1171 17.8278 20.1421 17.7921C20.1454 17.7858 20.1482 17.7794 20.1507 17.7728C22.6151 14.319 22.6151 9.68159 20.1507 6.22779ZM19.3354 7.57968C20.0188 8.70507 20.4314 9.97377 20.5408 11.2858H16.2609C16.2085 10.4345 16.0745 9.59011 15.8608 8.76435C17.0697 8.53794 18.2399 8.13896 19.3354 7.57968ZM13.8208 3.62341C13.8609 3.63271 13.8994 3.64556 13.9394 3.65486C14.1952 3.71489 14.4489 3.78347 14.6968 3.86921C14.7347 3.88206 14.7719 3.89709 14.809 3.91066C15.0548 3.9964 15.297 4.09143 15.5343 4.19647C15.5757 4.21577 15.6165 4.23721 15.6579 4.25651C15.8851 4.36465 16.1071 4.48158 16.3238 4.60734L16.4667 4.69379C16.6725 4.81956 16.8726 4.95412 17.0669 5.09751C17.1169 5.13393 17.1669 5.16897 17.2162 5.20895C17.4068 5.35184 17.5892 5.50498 17.7635 5.66839C17.8093 5.70983 17.8564 5.75057 17.9014 5.79344C18.0844 5.96706 18.2587 6.15068 18.4273 6.34075C18.4488 6.36574 18.4716 6.3886 18.493 6.41221C17.5256 6.87328 16.5007 7.20251 15.4457 7.39107C14.9569 6.04752 14.3113 4.76635 13.5222 3.57418C13.6215 3.59202 13.723 3.60202 13.8208 3.62341ZM9.17082 11.2858C9.22717 10.5127 9.35879 9.74694 9.56381 8.99939C10.3734 9.09555 11.1879 9.14324 12.0032 9.14227C12.8192 9.14202 13.6344 9.09312 14.4446 8.99579C14.6493 9.74455 14.7802 10.5115 14.8354 11.2858H9.17082ZM14.8354 12.7148C14.7791 13.4879 14.6475 14.2537 14.4425 15.0012C13.6329 14.9051 12.8184 14.8574 12.0031 14.8584C11.1872 14.8574 10.3719 14.9051 9.56163 15.0012C9.3572 14.2537 9.22633 13.4879 9.17077 12.7148H14.8354ZM12.0031 3.89211C12.8162 5.04455 13.485 6.29235 13.9945 7.60756C13.333 7.67781 12.6683 7.71311 12.0031 7.71331C11.3387 7.71252 10.6747 7.67702 10.0139 7.60685C10.524 6.29252 11.192 5.04513 12.0031 3.89211ZM5.5797 6.33999C5.74763 6.14992 5.92267 5.9663 6.10558 5.79268C6.15058 5.74981 6.19777 5.70908 6.24348 5.66763C6.41974 5.50712 6.60219 5.35397 6.79079 5.2082C6.84011 5.17031 6.8901 5.13673 6.94013 5.09675C7.13447 4.95386 7.33455 4.81927 7.54032 4.69304L7.6832 4.60659C7.89994 4.4799 8.12191 4.36293 8.34912 4.25575C8.39056 4.23645 8.4313 4.21502 8.47275 4.19572C8.70996 4.08854 8.95219 3.99351 9.19799 3.9099C9.23512 3.89634 9.26945 3.88131 9.31014 3.86845C9.55807 3.78556 9.81031 3.71698 10.0675 3.6541C10.1076 3.64481 10.1461 3.63196 10.1869 3.62337C10.2847 3.60194 10.3862 3.59193 10.4855 3.57406C9.6961 4.76643 9.05028 6.04786 8.56134 7.39166C7.50636 7.2031 6.48141 6.87387 5.51397 6.4128C5.53541 6.38785 5.55827 6.36499 5.5797 6.33999ZM4.67084 7.57968C5.76609 8.13892 6.93603 8.5379 8.14477 8.76435C7.9313 9.59015 7.79754 10.4345 7.74537 11.2858H3.46549C3.57492 9.97377 3.98755 8.70507 4.67084 7.57968ZM4.67084 16.421C3.98751 15.2956 3.57488 14.0269 3.46549 12.7148H7.74537C7.79779 13.5662 7.93176 14.4106 8.14548 15.2363C6.93653 15.4627 5.76634 15.8617 4.67084 16.421ZM10.1854 20.3772C10.1454 20.3679 10.1068 20.3551 10.0668 20.3458C9.81103 20.2857 9.55736 20.2172 9.30943 20.1314C9.27154 20.1186 9.23441 20.1035 9.19723 20.09C8.95144 20.0042 8.70925 19.9092 8.47199 19.8042C8.43055 19.7849 8.38981 19.7634 8.34836 19.7441C8.12116 19.636 7.89919 19.5191 7.68245 19.3933L7.53956 19.3068C7.33379 19.1811 7.13372 19.0465 6.93937 18.9031C6.88935 18.8667 6.83936 18.8317 6.79004 18.7917C6.59951 18.6488 6.41706 18.4957 6.24273 18.3322C6.19701 18.2908 6.14983 18.2501 6.10482 18.2072C5.92191 18.0336 5.74758 17.85 5.57895 17.6599C5.55751 17.6349 5.53466 17.612 5.51322 17.5884C6.48069 17.1274 7.50561 16.7981 8.56058 16.6096C9.04932 17.9531 9.69493 19.2343 10.484 20.4265C10.3848 20.4087 10.2833 20.3987 10.1854 20.3772ZM12.0031 20.1086C11.19 18.9561 10.5212 17.7083 10.0118 16.3931C11.335 16.2507 12.6697 16.2507 13.993 16.3931L13.9923 16.3938C13.4823 17.7081 12.8143 18.9555 12.0031 20.1086ZM18.4266 17.6606C18.2586 17.8507 18.0836 18.0343 17.9007 18.208C17.8557 18.2508 17.8085 18.2916 17.7628 18.333C17.5865 18.494 17.4041 18.6472 17.2155 18.7924C17.1662 18.8303 17.1162 18.8675 17.0661 18.9039C16.8718 19.0468 16.6717 19.1814 16.466 19.3076L16.3231 19.394C16.1068 19.5203 15.8848 19.6372 15.6571 19.7449C15.6157 19.7642 15.575 19.7856 15.5335 19.8049C15.2963 19.9121 15.0541 20.0071 14.8083 20.0907C14.7711 20.1043 14.7368 20.1193 14.6961 20.1322C14.4482 20.2151 14.196 20.2836 13.9387 20.3465C13.8987 20.3558 13.8601 20.3687 13.8194 20.3773C13.7215 20.3987 13.62 20.4087 13.5207 20.4266C14.3098 19.2344 14.9555 17.9532 15.4442 16.6097C16.4992 16.7982 17.5241 17.1275 18.4915 17.5885C18.4709 17.6128 18.448 17.6356 18.4266 17.6606ZM19.3354 16.421C18.2402 15.8618 17.0702 15.4628 15.8615 15.2363C16.075 14.4105 16.2087 13.5662 16.2609 12.7148H20.5408C20.4313 14.0269 20.0187 15.2956 19.3354 16.421Z" fill="white"/>
</svg>
