<svg width="24" height="24" viewBox="0 0 24 24" fill="none" xmlns="http://www.w3.org/2000/svg">
<path d="M20.1504 6.22779C20.1501 6.22135 20.1494 6.2149 20.1483 6.20849C20.1233 6.17278 20.0926 6.14205 20.0668 6.10705C19.8801 5.85268 19.6824 5.60785 19.4738 5.37252C19.4166 5.30821 19.3595 5.24462 19.3009 5.18174C19.0861 4.95169 18.8608 4.73231 18.625 4.52369C18.5814 4.48509 18.5407 4.44511 18.4971 4.40722C17.916 3.9094 17.2797 3.47977 16.6008 3.12685C16.5736 3.11257 16.545 3.10043 16.5172 3.08611C16.2148 2.93246 15.9048 2.79435 15.5883 2.67239C15.5168 2.64669 15.4518 2.62236 15.3839 2.60093C15.1024 2.49949 14.8166 2.41065 14.5265 2.33441C14.4408 2.31155 14.355 2.28798 14.2679 2.26797C13.9821 2.20153 13.6963 2.15079 13.404 2.10934C13.3154 2.09649 13.2283 2.07932 13.1389 2.06861C12.3862 1.97713 11.6252 1.97713 10.8725 2.06861C10.7832 2.07932 10.696 2.09649 10.6074 2.10934C10.3152 2.15079 10.0265 2.20153 9.74354 2.26797C9.65638 2.28798 9.57064 2.31155 9.4849 2.33441C9.19289 2.41061 8.90711 2.49945 8.62749 2.60093C8.55603 2.62521 8.49101 2.64954 8.42314 2.67239C8.10668 2.79435 7.79662 2.93242 7.49427 3.08611C7.46639 3.10039 7.43783 3.11253 7.41066 3.12685C6.72947 3.4794 6.09106 3.90898 5.50791 4.40722C5.46433 4.44507 5.42359 4.48509 5.38001 4.52369C5.14184 4.73327 4.91652 4.95265 4.70409 5.18174C4.64552 5.24462 4.58833 5.30821 4.53118 5.37252C4.32207 5.60735 4.12438 5.85218 3.93816 6.10701C3.91245 6.14201 3.88172 6.17274 3.85669 6.20845C3.85342 6.21469 3.85053 6.22114 3.8481 6.22775C1.38364 9.68155 1.38364 14.319 3.8481 17.7728C3.85053 17.7794 3.85338 17.7858 3.85669 17.7921C3.88168 17.8278 3.91241 17.8585 3.93816 17.8935C4.12442 18.1479 4.32207 18.3927 4.53118 18.628C4.58833 18.6923 4.64552 18.7559 4.70409 18.8188C4.9194 19.0489 5.14468 19.2682 5.38001 19.4769C5.42359 19.5155 5.46433 19.5554 5.50791 19.5933C6.08901 20.0912 6.72528 20.5208 7.40422 20.8737C7.43139 20.888 7.45994 20.9001 7.48782 20.9144C7.79018 21.0681 8.10019 21.2062 8.4167 21.3282C8.48816 21.3539 8.55318 21.3782 8.62104 21.3996C8.90255 21.5011 9.18836 21.5899 9.47845 21.6661C9.56419 21.689 9.64993 21.7126 9.7371 21.7326C10.0229 21.799 10.3087 21.8498 10.601 21.8912C10.6895 21.9041 10.7767 21.9212 10.866 21.9319C11.6188 22.0234 12.3797 22.0234 13.1325 21.9319C13.2218 21.9212 13.309 21.9041 13.3976 21.8912C13.6898 21.8498 13.9785 21.799 14.2614 21.7326C14.3486 21.7126 14.4343 21.689 14.5201 21.6661C14.8126 21.5899 15.0984 21.5011 15.3775 21.3996C15.449 21.3753 15.514 21.351 15.5818 21.3282C15.8983 21.2062 16.2084 21.0681 16.5107 20.9144C16.5386 20.9002 16.5671 20.888 16.5943 20.8737C17.2733 20.5207 17.9095 20.0912 18.4906 19.5933C18.5342 19.5554 18.5749 19.5155 18.6185 19.4769C18.8567 19.2677 19.082 19.0484 19.2944 18.8188C19.353 18.7559 19.4102 18.6923 19.4674 18.628C19.6765 18.3927 19.8742 18.1479 20.0604 17.8935C20.0861 17.8585 20.1168 17.8278 20.1418 17.7921C20.1451 17.7858 20.148 17.7794 20.1504 17.7728C22.6149 14.319 22.6149 9.68159 20.1504 6.22779ZM19.3352 7.57968C20.0185 8.70507 20.4311 9.97377 20.5405 11.2858H16.2606C16.2082 10.4345 16.0743 9.59011 15.8605 8.76435C17.0695 8.53794 18.2397 8.13896 19.3352 7.57968ZM13.8206 3.62341C13.8606 3.63271 13.8992 3.64556 13.9392 3.65486C14.195 3.71489 14.4487 3.78347 14.6966 3.86921C14.7345 3.88206 14.7716 3.89709 14.8088 3.91066C15.0546 3.9964 15.2968 4.09143 15.534 4.19647C15.5755 4.21577 15.6162 4.23721 15.6577 4.25651C15.8849 4.36465 16.1068 4.48158 16.3236 4.60734L16.4665 4.69379C16.6722 4.81956 16.8723 4.95412 17.0666 5.09751C17.1167 5.13393 17.1667 5.16897 17.216 5.20895C17.4065 5.35184 17.589 5.50498 17.7633 5.66839C17.809 5.70983 17.8562 5.75057 17.9012 5.79344C18.0841 5.96706 18.2584 6.15068 18.4271 6.34075C18.4485 6.36574 18.4714 6.3886 18.4928 6.41221C17.5253 6.87328 16.5004 7.20251 15.4454 7.39107C14.9567 6.04752 14.3111 4.76635 13.522 3.57418C13.6212 3.59202 13.7227 3.60202 13.8206 3.62341ZM9.17057 11.2858C9.22692 10.5127 9.35855 9.74694 9.56356 8.99939C10.3731 9.09555 11.1877 9.14324 12.0029 9.14227C12.8189 9.14202 13.6342 9.09312 14.4444 8.99579C14.649 9.74455 14.7799 10.5115 14.8352 11.2858H9.17057ZM14.8352 12.7148C14.7789 13.4879 14.6472 14.2537 14.4422 15.0012C13.6327 14.9051 12.8181 14.8574 12.0029 14.8584C11.1869 14.8574 10.3717 14.9051 9.56139 15.0012C9.35696 14.2537 9.22609 13.4879 9.17053 12.7148H14.8352ZM12.0029 3.89211C12.816 5.04455 13.4847 6.29235 13.9942 7.60756C13.3328 7.67781 12.6681 7.71311 12.0029 7.71331C11.3384 7.71252 10.6744 7.67702 10.0137 7.60685C10.5238 6.29252 11.1917 5.04513 12.0029 3.89211ZM5.57946 6.33999C5.74738 6.14992 5.92242 5.9663 6.10533 5.79268C6.15034 5.74981 6.19752 5.70908 6.24324 5.66763C6.41949 5.50712 6.60194 5.35397 6.79055 5.2082C6.83987 5.17031 6.88985 5.13673 6.93988 5.09675C7.13422 4.95386 7.3343 4.81927 7.54007 4.69304L7.68296 4.60659C7.8997 4.4799 8.12167 4.36293 8.34887 4.25575C8.39032 4.23645 8.43106 4.21502 8.4725 4.19572C8.70971 4.08854 8.95195 3.99351 9.19774 3.9099C9.23488 3.89634 9.26921 3.88131 9.3099 3.86845C9.55783 3.78556 9.81007 3.71698 10.0673 3.6541C10.1073 3.64481 10.1459 3.63196 10.1866 3.62337C10.2845 3.60194 10.386 3.59193 10.4853 3.57406C9.69586 4.76643 9.05004 6.04786 8.56109 7.39166C7.50612 7.2031 6.48116 6.87387 5.51373 6.4128C5.53517 6.38785 5.55802 6.36499 5.57946 6.33999ZM4.6706 7.57968C5.76585 8.13892 6.93578 8.5379 8.14453 8.76435C7.93105 9.59015 7.79729 10.4345 7.74513 11.2858H3.46524C3.57468 9.97377 3.98731 8.70507 4.6706 7.57968ZM4.6706 16.421C3.98727 15.2956 3.57464 14.0269 3.46524 12.7148H7.74513C7.79754 13.5662 7.93152 14.4106 8.14524 15.2363C6.93628 15.4627 5.7661 15.8617 4.6706 16.421ZM10.1852 20.3772C10.1452 20.3679 10.1066 20.3551 10.0666 20.3458C9.81078 20.2857 9.55712 20.2172 9.30919 20.1314C9.2713 20.1186 9.23417 20.1035 9.19699 20.09C8.9512 20.0042 8.709 19.9092 8.47175 19.8042C8.4303 19.7849 8.38957 19.7634 8.34812 19.7441C8.12092 19.636 7.89894 19.5191 7.6822 19.3933L7.53932 19.3068C7.33355 19.1811 7.13347 19.0465 6.93913 18.9031C6.8891 18.8667 6.83911 18.8317 6.7898 18.7917C6.59927 18.6488 6.41681 18.4957 6.24249 18.3322C6.19677 18.2908 6.14959 18.2501 6.10458 18.2072C5.92167 18.0336 5.74734 17.85 5.57871 17.6599C5.55727 17.6349 5.53441 17.612 5.51298 17.5884C6.48045 17.1274 7.50536 16.7981 8.56034 16.6096C9.04908 17.9531 9.69469 19.2343 10.4838 20.4265C10.3845 20.4087 10.2831 20.3987 10.1852 20.3772ZM12.0029 20.1086C11.1898 18.9561 10.521 17.7083 10.0115 16.3931C11.3348 16.2507 12.6695 16.2507 13.9927 16.3931L13.992 16.3938C13.482 17.7081 12.8141 18.9555 12.0029 20.1086ZM18.4263 17.6606C18.2584 17.8507 18.0834 18.0343 17.9004 18.208C17.8554 18.2508 17.8083 18.2916 17.7625 18.333C17.5863 18.494 17.4038 18.6472 17.2152 18.7924C17.1659 18.8303 17.1159 18.8675 17.0659 18.9039C16.8716 19.0468 16.6715 19.1814 16.4657 19.3076L16.3228 19.394C16.1065 19.5203 15.8846 19.6372 15.6569 19.7449C15.6155 19.7642 15.5747 19.7856 15.5333 19.8049C15.2961 19.9121 15.0538 20.0071 14.808 20.0907C14.7709 20.1043 14.7366 20.1193 14.6959 20.1322C14.4479 20.2151 14.1957 20.2836 13.9385 20.3465C13.8985 20.3558 13.8599 20.3687 13.8192 20.3773C13.7213 20.3987 13.6198 20.4087 13.5205 20.4266C14.3096 19.2344 14.9552 17.9532 15.4439 16.6097C16.4989 16.7982 17.5239 17.1275 18.4913 17.5885C18.4706 17.6128 18.4478 17.6356 18.4263 17.6606ZM19.3352 16.421C18.2399 15.8618 17.07 15.4628 15.8612 15.2363C16.0747 14.4105 16.2085 13.5662 16.2606 12.7148H20.5405C20.4311 14.0269 20.0185 15.2956 19.3352 16.421Z" fill="black"/>
</svg>
