<svg width="24" height="24" viewBox="0 0 24 24" fill="none" xmlns="http://www.w3.org/2000/svg">
<path d="M20.1506 6.22779C20.1502 6.22135 20.1495 6.2149 20.1484 6.20849C20.1234 6.17278 20.0927 6.14205 20.0669 6.10705C19.8802 5.85268 19.6825 5.60785 19.4739 5.37252C19.4168 5.30821 19.3596 5.24462 19.301 5.18174C19.0862 4.95169 18.8609 4.73231 18.6251 4.52369C18.5815 4.48509 18.5408 4.44511 18.4972 4.40722C17.9161 3.9094 17.2798 3.47977 16.6009 3.12685C16.5737 3.11257 16.5452 3.10043 16.5173 3.08611C16.2149 2.93246 15.9049 2.79435 15.5884 2.67239C15.5169 2.64669 15.4519 2.62236 15.3841 2.60093C15.1026 2.49949 14.8167 2.41065 14.5267 2.33441C14.4409 2.31155 14.3552 2.28798 14.268 2.26797C13.9822 2.20153 13.6964 2.15079 13.4042 2.10934C13.3156 2.09649 13.2284 2.07932 13.1391 2.06861C12.3864 1.97713 11.6254 1.97713 10.8726 2.06861C10.7833 2.07932 10.6962 2.09649 10.6075 2.10934C10.3153 2.15079 10.0266 2.20153 9.74367 2.26797C9.6565 2.28798 9.57076 2.31155 9.48502 2.33441C9.19301 2.41061 8.90723 2.49945 8.62761 2.60093C8.55615 2.62521 8.49113 2.64954 8.42327 2.67239C8.1068 2.79435 7.79675 2.93242 7.49439 3.08611C7.46651 3.10039 7.43796 3.11253 7.41079 3.12685C6.72959 3.4794 6.09118 3.90898 5.50803 4.40722C5.46445 4.44507 5.42372 4.48509 5.38013 4.52369C5.14196 4.73327 4.91664 4.95265 4.70421 5.18174C4.64564 5.24462 4.58845 5.30821 4.53131 5.37252C4.32219 5.60735 4.1245 5.85218 3.93828 6.10701C3.91257 6.14201 3.88184 6.17274 3.85681 6.20845C3.85354 6.21469 3.85065 6.22114 3.84823 6.22775C1.38376 9.68155 1.38376 14.319 3.84823 17.7728C3.85065 17.7794 3.8535 17.7858 3.85681 17.7921C3.8818 17.8278 3.91253 17.8585 3.93828 17.8935C4.12454 18.1479 4.32219 18.3927 4.53131 18.628C4.58845 18.6923 4.64564 18.7559 4.70421 18.8188C4.91953 19.0489 5.14481 19.2682 5.38013 19.4769C5.42372 19.5155 5.46445 19.5554 5.50803 19.5933C6.08913 20.0912 6.7254 20.5208 7.40434 20.8737C7.43151 20.888 7.46006 20.9001 7.48794 20.9144C7.7903 21.0681 8.10031 21.2062 8.41682 21.3282C8.48828 21.3539 8.5533 21.3782 8.62116 21.3996C8.90267 21.5011 9.18849 21.5899 9.47857 21.6661C9.56431 21.689 9.65006 21.7126 9.73722 21.7326C10.023 21.799 10.3088 21.8498 10.6011 21.8912C10.6897 21.9041 10.7768 21.9212 10.8662 21.9319C11.6189 22.0234 12.3799 22.0234 13.1326 21.9319C13.2219 21.9212 13.3091 21.9041 13.3977 21.8912C13.6899 21.8498 13.9786 21.799 14.2616 21.7326C14.3487 21.7126 14.4345 21.689 14.5202 21.6661C14.8127 21.5899 15.0985 21.5011 15.3776 21.3996C15.4491 21.3753 15.5141 21.351 15.582 21.3282C15.8984 21.2062 16.2085 21.0681 16.5108 20.9144C16.5387 20.9002 16.5673 20.888 16.5944 20.8737C17.2734 20.5207 17.9096 20.0912 18.4907 19.5933C18.5343 19.5554 18.5751 19.5155 18.6186 19.4769C18.8568 19.2677 19.0821 19.0484 19.2946 18.8188C19.3531 18.7559 19.4103 18.6923 19.4675 18.628C19.6766 18.3927 19.8743 18.1479 20.0605 17.8935C20.0862 17.8585 20.1169 17.8278 20.142 17.7921C20.1452 17.7858 20.1481 17.7794 20.1506 17.7728C22.615 14.319 22.615 9.68159 20.1506 6.22779ZM19.3353 7.57968C20.0186 8.70507 20.4313 9.97377 20.5407 11.2858H16.2608C16.2084 10.4345 16.0744 9.59011 15.8607 8.76435C17.0696 8.53794 18.2398 8.13896 19.3353 7.57968ZM13.8207 3.62341C13.8607 3.63271 13.8993 3.64556 13.9393 3.65486C14.1951 3.71489 14.4488 3.78347 14.6967 3.86921C14.7346 3.88206 14.7717 3.89709 14.8089 3.91066C15.0547 3.9964 15.2969 4.09143 15.5342 4.19647C15.5756 4.21577 15.6163 4.23721 15.6578 4.25651C15.885 4.36465 16.107 4.48158 16.3237 4.60734L16.4666 4.69379C16.6724 4.81956 16.8724 4.95412 17.0668 5.09751C17.1168 5.13393 17.1668 5.16897 17.2161 5.20895C17.4066 5.35184 17.5891 5.50498 17.7634 5.66839C17.8091 5.70983 17.8563 5.75057 17.9013 5.79344C18.0842 5.96706 18.2586 6.15068 18.4272 6.34075C18.4486 6.36574 18.4715 6.3886 18.4929 6.41221C17.5254 6.87328 16.5005 7.20251 15.4456 7.39107C14.9568 6.04752 14.3112 4.76635 13.5221 3.57418C13.6213 3.59202 13.7228 3.60202 13.8207 3.62341ZM9.17069 11.2858C9.22704 10.5127 9.35867 9.74694 9.56369 8.99939C10.3732 9.09555 11.1878 9.14324 12.003 9.14227C12.819 9.14202 13.6343 9.09312 14.4445 8.99579C14.6492 9.74455 14.7801 10.5115 14.8353 11.2858H9.17069ZM14.8353 12.7148C14.779 13.4879 14.6474 14.2537 14.4423 15.0012C13.6328 14.9051 12.8182 14.8574 12.003 14.8584C11.187 14.8574 10.3718 14.9051 9.56151 15.0012C9.35708 14.2537 9.22621 13.4879 9.17065 12.7148H14.8353ZM12.003 3.89211C12.8161 5.04455 13.4849 6.29235 13.9943 7.60756C13.3329 7.67781 12.6682 7.71311 12.003 7.71331C11.3385 7.71252 10.6746 7.67702 10.0138 7.60685C10.5239 6.29252 11.1918 5.04513 12.003 3.89211ZM5.57958 6.33999C5.7475 6.14992 5.92254 5.9663 6.10546 5.79268C6.15046 5.74981 6.19764 5.70908 6.24336 5.66763C6.41962 5.50712 6.60207 5.35397 6.79067 5.2082C6.83999 5.17031 6.88998 5.13673 6.94001 5.09675C7.13435 4.95386 7.33442 4.81927 7.54019 4.69304L7.68308 4.60659C7.89982 4.4799 8.12179 4.36293 8.349 4.25575C8.39044 4.23645 8.43118 4.21502 8.47262 4.19572C8.70984 4.08854 8.95207 3.99351 9.19786 3.9099C9.235 3.89634 9.26933 3.88131 9.31002 3.86845C9.55795 3.78556 9.81019 3.71698 10.0674 3.6541C10.1074 3.64481 10.146 3.63196 10.1867 3.62337C10.2846 3.60194 10.3861 3.59193 10.4854 3.57406C9.69598 4.76643 9.05016 6.04786 8.56121 7.39166C7.50624 7.2031 6.48128 6.87387 5.51385 6.4128C5.53529 6.38785 5.55815 6.36499 5.57958 6.33999ZM4.67072 7.57968C5.76597 8.13892 6.9359 8.5379 8.14465 8.76435C7.93118 9.59015 7.79742 10.4345 7.74525 11.2858H3.46536C3.5748 9.97377 3.98743 8.70507 4.67072 7.57968ZM4.67072 16.421C3.98739 15.2956 3.57476 14.0269 3.46536 12.7148H7.74525C7.79767 13.5662 7.93164 14.4106 8.14536 15.2363C6.93641 15.4627 5.76622 15.8617 4.67072 16.421ZM10.1853 20.3772C10.1453 20.3679 10.1067 20.3551 10.0667 20.3458C9.8109 20.2857 9.55724 20.2172 9.30931 20.1314C9.27142 20.1186 9.23429 20.1035 9.19711 20.09C8.95132 20.0042 8.70912 19.9092 8.47187 19.8042C8.43042 19.7849 8.38969 19.7634 8.34824 19.7441C8.12104 19.636 7.89907 19.5191 7.68233 19.3933L7.53944 19.3068C7.33367 19.1811 7.13359 19.0465 6.93925 18.9031C6.88922 18.8667 6.83924 18.8317 6.78992 18.7917C6.59939 18.6488 6.41694 18.4957 6.24261 18.3322C6.19689 18.2908 6.14971 18.2501 6.1047 18.2072C5.92179 18.0336 5.74746 17.85 5.57883 17.6599C5.55739 17.6349 5.53453 17.612 5.5131 17.5884C6.48057 17.1274 7.50549 16.7981 8.56046 16.6096C9.0492 17.9531 9.69481 19.2343 10.4839 20.4265C10.3846 20.4087 10.2832 20.3987 10.1853 20.3772ZM12.003 20.1086C11.1899 18.9561 10.5211 17.7083 10.0116 16.3931C11.3349 16.2507 12.6696 16.2507 13.9929 16.3931L13.9922 16.3938C13.4821 17.7081 12.8142 18.9555 12.003 20.1086ZM18.4264 17.6606C18.2585 17.8507 18.0835 18.0343 17.9006 18.208C17.8556 18.2508 17.8084 18.2916 17.7627 18.333C17.5864 18.494 17.404 18.6472 17.2153 18.7924C17.166 18.8303 17.116 18.8675 17.066 18.9039C16.8717 19.0468 16.6716 19.1814 16.4658 19.3076L16.3229 19.394C16.1067 19.5203 15.8847 19.6372 15.657 19.7449C15.6156 19.7642 15.5748 19.7856 15.5334 19.8049C15.2962 19.9121 15.054 20.0071 14.8082 20.0907C14.771 20.1043 14.7367 20.1193 14.696 20.1322C14.4481 20.2151 14.1958 20.2836 13.9386 20.3465C13.8986 20.3558 13.86 20.3687 13.8193 20.3773C13.7214 20.3987 13.6199 20.4087 13.5206 20.4266C14.3097 19.2344 14.9554 17.9532 15.4441 16.6097C16.499 16.7982 17.524 17.1275 18.4914 17.5885C18.4707 17.6128 18.4479 17.6356 18.4264 17.6606ZM19.3353 16.421C18.2401 15.8618 17.0701 15.4628 15.8614 15.2363C16.0748 14.4105 16.2086 13.5662 16.2608 12.7148H20.5407C20.4312 14.0269 20.0186 15.2956 19.3353 16.421Z" fill="#F2F2F2"/>
</svg>
