<svg width="24" height="24" viewBox="0 0 24 24" fill="none" xmlns="http://www.w3.org/2000/svg">
<path d="M3.81336 9.69237C4.05799 7.61631 5.05152 5.70799 6.61158 4.31749C6.92067 4.04173 6.94776 3.56786 6.67237 3.25841C6.39661 2.94896 5.92274 2.92186 5.61329 3.19762C3.77637 4.83495 2.60743 7.08312 2.32251 9.52831C2.31922 9.55724 2.31738 9.58617 2.31738 9.6151V9.62279C2.31738 10.037 2.6532 10.3691 3.06738 10.3691C3.45558 10.3691 3.77491 10.0707 3.81336 9.69237Z" fill="black"/>
<path d="M21.7013 9.53416C21.4494 7.12265 20.2601 4.72902 18.4036 3.14891C18.0882 2.88048 17.6147 2.91893 17.3463 3.23424C17.0779 3.54954 17.116 4.02305 17.4316 4.29148C18.9919 5.6183 20.0014 7.58159 20.2049 9.6151C20.2049 10.0293 20.5408 10.3651 20.9549 10.3651C21.3794 10.3651 21.7461 9.96316 21.7013 9.53416Z" fill="black"/>
<path d="M20.1336 17.2218C19.2283 15.6383 18.75 13.8369 18.75 12.0124C18.75 12.0124 18.75 10.5011 18.75 10.5C18.75 7.58985 16.7483 4.90612 13.9741 4.05693C14.1444 3.74034 14.25 3.38402 14.25 3C14.25 1.75927 13.2408 0.75 12 0.75C10.7593 0.75 9.75003 1.75927 9.75003 3C9.75003 3.38425 9.85582 3.74075 10.0263 4.05748C7.25586 4.93186 5.25003 7.60927 5.25003 10.7303V12.0124C5.25003 13.8369 4.77175 15.6383 3.86612 17.2222C3.38161 18.0695 3.10258 18.9553 3.63871 19.879C4.04556 20.5811 4.77322 21 5.58475 21H9.00003C9.00003 22.6542 10.3459 24 12 24C13.6542 24 15 22.6542 15 21H18.4153C19.2268 21 19.9545 20.5811 20.3613 19.879C20.8792 18.9856 20.6115 18.0588 20.1336 17.2218ZM12 2.25C12.4135 2.25 12.75 2.58655 12.75 3C12.75 3.41345 12.4135 3.75 12 3.75C11.5866 3.75 11.25 3.41345 11.25 3C11.25 2.58655 11.5866 2.25 12 2.25ZM12 22.5C11.1728 22.5 10.5 21.8273 10.5 21H13.5C13.5 21.8273 12.8273 22.5 12 22.5ZM19.0642 19.1265C18.999 19.2385 18.8053 19.5 18.4153 19.5H5.58475C5.19479 19.5 5.00106 19.2386 4.93585 19.1265C4.69871 18.7189 4.96626 18.321 5.16873 17.9659C6.20328 16.1565 6.75003 14.0977 6.75003 12.0124C6.75003 12.0124 6.75003 10.731 6.75003 10.7303C6.75003 7.89772 9.07082 5.25041 11.9915 5.25037C14.8215 5.25033 17.25 7.67938 17.25 10.5V12.0124C17.25 14.0976 17.7968 16.1564 18.8309 17.9655C19.0413 18.3336 19.3076 18.7044 19.0642 19.1265Z" fill="black"/>
</svg>
