<svg width="24" height="24" viewBox="0 0 24 24" fill="none" xmlns="http://www.w3.org/2000/svg">
<path d="M12 23C18.0751 23 23 18.0751 23 12C23 5.92487 18.0751 1 12 1C5.92487 1 1 5.92487 1 12C1 18.0751 5.92487 23 12 23Z" fill="#34495E"/>
<path d="M5.74996 4.25004C5.74996 3.79604 5.77346 3.35004 5.81296 2.90454C4.51942 3.78276 3.42796 4.92664 2.61135 6.25992C1.79473 7.5932 1.27172 9.08525 1.07718 10.6366C0.882644 12.1879 1.02105 13.7629 1.48317 15.2565C1.94529 16.7502 2.72052 18.1281 3.75715 19.2986C4.79379 20.469 6.06802 21.405 7.4949 22.0441C8.92178 22.6833 10.4685 23.0109 12.032 23.0052C13.5955 22.9995 15.1398 22.6605 16.5619 22.0109C17.9841 21.3613 19.2514 20.416 20.2795 19.238C16.3851 19.1166 12.691 17.4843 9.97905 14.6868C7.26714 11.8893 5.7504 8.14625 5.74996 4.25004Z" fill="#2C3E50"/>
<path d="M12 21C16.9706 21 21 16.9706 21 12C21 7.02944 16.9706 3 12 3C7.02944 3 3 7.02944 3 12C3 16.9706 7.02944 21 12 21Z" fill="#ECF0F1"/>
<path d="M5.80445 5.48291C4.11318 7.08839 3.11143 9.28788 3.01041 11.6176C2.90938 13.9474 3.71698 16.2253 5.26292 17.9712C6.80886 19.717 8.97234 20.7944 11.2972 20.976C13.622 21.1577 15.9266 20.4295 17.7249 18.9449C14.5506 18.2894 11.6739 16.6237 9.52508 14.1971C7.37629 11.7704 6.07098 8.71323 5.80445 5.48291Z" fill="#D9E1E2"/>
<path d="M12 6.5C11.8674 6.5 11.7402 6.44732 11.6464 6.35355C11.5527 6.25979 11.5 6.13261 11.5 6V4.5C11.5 4.36739 11.5527 4.24021 11.6464 4.14645C11.7402 4.05268 11.8674 4 12 4C12.1326 4 12.2598 4.05268 12.3536 4.14645C12.4473 4.24021 12.5 4.36739 12.5 4.5V6C12.5 6.13261 12.4473 6.25979 12.3536 6.35355C12.2598 6.44732 12.1326 6.5 12 6.5Z" fill="#95A5A6"/>
<path d="M12 20C11.8674 20 11.7402 19.9473 11.6464 19.8536C11.5527 19.7598 11.5 19.6326 11.5 19.5V18C11.5 17.8674 11.5527 17.7402 11.6464 17.6464C11.7402 17.5527 11.8674 17.5 12 17.5C12.1326 17.5 12.2598 17.5527 12.3536 17.6464C12.4473 17.7402 12.5 17.8674 12.5 18V19.5C12.5 19.6326 12.4473 19.7598 12.3536 19.8536C12.2598 19.9473 12.1326 20 12 20Z" fill="#7B8C8C"/>
<path d="M19.5 12.5H18C17.8674 12.5 17.7402 12.4473 17.6464 12.3536C17.5527 12.2598 17.5 12.1326 17.5 12C17.5 11.8674 17.5527 11.7402 17.6464 11.6464C17.7402 11.5527 17.8674 11.5 18 11.5H19.5C19.6326 11.5 19.7598 11.5527 19.8536 11.6464C19.9473 11.7402 20 11.8674 20 12C20 12.1326 19.9473 12.2598 19.8536 12.3536C19.7598 12.4473 19.6326 12.5 19.5 12.5Z" fill="#95A5A6"/>
<path d="M6 12.5H4.5C4.36739 12.5 4.24021 12.4473 4.14645 12.3536C4.05268 12.2598 4 12.1326 4 12C4 11.8674 4.05268 11.7402 4.14645 11.6464C4.24021 11.5527 4.36739 11.5 4.5 11.5H6C6.13261 11.5 6.25979 11.5527 6.35355 11.6464C6.44732 11.7402 6.5 11.8674 6.5 12C6.5 12.1326 6.44732 12.2598 6.35355 12.3536C6.25979 12.4473 6.13261 12.5 6 12.5Z" fill="#7B8C8C"/>
<path d="M7.40392 17.096C7.31776 17.096 7.23307 17.0737 7.15806 17.0313C7.08305 16.9889 7.02027 16.9279 6.9758 16.8541C6.93133 16.7803 6.90668 16.6963 6.90425 16.6101C6.90182 16.524 6.92169 16.4387 6.96192 16.3625L9.86842 10.872C10.0941 10.4445 10.4435 10.0949 10.8709 9.86903L16.3624 6.96203C16.4569 6.91221 16.5648 6.89395 16.6704 6.90992C16.776 6.92588 16.8737 6.97523 16.9492 7.05074C17.0247 7.12626 17.0741 7.22396 17.09 7.32955C17.106 7.43514 17.0877 7.54307 17.0379 7.63753L14.1314 13.128C13.9058 13.5556 13.5564 13.9052 13.1289 14.131L7.63742 17.038C7.56547 17.0761 7.48532 17.096 7.40392 17.096Z" fill="#3498DB"/>
<path d="M7.40405 17.096C7.48544 17.096 7.5656 17.0761 7.63755 17.038L13.129 14.131C13.5565 13.9052 13.9059 13.5556 14.1315 13.128L17.038 7.63755C17.0881 7.54308 17.1066 7.43505 17.0908 7.32931C17.0749 7.22357 17.0256 7.1257 16.95 7.05005L7.05005 16.95C7.09657 16.9965 7.15178 17.0332 7.21252 17.0583C7.27326 17.0833 7.33834 17.0962 7.40405 17.096Z" fill="#2980B9"/>
<path d="M8.67253 13.1311L6.96203 16.3626C6.91221 16.4571 6.89395 16.565 6.90992 16.6706C6.92588 16.7762 6.97523 16.8739 7.05074 16.9494C7.12626 17.0249 7.22396 17.0742 7.32955 17.0902C7.43514 17.1062 7.54307 17.0879 7.63753 17.0381L10.734 15.4001C9.97149 14.7158 9.28075 13.9556 8.67253 13.1311Z" fill="#2980B9"/>
<path d="M9.66055 14.3396L7.05005 16.9501C7.1256 17.0256 7.22336 17.075 7.32899 17.0909C7.43463 17.1068 7.54259 17.0885 7.63705 17.0386L10.734 15.4001C10.3587 15.0648 10.0004 14.7109 9.66055 14.3396Z" fill="#1D6D99"/>
<path d="M16.9499 7.04994C16.8744 6.97442 16.7766 6.92508 16.671 6.90915C16.5654 6.89323 16.4574 6.91155 16.3629 6.96144L10.8709 9.86894C10.6586 9.98119 10.4643 10.1246 10.2944 10.2944L13.7054 13.7054C13.8755 13.5353 14.0191 13.3406 14.1314 13.1279L17.0379 7.63744C17.088 7.54298 17.1065 7.43495 17.0906 7.32921C17.0748 7.22347 17.0255 7.12559 16.9499 7.04994Z" fill="#E74C3C"/>
<path d="M13.7055 13.7055C13.8755 13.5354 14.0191 13.3407 14.1315 13.128L17.038 7.63755C17.0881 7.54308 17.1065 7.43505 17.0907 7.32931C17.0749 7.22357 17.0256 7.1257 16.95 7.05005L12 12L13.7055 13.7055Z" fill="#C0392B"/>
</svg>
