<svg width="24" height="24" viewBox="0 0 24 24" fill="none" xmlns="http://www.w3.org/2000/svg">
<path d="M20.3773 17.8538C20.0942 17.3706 19.6426 17.009 19.1092 16.8386L19.0443 16.8192C18.9663 16.7943 18.8858 16.7779 18.8043 16.7705C18.3878 16.8735 17.996 17.0582 17.6514 17.3137C17.3068 17.5692 17.0163 17.8906 16.7967 18.2592L16.4854 22.7024C16.4367 22.7024 16.4594 22.7024 16.4854 22.7024L16.4594 23.351H16.7059C19.907 23.351 20.507 20.6397 20.5589 20.364C20.8248 19.3554 20.7567 18.5089 20.3773 17.8538Z" fill="#101010"/>
<path d="M7.51447 22.7027L7.19015 18.2692C6.91447 18.0163 6.3015 16.8422 5.18258 16.7773C5.10139 16.787 5.02112 16.8033 4.94258 16.826H4.89718C4.35184 16.9916 3.88875 17.3563 3.59988 17.8476C3.21393 18.4963 3.15231 19.3492 3.41826 20.3579C3.47015 20.6303 4.06691 23.3449 7.27123 23.3449H7.51772L7.49177 22.6963C7.54042 22.7028 7.55988 22.7027 7.51447 22.7027Z" fill="#101010"/>
<path d="M9.51566 5.46144H10.1643V6.51874H9.06161V11.3252H14.9416V6.51874H13.8389V5.46144H14.4876C14.652 5.4615 14.8146 5.4269 14.9648 5.35991C15.115 5.29293 15.2494 5.19505 15.3593 5.07266C15.4691 4.95027 15.5519 4.80611 15.6023 4.64958C15.6528 4.49304 15.6696 4.32764 15.6519 4.16415L15.373 1.70252C15.3446 1.41238 15.2088 1.14333 14.9921 0.948278C14.7755 0.753226 14.4937 0.64628 14.2021 0.64847H9.79782C9.50737 0.647015 9.2268 0.753873 9.01091 0.948177C8.79501 1.14248 8.6593 1.41028 8.63025 1.69928L8.35134 4.16739C8.33357 4.33088 8.35044 4.49628 8.40086 4.65282C8.45128 4.80935 8.53411 4.95351 8.64395 5.0759C8.7538 5.19829 8.8882 5.29617 9.03839 5.36316C9.18858 5.43014 9.3512 5.46474 9.51566 5.46469V5.46144ZM13.1903 6.51874H10.8097V5.46144H13.1903V6.51874Z" fill="#101010"/>
<path d="M18.6648 16.1386L18.7621 16.1159H18.8594H18.9275C18.668 14.5267 18.3307 11.9451 18.4831 9.89864C18.5549 9.48751 18.5428 9.06611 18.4475 8.65979C18.3522 8.25347 18.1757 7.87064 17.9286 7.53432C17.4258 6.91486 16.6313 6.56134 15.5902 6.5127V17.7959H8.40963V6.53215C7.36206 6.59053 6.57396 6.93432 6.07125 7.55378C5.82357 7.88985 5.64646 8.27257 5.55059 8.6789C5.45472 9.08523 5.44208 9.50676 5.51342 9.9181C5.66585 11.9646 5.32855 14.5462 5.06909 16.1354C5.08419 16.1369 5.0994 16.1369 5.1145 16.1354H5.17288H5.23125C6.40206 16.2035 7.10909 17.1084 7.50152 17.6078C7.54882 17.6754 7.59971 17.7403 7.65396 17.8024L7.82585 17.9711L7.86152 18.2305V18.4576L8.20531 23.3224H8.18585V23.3516H15.8075L15.8594 22.0543H15.8918L16.174 18.0586L16.2583 17.9224C16.52 17.4795 16.8678 17.0935 17.2811 16.7871C17.6944 16.4807 18.1649 16.2602 18.6648 16.1386Z" fill="#101010"/>
<path d="M9.05835 11.9736H14.9416V17.1466H9.05835V11.9736Z" fill="#101010"/>
</svg>
