<svg width="14" height="14" viewBox="0 0 14 14" fill="none" xmlns="http://www.w3.org/2000/svg">
<g clip-path="url(#clip0_4_16199)">
<path d="M13.3566 5.35054C13.2689 5.07938 13.0284 4.88678 12.7438 4.86114L8.87869 4.51018L7.35031 0.932855C7.23761 0.670683 6.98096 0.500977 6.6958 0.500977C6.41064 0.500977 6.15398 0.670683 6.04129 0.933468L4.51291 4.51018L0.647152 4.86114C0.363115 4.8874 0.123217 5.07938 0.0350431 5.35054C-0.0531308 5.6217 0.0282998 5.91912 0.243166 6.10661L3.16476 8.66886L2.30325 12.4638C2.24021 12.7428 2.34851 13.0313 2.58003 13.1986C2.70447 13.2885 2.85007 13.3343 2.99689 13.3343C3.12348 13.3343 3.24905 13.3002 3.36174 13.2328L6.6958 11.2401L10.0286 13.2328C10.2725 13.3795 10.5799 13.3661 10.811 13.1986C11.0426 13.0308 11.1508 12.7422 11.0877 12.4638L10.2262 8.66886L13.1478 6.10712C13.3627 5.91912 13.4447 5.62221 13.3566 5.35054Z" fill="#F2F2F2"/>
</g>
<defs>
<clipPath id="clip0_4_16199">
<rect width="14" height="14" fill="white"/>
</clipPath>
</defs>
</svg>
