<svg width="14" height="13" viewBox="0 0 14 13" fill="none" xmlns="http://www.w3.org/2000/svg">
<path d="M13.3566 4.84956C13.2689 4.5784 13.0284 4.38581 12.7438 4.36016L8.87869 4.0092L7.35031 0.431878C7.23761 0.169707 6.98096 0 6.6958 0C6.41064 0 6.15398 0.169707 6.04129 0.432491L4.51291 4.0092L0.647152 4.36016C0.363115 4.38642 0.123217 4.5784 0.0350431 4.84956C-0.0531308 5.12073 0.0282998 5.41815 0.243166 5.60563L3.16476 8.16788L2.30325 11.9628C2.24021 12.2419 2.34851 12.5303 2.58003 12.6976C2.70447 12.7876 2.85007 12.8333 2.99689 12.8333C3.12348 12.8333 3.24905 12.7992 3.36174 12.7318L6.6958 10.7391L10.0286 12.7318C10.2725 12.8785 10.5799 12.8651 10.811 12.6976C11.0426 12.5298 11.1508 12.2413 11.0877 11.9628L10.2262 8.16788L13.1478 5.60614C13.3627 5.41815 13.4447 5.12124 13.3566 4.84956Z" fill="white"/>
</svg>
