<svg width="62" height="62" viewBox="0 0 62 62" fill="none" xmlns="http://www.w3.org/2000/svg">
<g clip-path="url(#clip0_248_13453)">
<path d="M16.1459 44.4933L12.6739 45.2662C10.8334 45.6655 9.186 46.685 8.00747 48.154C6.82895 49.623 6.19086 51.4522 6.20005 53.3355V55.0074C6.20164 56.1401 6.57449 57.241 7.2615 58.1415C7.9485 59.042 8.91177 59.6925 10.0037 59.9933C13.3569 60.9078 19.7212 62 31.0001 62C42.2789 62 48.6432 60.9078 51.9964 59.9933C53.0883 59.6925 54.0516 59.042 54.7386 58.1415C55.4256 57.241 55.7985 56.1401 55.8001 55.0074V53.3355C55.8092 51.4522 55.1712 49.623 53.9926 48.154C52.8141 46.685 51.1667 45.6655 49.3262 45.2662L45.8542 44.4933L41.1174 41.6526L39.213 37.2093L39.833 36.4953L40.299 36.6203C40.7866 36.7493 41.2888 36.8149 41.7932 36.8156C43.3169 36.8123 44.7771 36.2047 45.8532 35.126C46.9294 34.0473 47.5337 32.5857 47.5334 31.062V29.822C48.4184 29.5935 49.2027 29.0781 49.7636 28.3564C50.3246 27.6347 50.6304 26.7474 50.6334 25.8333V21.7C50.63 20.7863 50.3239 19.8995 49.763 19.1782C49.2021 18.4569 48.4181 17.9418 47.5334 17.7134V16.5333C47.5334 12.1484 45.7915 7.9431 42.6909 4.8425C39.5903 1.7419 35.385 0 31.0001 0C26.6151 0 22.4098 1.7419 19.3092 4.8425C16.2086 7.9431 14.4667 12.1484 14.4667 16.5333V17.7134C13.582 17.9418 12.798 18.4569 12.2371 19.1782C11.6762 19.8995 11.3701 20.7863 11.3667 21.7V25.8333C11.3667 26.9296 11.8022 27.9809 12.5773 28.756C13.3525 29.5312 14.4038 29.9667 15.5 29.9667H17.5667C17.9195 29.9632 18.2691 29.8989 18.6 29.7765V30.133C18.5995 31.6083 19.1349 33.0335 20.1067 34.1434L22.7933 37.2072L20.8879 41.6506L16.1459 44.4933ZM21.4066 43.7482C23.2756 46.211 25.8348 48.0623 28.7588 49.0668C27.7623 50.0426 26.9344 51.1767 26.3087 52.4231C23.0558 50.9046 20.2193 48.6205 18.042 45.7663L21.4066 43.7482ZM53.7334 53.3355V55.0074C53.7338 55.6879 53.5108 56.3496 53.0986 56.891C52.6864 57.4324 52.1078 57.8235 51.4518 58.0041C48.2206 58.8814 42.0495 59.9333 31.0001 59.9333C19.9506 59.9333 13.7796 58.8814 10.5483 57.9989C9.89314 57.8185 9.3152 57.4282 8.90308 56.8879C8.49097 56.3476 8.26743 55.687 8.26672 55.0074V53.3355C8.25963 51.9229 8.7383 50.5508 9.62251 49.4491C10.5067 48.3474 11.7427 47.5831 13.1234 47.2843L16.0932 46.624C17.2577 48.1874 20.7887 52.4789 25.7879 54.4401C26.2157 54.6045 26.6898 54.6006 27.1148 54.4292C27.5397 54.2577 27.8839 53.9315 28.0778 53.5163C28.7557 52.0821 29.7558 50.8238 31.0001 49.8397C32.2447 50.8235 33.2455 52.0814 33.9244 53.5153C34.0708 53.8272 34.3029 54.0911 34.5937 54.2761C34.8844 54.4611 35.2218 54.5595 35.5664 54.56C35.7885 54.5603 36.0087 54.5185 36.2153 54.437C41.2135 52.4737 44.7444 48.1843 45.909 46.6209L48.8788 47.2812C50.2596 47.5805 51.4955 48.3455 52.3794 49.4477C53.2632 50.55 53.7413 51.9226 53.7334 53.3355ZM35.6914 52.4231C35.0662 51.1764 34.2382 50.0422 33.2414 49.0668C36.1653 48.0623 38.7245 46.211 40.5935 43.7482L43.9581 45.7663C41.7806 48.6203 38.9441 50.9044 35.6914 52.4231ZM44.0304 33.9812C43.2808 34.5519 42.3397 34.8111 41.4037 34.7045L41.8935 34.1444C42.8651 33.034 43.4005 31.6086 43.4001 30.133V29.7765C43.731 29.8989 44.0806 29.9632 44.4334 29.9667H45.4667V31.062C45.4687 31.6264 45.3401 32.1836 45.0909 32.6901C44.8418 33.1965 44.4788 33.6384 44.0304 33.9812ZM41.3334 17.5512C31.8402 17.266 29.9058 13.0799 29.8934 13.05C29.8167 12.8581 29.6842 12.6935 29.5131 12.5777C29.342 12.4618 29.14 12.3999 28.9334 12.4C25.9269 12.4047 23.0346 13.5521 20.8424 15.6095C21.7672 10.4811 26.193 6.2 31.0001 6.2C33.7397 6.20301 36.3663 7.29266 38.3035 9.22989C40.2407 11.1671 41.3304 13.7937 41.3334 16.5333V17.5512ZM48.5667 21.7V25.8333C48.5667 26.3814 48.349 26.9071 47.9614 27.2947C47.5738 27.6823 47.0482 27.9 46.5001 27.9H44.4334C44.1593 27.9 43.8965 27.7911 43.7027 27.5973C43.5089 27.4036 43.4001 27.1407 43.4001 26.8667V20.6667C43.4001 20.3926 43.5089 20.1298 43.7027 19.936C43.8965 19.7422 44.1593 19.6333 44.4334 19.6333H46.5001C47.0482 19.6333 47.5738 19.8511 47.9614 20.2386C48.349 20.6262 48.5667 21.1519 48.5667 21.7ZM31.0001 2.06667C34.8356 2.07077 38.5129 3.59625 41.225 6.30839C43.9371 9.02052 45.4626 12.6978 45.4667 16.5333V17.5667H44.4334C44.0806 17.5701 43.731 17.6344 43.4001 17.7568V16.5333C43.3965 13.2457 42.0889 10.0938 39.7642 7.76914C37.4396 5.44446 34.2876 4.13689 31.0001 4.13333C24.394 4.13333 18.6 10.4108 18.6 17.5667V17.7568C18.2691 17.6344 17.9195 17.5701 17.5667 17.5667H16.5334V16.5333C16.5375 12.6978 18.063 9.02052 20.7751 6.30839C23.4872 3.59625 27.1645 2.07077 31.0001 2.06667ZM17.5667 27.9H15.5C14.9519 27.9 14.4263 27.6823 14.0387 27.2947C13.6511 26.9071 13.4334 26.3814 13.4334 25.8333V21.7C13.4334 21.1519 13.6511 20.6262 14.0387 20.2386C14.4263 19.8511 14.9519 19.6333 15.5 19.6333H17.5667C17.8408 19.6333 18.1036 19.7422 18.2974 19.936C18.4912 20.1298 18.6 20.3926 18.6 20.6667V26.8667C18.6 27.1407 18.4912 27.4036 18.2974 27.5973C18.1036 27.7911 17.8408 27.9 17.5667 27.9ZM20.6667 30.133V18.91C21.5378 17.6494 22.6785 16.5984 24.0061 15.8333C25.3337 15.0682 26.8149 14.608 28.3423 14.4863C29.3178 15.9629 32.5294 19.3585 41.3334 19.6106V30.133C41.3335 31.1081 40.9795 32.0499 40.3373 32.7835L39.1283 34.1651L36.2349 33.3922L36.2659 33.264C36.3291 33 36.3397 32.726 36.297 32.4579C36.2543 32.1897 36.1591 31.9326 36.017 31.7012C35.8749 31.4699 35.6886 31.2688 35.4687 31.1094C35.2488 30.9501 34.9997 30.8357 34.7356 30.7727L31.7213 30.0493C30.9213 29.8578 30.078 29.9918 29.3769 30.422C28.6758 30.8523 28.1743 31.5434 27.9827 32.3433C27.7912 33.1433 27.9252 33.9866 28.3554 34.6877C28.7856 35.3889 29.4767 35.8904 30.2767 36.0819L33.291 36.8053C33.45 36.8434 33.613 36.8628 33.7766 36.8631C34.2176 36.8634 34.6468 36.7213 35.0005 36.4581C35.3543 36.1948 35.6136 35.8244 35.74 35.402L37.6093 35.9021L36.0634 37.665C35.6235 38.168 35.0812 38.5711 34.4727 38.8474C33.8643 39.1236 33.2038 39.2666 32.5356 39.2667H29.4645C28.7964 39.2663 28.136 39.1231 27.5276 38.8469C26.9192 38.5707 26.3768 38.1677 25.9367 37.665L21.6649 32.7825C21.0219 32.0496 20.6671 31.108 20.6667 30.133ZM34.2551 32.7835L33.7756 34.7923L30.7603 34.069C30.6268 34.039 30.5005 33.9827 30.3888 33.9035C30.2772 33.8243 30.1824 33.7237 30.11 33.6076C30.0375 33.4914 29.9889 33.362 29.9669 33.2269C29.9449 33.0918 29.95 32.9537 29.9818 32.8205C30.0136 32.6874 30.0716 32.5619 30.1523 32.4513C30.2331 32.3408 30.335 32.2474 30.4521 32.1766C30.5692 32.1057 30.6993 32.0589 30.8347 32.0387C30.9701 32.0186 31.1081 32.0255 31.2408 32.0592L34.2551 32.7835ZM24.3785 39.0259C25.0126 39.751 25.7946 40.332 26.6718 40.73C27.549 41.1279 28.5012 41.3337 29.4645 41.3333H32.5356C33.4989 41.3336 34.451 41.1278 35.3283 40.7299C36.2055 40.3319 36.9874 39.7509 37.6217 39.0259L37.7043 38.9319L39.1272 42.254C37.1667 44.9579 34.2693 46.8345 31.0001 47.5178C27.7308 46.8345 24.8334 44.9579 22.8729 42.254L24.2968 38.9319L24.3785 39.0259Z" fill="#101010"/>
</g>
<defs>
<clipPath id="clip0_248_13453">
<rect width="62" height="62" fill="white"/>
</clipPath>
</defs>
</svg>
