<svg width="62" height="34" viewBox="0 0 62 34" fill="none" xmlns="http://www.w3.org/2000/svg">
<path d="M61.7728 20.1092C60.9303 16.4572 57.672 13.594 54.0977 12.74L47.0384 11.0471L40.7293 4.61694C38.0943 1.93314 34.4262 0.393799 30.6658 0.393799H7.09004C6.62395 0.393799 6.19915 0.661295 5.99777 1.08185C5.79652 1.50229 5.85428 2.00083 6.1466 2.36399L7.58737 4.15424C7.68812 4.27933 7.67202 4.45976 7.55068 4.56511L1.33106 9.96638C1.06623 10.1963 0.914137 10.53 0.914137 10.8808V17.5047L0.141195 18.9617C0.0484375 19.1363 0 19.3312 0 19.529V24.3389C0 24.5782 0.0708399 24.8119 0.203559 25.0109L2.03329 27.7537C2.25791 28.0904 2.63597 28.2926 3.04066 28.2926H5.14879C5.71817 31.3134 8.37484 33.6063 11.5586 33.6063C14.7424 33.6063 17.399 31.3134 17.9684 28.2926H24.1976C24.8664 28.2926 25.4085 27.7503 25.4085 27.0816C25.4085 26.413 24.8664 25.8707 24.1976 25.8707H17.9702C17.3966 22.8279 14.6465 20.5578 11.5585 20.5578C8.46724 20.5578 5.71974 22.8314 5.14648 25.8707H3.68852L2.42188 23.972V19.8303L3.19494 18.3733C3.2877 18.1986 3.33613 18.0036 3.33613 17.8057V11.4327L9.13882 6.39351C10.1909 5.47986 10.3775 3.94742 9.60746 2.81555H30.6658C33.7806 2.81555 36.8187 4.09043 39.0009 6.31334L45.5533 12.9915C45.7124 13.1538 45.9142 13.2679 46.1353 13.321L53.534 15.0953C53.9923 15.2048 54.4353 15.3542 54.8626 15.5379L53.9921 16.0975C53.1414 16.6432 52.6334 17.5737 52.6334 18.5868C52.6334 20.198 53.9801 21.5452 55.5917 21.5452H59.5545C59.5686 21.7113 59.5781 21.8776 59.5781 22.044V24.017L58.5183 25.8707H53.4956C52.9232 22.8303 50.1752 20.5578 47.0844 20.5578C43.9932 20.5578 41.2479 22.8317 40.6732 25.8707H34.8528C34.1842 25.8707 33.6419 26.413 33.6419 27.0816C33.6419 27.7503 34.1842 28.2926 34.8528 28.2926H40.6748C41.2442 31.3134 43.9008 33.6063 47.0845 33.6063C50.2682 33.6063 52.925 31.3134 53.4944 28.2926H59.2211C59.6556 28.2926 60.0567 28.0598 60.2725 27.6828L61.8406 24.94C61.9453 24.7569 62.0002 24.5497 62.0002 24.3389V22.0441C62 21.3911 61.9229 20.7369 61.7728 20.1092ZM11.5586 31.1844C9.29661 31.1844 7.45635 29.3442 7.45635 27.082C7.45635 24.8507 9.32603 22.9802 11.5585 22.9802C13.7908 22.9802 15.6609 24.848 15.6609 27.082C15.6609 29.344 13.8206 31.1844 11.5586 31.1844ZM47.0843 31.1844C44.8232 31.1844 42.9837 29.3456 42.9821 27.0849C42.9821 27.0838 42.9822 27.0827 42.9822 27.0816C42.9822 24.8201 44.8226 22.9802 47.0849 22.9802C49.3464 22.9802 51.1863 24.8201 51.1863 27.0816C51.1863 27.0832 51.1866 27.0848 51.1866 27.0865C51.1841 29.3465 49.345 31.1844 47.0843 31.1844ZM55.2112 18.9643C54.977 18.7308 55.0196 18.3158 55.3007 18.1355L57.1065 16.9747C57.7926 17.5887 58.3815 18.3125 58.8197 19.1234H55.5917C55.3992 19.1234 55.2718 19.0247 55.2112 18.9643Z" fill="#101010"/>
<path d="M39.5949 14.7908C40.9991 14.7908 41.775 13.0747 40.8475 12.0182L37.6949 8.42688C35.6852 6.13773 32.7855 4.82471 29.7392 4.82471H15.3369C14.6672 4.82471 14.028 5.07525 13.5372 5.5302L9.22746 9.52302C8.74151 9.97337 8.56738 10.6688 8.78389 11.2949C9.00029 11.9206 9.56652 12.3596 10.2265 12.4134C15.8664 12.8736 34.6425 14.4043 39.4603 14.7856C39.5053 14.789 39.5501 14.7908 39.5949 14.7908ZM15.1832 7.30664C15.2251 7.26789 15.2796 7.24646 15.3369 7.24646H24.9858V11.1856C20.1221 10.7901 15.2354 10.3919 12.1267 10.1384L15.1832 7.30664ZM27.4075 11.3824V7.24646H29.7389C32.0883 7.24646 34.3247 8.25905 35.8746 10.0245L37.8052 12.2238C35.2926 12.0222 31.4654 11.712 27.4075 11.3824Z" fill="#101010"/>
<path d="M26.1965 19.3613H28.9048C29.5736 19.3613 30.1157 18.8191 30.1157 18.1504C30.1157 17.4817 29.5736 16.9395 28.9048 16.9395H26.1965C25.5277 16.9395 24.9856 17.4817 24.9856 18.1504C24.9856 18.8191 25.5279 19.3613 26.1965 19.3613Z" fill="#101010"/>
<path d="M9.92456 15.2563C9.25576 15.2563 8.71362 15.7986 8.71362 16.4673C8.71362 17.136 9.25576 17.6782 9.92456 17.6782H12.6329C13.3017 17.6782 13.8439 17.136 13.8439 16.4673C13.8439 15.7986 13.3017 15.2563 12.6329 15.2563H9.92456Z" fill="#101010"/>
<path d="M30.764 26.6185C30.5654 26.1422 30.072 25.8358 29.5565 25.8743C29.0507 25.9123 28.6156 26.2713 28.4794 26.7592C28.1903 27.7953 29.3509 28.6653 30.2677 28.12C30.7784 27.8162 30.9881 27.1658 30.764 26.6185Z" fill="#101010"/>
</svg>
