<svg width="62" height="62" viewBox="0 0 62 62" fill="none" xmlns="http://www.w3.org/2000/svg">
<path d="M55.0559 32.6118H40.0821C40.0672 32.4878 40.0538 32.5591 40.0388 32.5325C39.8328 32.169 39.6362 31.7438 39.4473 31.4958H36.6589C37.0335 32.1158 37.4571 32.8539 37.947 33.7183C38.2146 34.1907 38.4366 34.5958 38.6197 35.0918H55.0559C55.7407 35.0918 56.2959 34.5366 56.2959 33.8518C56.2959 33.1671 55.7407 32.6118 55.0559 32.6118Z" fill="#101010"/>
<path d="M58.7759 26.5359H35.9445C35.2801 25.9159 34.5821 25.6028 33.7153 25.402C32.9617 25.2277 31.8364 25.1738 30.6175 25.8913C30.3576 25.7897 30.0946 25.7058 29.8289 25.6537C28.9538 25.4835 28.0713 25.5862 27.2799 25.9519V16.3945C27.2799 13.5483 25.0234 11.2839 22.1771 11.2839H7.32236C4.47606 11.2839 2.10791 13.5483 2.10791 16.3946V31.2493C2.10791 34.0956 4.47606 36.4559 7.32236 36.4559H18.2504C18.1092 36.7039 17.9839 37.0798 17.8853 37.4462C17.4767 38.9623 17.4095 41.3697 19.4103 44.2943C21.3587 47.1428 24.1722 49.0259 27.3335 49.6101C30.0883 50.1191 32.9493 49.6153 34.9861 48.2219C35.3931 47.9435 35.8793 47.6159 36.3995 47.2439H48.2359C48.9206 47.2439 49.4759 46.6887 49.4759 46.0039C49.4759 45.3192 48.9206 44.7639 48.2359 44.7639H39.1224C39.5536 44.2679 39.9602 43.728 40.316 43.139C40.6589 42.5717 40.9817 41.9119 41.2294 41.1679H51.9559C52.6406 41.1679 53.1959 40.6127 53.1959 39.9279C53.1959 39.2432 52.6406 38.6879 51.9559 38.6879H41.6893C41.7056 38.3159 41.6991 37.9439 41.6712 37.5719H39.2653C39.7119 42.0359 35.7556 44.7788 33.6285 46.2338C30.7757 48.1851 24.9375 48.1161 21.3949 42.9369C19.9501 40.8251 19.876 39.1383 20.2459 37.9207L22.343 40.9829C22.718 41.5315 23.4662 41.6696 24.0139 41.2949C24.5617 40.9201 24.7027 40.1712 24.3277 39.6229L15.4451 26.622C15.3842 26.5387 13.8425 24.5072 15.4607 23.4006C16.409 22.7517 17.1446 22.6169 18.469 24.5532L22.9207 31.0606C23.021 30.4603 23.3315 29.9113 23.9418 29.494C24.6197 29.0301 25.303 28.8606 25.9727 28.9899C26.372 29.0667 26.7202 29.2404 27.019 29.4586C27.1667 29.0724 27.4665 28.6646 28.0204 28.2859C28.4237 28.0102 28.8892 27.9136 29.3662 28.0065C29.9417 28.1193 30.4844 28.4894 30.9626 28.9536C31.0887 28.5982 31.3293 28.2898 31.6807 28.0494C32.1792 27.7087 32.6663 27.6274 33.1721 27.7442C33.8266 27.896 34.3231 28.1481 35.0064 29.0161H58.7759C59.4606 29.0161 60.0159 28.4608 60.0159 27.7761C60.0159 27.0913 59.4606 26.5359 58.7759 26.5359ZM23.1637 27.158L20.4532 23.1955C18.5596 20.4276 16.4232 19.8287 14.1032 21.4156C13.1551 22.0641 12.5581 22.9783 12.376 24.0588C12.0773 25.8317 13.0301 27.4174 13.4833 28.0393L17.5174 33.9759H7.32236C5.84353 33.9759 4.58791 32.7281 4.58791 31.2493V16.3946C4.58791 14.9158 5.84353 13.7639 7.32236 13.7639H22.1771C23.6559 13.7639 24.7999 14.9158 24.7999 16.3946V26.6017C24.2445 26.6892 23.6954 26.8747 23.1637 27.158Z" fill="#101010"/>
</svg>
