<svg width="22" height="22" viewBox="0 0 22 22" fill="none" xmlns="http://www.w3.org/2000/svg">
<path d="M14 10.5002L12.7667 10.0669C12.6667 9.73353 12.5333 9.4002 12.3333 9.06686L12.9 7.9002C12.9667 7.76686 12.9333 7.6002 12.8333 7.53353L11.4 6.10019C11.3 6.00019 11.1333 5.96686 11.0333 6.03353L9.86667 6.60019C9.53333 6.43353 9.2 6.3002 8.86667 6.16686L8.43333 4.93353C8.4 4.8002 8.26667 4.7002 8.13333 4.7002H6.1C5.96667 4.7002 5.83333 4.8002 5.76667 4.93353L5.33333 6.16686C5 6.26686 4.66667 6.40019 4.33333 6.60019L3.2 6.0002C3.06667 5.93353 2.93333 5.96686 2.8 6.06686L1.36667 7.5002C1.26667 7.6002 1.23333 7.76686 1.3 7.86686L1.86667 9.03353C1.7 9.36686 1.56667 9.7002 1.46667 10.0335L0.233333 10.4669C0.1 10.5335 0 10.6669 0 10.8002V12.8335C0 12.9669 0.1 13.1002 0.233333 13.1669L1.46667 13.6002C1.56667 13.9335 1.7 14.2669 1.9 14.6002L1.33333 15.7669C1.26667 15.9002 1.3 16.0669 1.4 16.1669L2.83333 17.6002C2.93333 17.7002 3.1 17.7335 3.23333 17.6669L4.4 17.1002C4.73333 17.2669 5.06667 17.4002 5.4 17.5335L5.83333 18.7669C5.86667 18.9002 6 19.0002 6.13333 19.0002H8.16667C8.3 19.0002 8.43333 18.9002 8.46667 18.7669L8.9 17.5335C9.23333 17.4335 9.56667 17.3002 9.9 17.1002L11.0667 17.6669C11.2 17.7335 11.3333 17.7002 11.4333 17.6002L12.8667 16.1669C12.9667 16.0669 13 15.9002 12.9333 15.7669L12.3333 14.5669C12.5 14.2335 12.6333 13.9002 12.7667 13.5669L14 13.1335C14.1333 13.1002 14.2333 12.9669 14.2333 12.8002V10.7669C14.2333 10.6669 14.1333 10.5335 14 10.5002ZM7.1 14.6669C5.53333 14.6669 4.26667 13.4002 4.26667 11.8335C4.26667 10.2669 5.53333 9.00019 7.1 9.00019C8.66667 9.00019 9.93333 10.2669 9.93333 11.8335C9.93333 13.3669 8.66667 14.6669 7.1 14.6669Z" fill="#101010"/>
<path d="M21.1002 3.86693L20.4335 3.63359C20.3669 3.46693 20.3002 3.30026 20.2335 3.16693L20.5335 2.53359C20.6002 2.40026 20.5669 2.26693 20.4669 2.13359L19.6669 1.30026C19.5669 1.20026 19.4002 1.16693 19.3002 1.23359L18.6669 1.53359C18.5002 1.46693 18.3669 1.40026 18.2002 1.33359L17.9669 0.666927C17.9335 0.533594 17.8002 0.433594 17.6669 0.433594H16.4669C16.3335 0.433594 16.2002 0.533594 16.1335 0.666927L15.9002 1.33359C15.7335 1.40026 15.5669 1.46693 15.4335 1.53359L14.8002 1.23359C14.6669 1.16693 14.5002 1.20026 14.4002 1.30026L13.5669 2.13359C13.4669 2.23359 13.4335 2.40026 13.5002 2.53359L13.8002 3.16693C13.7335 3.33359 13.6669 3.46693 13.6002 3.63359L12.9335 3.86693C12.8002 3.90026 12.7002 4.03359 12.7002 4.16693V5.36693C12.7002 5.50026 12.8002 5.63359 12.9335 5.66693L13.6002 5.90026C13.6669 6.06693 13.7335 6.23359 13.8002 6.40026L13.5002 7.00026C13.4335 7.13359 13.4669 7.30026 13.5669 7.40026L14.4002 8.23359C14.5002 8.33359 14.6669 8.36693 14.8002 8.30026L15.4335 8.00026C15.6002 8.06693 15.7669 8.13359 15.9002 8.20026L16.1335 8.86693C16.1669 9.00026 16.3002 9.10026 16.4669 9.10026H17.6669C17.8002 9.10026 17.9335 9.00026 17.9669 8.86693L18.2002 8.20026C18.3669 8.13359 18.5335 8.06693 18.6669 8.00026L19.3002 8.30026C19.4335 8.36693 19.5669 8.33359 19.7002 8.23359L20.5335 7.40026C20.6335 7.30026 20.6669 7.13359 20.6002 7.00026L20.3002 6.36693C20.3669 6.20026 20.4335 6.03359 20.5002 5.86693L21.1669 5.63359C21.3002 5.60026 21.4002 5.46693 21.4002 5.33359V4.13359C21.3335 4.03359 21.2335 3.90026 21.1002 3.86693ZM17.0335 6.43359C16.1002 6.43359 15.3669 5.70026 15.3669 4.76693C15.3669 3.86693 16.1002 3.10026 17.0335 3.10026C17.9335 3.10026 18.7002 3.83359 18.7002 4.76693C18.7002 5.70026 17.9335 6.43359 17.0335 6.43359Z" fill="#101010"/>
<path d="M21.0995 14.7335L20.1662 14.4002C20.0995 14.1335 19.9995 13.9002 19.8662 13.6669L20.2995 12.7669C20.3662 12.6335 20.3329 12.5002 20.2329 12.4002L19.0995 11.2669C18.9995 11.1669 18.8329 11.1335 18.6995 11.2002L17.8329 11.6669C17.5995 11.5335 17.3329 11.4335 17.0995 11.3669L16.7995 10.4335C16.7662 10.3002 16.6329 10.2002 16.4662 10.2002H14.8662C14.7995 10.2002 14.7662 10.2002 14.6995 10.2335C14.7995 10.4002 14.8662 10.6002 14.8662 10.8002V12.8335C14.8662 13.2669 14.5995 13.6335 14.1995 13.7669L13.2662 14.1002C13.1995 14.2669 13.1329 14.4335 13.0662 14.5669L13.4995 15.4335C13.6995 15.8335 13.6329 16.2669 13.2995 16.6002L11.8662 18.0335C11.6995 18.2002 11.4995 18.3002 11.2995 18.3335L10.9995 18.9335C10.9329 19.0669 10.9662 19.2002 11.0662 19.3002L12.1995 20.4335C12.2995 20.5335 12.4662 20.5669 12.5995 20.5002L13.4995 20.0669C13.7329 20.2002 13.9995 20.3002 14.2329 20.3669L14.5662 21.3002C14.5995 21.4335 14.7329 21.5335 14.8995 21.5335H16.4995C16.6329 21.5335 16.7662 21.4335 16.8329 21.3002L17.1329 20.3669C17.3995 20.2669 17.6329 20.1669 17.8662 20.0669L18.7662 20.5002C18.8995 20.5669 19.0329 20.5335 19.1662 20.4335L20.2995 19.3002C20.3995 19.2002 20.4329 19.0335 20.3662 18.9335L19.9329 18.0335C20.0662 17.8002 20.1662 17.5335 20.2329 17.3002L21.1662 16.9669C21.2995 16.9335 21.3995 16.8002 21.3995 16.6335V15.0335C21.3329 14.9002 21.2329 14.8002 21.0995 14.7335ZM15.9995 18.1002C14.7662 18.1002 13.7662 17.1002 13.7662 15.8669C13.7662 14.6335 14.7662 13.6335 15.9995 13.6335C17.2329 13.6335 18.2329 14.6335 18.2329 15.8669C18.2329 17.1002 17.2329 18.1002 15.9995 18.1002Z" fill="#101010"/>
</svg>
