<svg width="22" height="22" viewBox="0 0 22 22" fill="none" xmlns="http://www.w3.org/2000/svg">
<path d="M14.8833 5.17773H12.939V1.28906H13.5889C13.9448 1.28906 14.2334 1.00048 14.2334 0.644531C14.2334 0.288578 13.9448 0 13.5889 0H8.41113C8.05518 0 7.7666 0.288578 7.7666 0.644531C7.7666 1.00048 8.05518 1.28906 8.41113 1.28906H9.06103V5.17773H7.1167C6.04755 5.17773 5.17773 6.04755 5.17773 7.1167V17.4722C5.17773 18.3661 5.78604 19.1203 6.61031 19.3436C6.52154 19.5657 6.47217 19.8076 6.47217 20.061C6.47217 21.1302 7.34198 22 8.41113 22C9.48028 22 10.3501 21.1302 10.3501 20.061C10.3501 19.8331 10.3103 19.6144 10.2377 19.4111H11.7623C11.6897 19.6144 11.6499 19.8331 11.6499 20.061C11.6499 21.1302 12.5197 22 13.5888 22C14.658 22 15.5278 21.1302 15.5278 20.061C15.5278 19.8076 15.4784 19.5657 15.3896 19.3436C16.214 19.1203 16.8222 18.3661 16.8222 17.4722V7.1167C16.8223 6.04755 15.9524 5.17773 14.8833 5.17773ZM10.3501 1.28906H11.6499V5.17773H10.3501V1.28906ZM9.06103 20.061C9.06103 20.4194 8.76949 20.7109 8.41113 20.7109C8.05277 20.7109 7.76123 20.4194 7.76123 20.061C7.76123 19.7027 8.05277 19.4111 8.41113 19.4111C8.76949 19.4111 9.06103 19.7027 9.06103 20.061ZM13.5889 20.7109C13.2305 20.7109 12.939 20.4194 12.939 20.061C12.939 19.7027 13.2305 19.4111 13.5889 19.4111C13.9472 19.4111 14.2388 19.7027 14.2388 20.061C14.2388 20.4194 13.9472 20.7109 13.5889 20.7109ZM15.5332 17.4722C15.5332 17.8305 15.2417 18.1221 14.8833 18.1221H7.1167C6.75834 18.1221 6.4668 17.8305 6.4668 17.4722V7.1167C6.4668 6.75834 6.75834 6.4668 7.1167 6.4668H14.8833C15.2417 6.4668 15.5332 6.75834 15.5332 7.1167V17.4722Z" fill="#101010"/>
<path d="M8.41113 7.7666C8.05518 7.7666 7.7666 8.05518 7.7666 8.41113V16.1777C7.7666 16.5337 8.05518 16.8223 8.41113 16.8223C8.76709 16.8223 9.05566 16.5337 9.05566 16.1777V8.41113C9.05566 8.05518 8.76709 7.7666 8.41113 7.7666Z" fill="#101010"/>
<path d="M11 7.7666C10.644 7.7666 10.3555 8.05518 10.3555 8.41113V16.1777C10.3555 16.5337 10.644 16.8223 11 16.8223C11.356 16.8223 11.6445 16.5337 11.6445 16.1777V8.41113C11.6445 8.05518 11.356 7.7666 11 7.7666Z" fill="#101010"/>
<path d="M13.5889 7.7666C13.2329 7.7666 12.9443 8.05518 12.9443 8.41113V16.1777C12.9443 16.5337 13.2329 16.8223 13.5889 16.8223C13.9448 16.8223 14.2334 16.5337 14.2334 16.1777V8.41113C14.2334 8.05518 13.9448 7.7666 13.5889 7.7666Z" fill="#101010"/>
</svg>
