<svg width="15" height="16" viewBox="0 0 15 16" fill="none" xmlns="http://www.w3.org/2000/svg">
<path d="M9.33301 0.5H1.33301C0.781508 0.5 0.333008 0.9485 0.333008 1.5V14.5C0.333008 15.0515 0.781508 15.5 1.33301 15.5H9.33301C9.88451 15.5 10.333 15.0515 10.333 14.5V1.5C10.333 0.9485 9.88451 0.5 9.33301 0.5ZM8.33301 5.5C8.33301 6.0515 7.88451 6.5 7.33301 6.5H3.33301C2.78151 6.5 2.33301 6.0515 2.33301 5.5V3.5C2.33301 2.9485 2.78151 2.5 3.33301 2.5H7.33301C7.88451 2.5 8.33301 2.9485 8.33301 3.5V5.5Z" fill="#101010"/>
<path d="M11.833 6.5H9.83301C9.55701 6.5 9.33301 6.276 9.33301 6C9.33301 5.724 9.55701 5.5 9.83301 5.5H11.833C12.109 5.5 12.333 5.724 12.333 6C12.333 6.276 12.109 6.5 11.833 6.5Z" fill="#101010"/>
<path d="M11.833 14.5C11.557 14.5 11.333 14.276 11.333 14V6C11.333 5.724 11.557 5.5 11.833 5.5C12.109 5.5 12.333 5.724 12.333 6V14C12.333 14.276 12.109 14.5 11.833 14.5Z" fill="#101010"/>
<path d="M13.833 14.5H11.833C11.557 14.5 11.333 14.276 11.333 14C11.333 13.724 11.557 13.5 11.833 13.5H13.833C14.109 13.5 14.333 13.724 14.333 14C14.333 14.276 14.109 14.5 13.833 14.5Z" fill="#101010"/>
<path d="M14.2946 2.80912C14.2691 2.74812 14.2326 2.69263 14.1866 2.64663L12.1866 0.646625C11.9911 0.451125 11.6751 0.451125 11.4796 0.646625C11.2841 0.842125 11.2841 1.15812 11.4796 1.35362L11.8266 1.70063C11.5161 2.06163 11.3331 2.51862 11.3331 3.00012C11.3331 4.10312 12.2301 5.00012 13.3331 5.00012V14.0001C13.3331 14.2761 13.5571 14.5001 13.8331 14.5001C14.1091 14.5001 14.3331 14.2761 14.3331 14.0001V3.00012C14.3331 2.93512 14.3196 2.87012 14.2946 2.80912Z" fill="#101010"/>
</svg>
