<svg width="24" height="16" viewBox="0 0 24 16" fill="none" xmlns="http://www.w3.org/2000/svg">
<path d="M9.53037 3.06348L15.469 9.0026L10.2609 14.2107C9.03316 15.4904 6.82511 15.4902 5.59754 14.2107L5.30805 13.9212L3.31771 15.912L0 12.5943L9.53037 3.06348ZM6.59318 13.2155C7.29604 13.9487 8.56223 13.949 9.26527 13.2155L12.4891 9.99167L8.39491 8.84401L5.30805 11.9309L6.59318 13.2155Z" fill="#101010"/>
<path d="M12.3506 3.89263L16.1553 0.0878906L22.4046 0.0902368V3.32677L17.5263 3.29534L14.6656 6.20765L12.3506 3.89263Z" fill="#101010"/>
<path d="M21.3927 8.4043C22.6412 9.61178 24.0003 11.3502 24.0003 12.6694C24.0003 14.1064 22.8308 15.276 21.3927 15.276C19.9557 15.276 18.7861 14.1064 18.7861 12.6694C18.7861 11.3502 20.1443 9.61173 21.3927 8.4043Z" fill="#101010"/>
</svg>
