<svg width="25" height="18" viewBox="0 0 25 18" fill="none" xmlns="http://www.w3.org/2000/svg">
<path d="M22.187 9.15913L19.5161 8.70509C19.4496 8.66834 19.3763 8.64256 19.2988 8.62897L17.262 5.96159C16.6932 5.21675 15.8806 4.78517 14.9581 4.73258V2.63281C14.9581 2.2445 14.6432 1.92969 14.2549 1.92969H11.7237V1.08594C11.7237 0.697625 11.4089 0.382812 11.0206 0.382812H5.44238C5.05407 0.382812 4.73926 0.697625 4.73926 1.08594V4.727H4.05957C3.17837 4.727 2.42776 5.23536 2.1008 6.05366L0.383211 10.352C0.350023 10.4349 0.333008 10.5235 0.333008 10.6129V14.852C0.333008 15.2404 0.64782 15.5552 1.03613 15.5552H3.20682C3.4651 16.7331 4.51613 17.6176 5.77051 17.6176C7.02488 17.6176 8.07591 16.7331 8.3342 15.5552H16.3319C16.5901 16.7331 17.6412 17.6176 18.8956 17.6176C20.1499 17.6176 21.201 16.7331 21.4592 15.5552H23.6299C24.0182 15.5552 24.333 15.2404 24.333 14.852V11.7008C24.333 10.4395 23.4305 9.37053 22.187 9.15913ZM16.1443 6.81505L17.5208 8.61767H11.6671V6.14839L14.7659 6.13325C15.3351 6.13325 15.7989 6.36261 16.1443 6.81505ZM6.36915 6.14844H10.2609V8.61767H5.51499L6.36915 6.14844ZM13.5518 3.33594V4.727H11.7236V3.33594H13.5518ZM6.14551 1.78906H10.3174V4.727H6.14551V1.78906ZM5.77051 16.2114C5.09846 16.2114 4.55176 15.6647 4.55176 14.9927C4.55176 14.3206 5.09846 13.7739 5.77051 13.7739C6.44255 13.7739 6.98926 14.3206 6.98926 14.9927C6.98926 15.6647 6.44255 16.2114 5.77051 16.2114ZM18.8955 16.2114C18.2235 16.2114 17.6768 15.6647 17.6768 14.9927C17.6768 14.3206 18.2235 13.7739 18.8955 13.7739C19.5676 13.7739 20.1143 14.3206 20.1143 14.9927C20.1143 15.6647 19.5676 16.2114 18.8955 16.2114ZM21.3806 14.1489C21.0283 13.1143 20.0478 12.3676 18.8955 12.3676C17.7432 12.3676 16.7627 13.1143 16.4104 14.1489H8.25559C7.90332 13.1143 6.92279 12.3676 5.77051 12.3676C4.61823 12.3676 3.6377 13.1143 3.28543 14.1489H1.73926V12.0864H1.78609C2.1744 12.0864 2.48921 11.7716 2.48921 11.3833C2.48921 10.995 2.1744 10.6802 1.78609 10.6802H1.7664L3.4066 6.57552C3.51727 6.29862 3.76135 6.13325 4.05957 6.13325H4.8864L3.8633 9.09097C3.78896 9.30589 3.82318 9.54345 3.95509 9.7287C4.08699 9.91391 4.30037 10.0239 4.5278 10.0239H18.8833L21.9513 10.5455C22.3997 10.6217 22.7415 10.9285 22.8703 11.3364H22.8564C22.4681 11.3364 22.1533 11.6512 22.1533 12.0395C22.1533 12.4278 22.4681 12.7426 22.8564 12.7426H22.9268V14.1489H21.3806Z" fill="#101010"/>
</svg>
