<svg width="38" height="38" viewBox="0 0 38 38" fill="none" xmlns="http://www.w3.org/2000/svg">
<g clip-path="url(#clip0_165_19417)">
<path d="M16.8295 10.0071L12.7594 5.93695C12.0062 5.18378 10.7806 5.18378 10.0274 5.93695L8.41681 7.54758C7.66364 8.30075 7.66364 9.52633 8.41681 10.2795L12.4869 14.3496C12.8636 14.7263 13.3582 14.9145 13.8529 14.9145C14.3475 14.9145 14.8423 14.7261 15.2188 14.3496L16.8295 12.7391C17.5826 11.9859 17.5826 10.7603 16.8295 10.0071ZM16.0646 11.9742L14.454 13.5848C14.2934 13.7453 14.0799 13.8338 13.8529 13.8338C13.6258 13.8338 13.4123 13.7453 13.2517 13.5848L9.18164 9.51468C8.85017 9.18322 8.85017 8.64387 9.18164 8.31241L10.7923 6.70185C10.958 6.53612 11.1757 6.45322 11.3934 6.45322C11.6111 6.45322 11.8288 6.53612 11.9945 6.70178L16.0646 10.772C16.2252 10.9326 16.3136 11.146 16.3136 11.3731C16.3136 11.6002 16.2252 11.8136 16.0646 11.9742Z" fill="black"/>
<path d="M11.8972 14.9397L7.82704 10.8696C7.07387 10.1164 5.84836 10.1164 5.09519 10.8696L3.48456 12.4802C2.73138 13.2334 2.73138 14.4589 3.48456 15.2121L7.55466 19.2823C7.93124 19.6589 8.42591 19.8472 8.92058 19.8472C9.41525 19.8472 9.91 19.6589 10.2866 19.2823L11.8972 17.6717C12.6504 16.9185 12.6504 15.6929 11.8972 14.9397ZM11.1324 16.9068L9.52176 18.5174C9.1903 18.8489 8.65095 18.8488 8.31948 18.5174L4.24939 14.4472C4.08885 14.2866 4.00038 14.0732 4.00038 13.8461C4.00038 13.6191 4.08878 13.4056 4.24939 13.245L5.86001 11.6344C6.02574 11.4687 6.24343 11.3858 6.46111 11.3858C6.6788 11.3858 6.89648 11.4687 7.06221 11.6344L11.1324 15.7046C11.4638 16.036 11.4638 16.5754 11.1324 16.9068Z" fill="black"/>
<path d="M36.8903 12.5558L31.7681 7.43362C30.9986 6.66412 29.9342 6.26259 28.8484 6.33139C28.5965 6.34742 28.3493 6.38943 28.1093 6.4537C27.2318 5.78425 26.1707 5.17246 25.009 4.67438C23.2817 3.93375 21.5251 3.52584 20.0624 3.52584C20.0622 3.52584 20.062 3.52584 20.0618 3.52584C19.8598 3.52584 19.6662 3.5343 19.4806 3.54996C19.0502 3.0541 18.4375 2.72086 17.7461 2.65525L12.805 2.18626C11.5376 2.06595 10.2948 2.51319 9.39485 3.41325L4.22483 8.58327C4.0136 8.79443 4.0136 9.13687 4.22483 9.3481C4.43598 9.55925 4.77843 9.55925 4.98965 9.3481L10.1597 4.17807C10.8308 3.50691 11.7578 3.17322 12.7028 3.26303L17.6439 3.73202C18.38 3.80193 18.965 4.38693 19.0349 5.12303L19.2997 7.91322C19.2947 7.90877 19.2897 7.90432 19.2846 7.89979C19.2397 7.85964 19.1953 7.81941 19.152 7.77896C19.1138 7.74348 19.0763 7.70786 19.0395 7.67216C19.0222 7.65531 19.005 7.63854 18.9879 7.62162C18.9359 7.57026 18.8849 7.51882 18.8357 7.46717C18.7926 7.42189 18.7514 7.37684 18.7111 7.33186C18.7015 7.3211 18.6919 7.31042 18.6824 7.29973C18.6443 7.25653 18.6071 7.21349 18.5714 7.17066C18.5634 7.16109 18.5559 7.15159 18.5481 7.14201C18.52 7.1078 18.4928 7.0738 18.4665 7.03989C18.4555 7.02578 18.4444 7.01161 18.4337 6.99758C18.405 6.95988 18.3774 6.92232 18.3508 6.88507C18.3377 6.86659 18.3251 6.84833 18.3125 6.82999C18.3028 6.81582 18.2934 6.80179 18.284 6.78776C18.5928 6.14451 18.4828 5.34895 17.9504 4.81651C17.2765 4.1426 16.1799 4.14252 15.5058 4.81651C14.8318 5.49049 14.8318 6.58708 15.5058 7.26106C15.8428 7.59801 16.2855 7.76649 16.7281 7.76649C16.9987 7.76649 17.2692 7.70274 17.5157 7.57671C17.6706 7.78727 17.8492 7.99969 18.052 8.21277C18.4447 8.62558 18.914 9.0277 19.4416 9.40903L19.5038 10.0641C19.5935 11.009 19.26 11.936 18.5887 12.6072L9.85612 21.3398C9.63265 21.5633 9.33555 21.6863 9.01952 21.6863C8.7035 21.6863 8.4064 21.5633 8.18293 21.3398L1.42699 14.5839C1.20352 14.3604 1.08046 14.0633 1.08046 13.7473C1.08046 13.4313 1.20352 13.1342 1.42699 12.9107L2.49137 11.8463C2.70259 11.6352 2.70259 11.2927 2.49137 11.0815C2.28021 10.8703 1.93777 10.8703 1.72654 11.0815L0.662238 12.1457C-0.220746 13.0287 -0.220746 14.4655 0.662238 15.3486L7.41817 22.1045C7.8459 22.5322 8.41464 22.7679 9.0196 22.7679C9.62456 22.7679 10.1933 22.5323 10.621 22.1045L19.3536 13.3719C20.2083 12.5171 20.6537 11.3531 20.5935 10.1529C21.1267 10.4615 21.697 10.7484 22.2946 11.0046C22.6306 11.1487 22.9677 11.2798 23.3036 11.3982L20.2639 15.3273C19.2246 16.6706 19.2208 18.5262 20.1855 19.8684L17.6894 22.3644C17.4086 22.6453 17.2912 23.0598 17.3832 23.4463C17.3888 23.4701 17.3816 23.4956 17.3643 23.513L15.5631 25.3142C15.4913 25.386 15.4309 25.4681 15.3834 25.5583L14.3693 27.49L12.5492 28.4309C12.3566 28.5305 12.1987 28.6928 12.1044 28.8882L11.3907 30.3683L9.2237 31.7257C8.99622 31.8681 8.8463 32.1025 8.8123 32.3686L8.49754 34.8281C8.46221 35.1042 8.55484 35.3755 8.75167 35.5722C8.92096 35.7415 9.14533 35.8337 9.38045 35.8337C9.41867 35.8337 9.45719 35.8312 9.49586 35.8263L11.9554 35.5116C12.2214 35.4775 12.4557 35.3277 12.5983 35.1003L13.9557 32.9333L15.4357 32.2194C15.631 32.1253 15.7935 31.9672 15.8931 31.7746L16.8339 29.9546L18.7657 28.9404C18.8559 28.8931 18.9381 28.8326 19.0098 28.7608L20.8109 26.9597C20.8285 26.9421 20.8535 26.935 20.8776 26.9408C21.2642 27.0327 21.6787 26.9154 21.9595 26.6345L24.4553 24.1387C25.1124 24.611 25.8921 24.8516 26.675 24.8516C27.4914 24.8516 28.3108 24.5906 28.9965 24.0601L31.8894 21.822C32.1256 21.6392 32.169 21.2996 31.9862 21.0634C31.8035 20.8272 31.4638 20.7837 31.2276 20.9665L28.3347 23.2046C27.2728 24.0261 25.7636 23.9432 24.797 23.0198C24.7962 23.0191 24.7955 23.0182 24.7948 23.0175L24.773 22.9969C24.766 22.9903 24.7589 22.9838 24.752 22.9769L21.3472 19.572C21.3404 19.5652 21.3339 19.5583 21.3274 19.5514L21.3061 19.5289C21.3055 19.5283 21.3049 19.5278 21.3043 19.5272C20.3809 18.5607 20.2978 17.0512 21.1195 15.9892L24.4065 11.7404C25.4095 12.0098 26.3768 12.1533 27.2411 12.1533C27.2413 12.1533 27.2416 12.1533 27.2417 12.1533C27.4987 12.1533 27.7428 12.1404 27.9733 12.1151L32.2903 16.4322C32.6032 16.745 33.0142 16.9014 33.4251 16.9014C33.8361 16.9014 34.247 16.745 34.5599 16.4322C35.1857 15.8064 35.1857 14.7884 34.5599 14.1626L30.1614 9.7641C29.8583 9.46099 29.4553 9.29407 29.0266 9.29407C28.5979 9.29407 28.1949 9.46099 27.8918 9.7641C27.5887 10.0672 27.4217 10.4702 27.4217 10.8989C27.4217 10.956 27.4251 11.0125 27.431 11.0686C27.3688 11.0704 27.3059 11.0717 27.2416 11.0717C27.2413 11.0717 27.2413 11.0717 27.241 11.0717C26.5941 11.0717 25.878 10.9805 25.1282 10.8075L26.9471 8.45636C27.423 7.8413 28.1409 7.46026 28.9169 7.41098C29.6931 7.3614 30.4534 7.64871 31.0032 8.19852L36.1254 13.3207C36.6752 13.8706 36.9623 14.6309 36.9129 15.407C36.8636 16.183 36.4826 16.901 35.8675 17.3767L34.1199 18.7288C33.8836 18.9116 33.8403 19.2512 34.023 19.4875C34.2058 19.7236 34.5454 19.767 34.7817 19.5843L36.5293 18.2323C37.3901 17.5664 37.9232 16.5616 37.9923 15.4756C38.0615 14.3894 37.6598 13.3253 36.8903 12.5558ZM16.7281 6.68556C16.5554 6.68556 16.3929 6.61825 16.2707 6.49608C16.1485 6.37385 16.0812 6.21138 16.0812 6.0386C16.0812 5.86582 16.1485 5.70335 16.2707 5.58119C16.3929 5.45902 16.5554 5.3917 16.7281 5.3917C16.755 5.3917 16.7815 5.39393 16.8078 5.39712C16.7469 5.78365 16.8056 6.20054 16.979 6.63517C16.9006 6.66812 16.8157 6.68556 16.7281 6.68556ZM20.9145 20.669L23.6549 23.4093L21.1946 25.8696C21.1773 25.8868 21.1516 25.894 21.1279 25.8884C20.7415 25.7965 20.3269 25.9138 20.046 26.1947L18.2527 27.9881L16.3105 29.0078C16.1267 29.1042 15.9791 29.2527 15.8836 29.4373L14.9435 31.256L13.4665 31.9684C13.2952 32.051 13.1513 32.1798 13.0503 32.3411L11.7291 34.4502L9.60148 34.7225L9.87379 32.5949L11.9828 31.2738C12.144 31.1729 12.2729 31.029 12.3556 30.8576L13.068 29.3806L14.8867 28.4404C15.071 28.3451 15.2196 28.1975 15.3161 28.0137L16.3359 26.0712L18.1291 24.278C18.41 23.9972 18.5274 23.5826 18.4355 23.1961C18.4297 23.1719 18.4368 23.147 18.4543 23.1295L20.9145 20.669ZM30.0683 11.2005L33.795 14.9273C33.9991 15.1313 33.9991 15.4632 33.795 15.6672C33.6962 15.766 33.5648 15.8204 33.425 15.8204C33.2853 15.8204 33.1539 15.766 33.0551 15.6672L29.1995 11.8116C29.5578 11.6574 29.8501 11.4527 30.0683 11.2005ZM28.6566 10.5288C28.7555 10.43 28.8868 10.3756 29.0266 10.3756C29.1192 10.3756 29.2078 10.3999 29.286 10.4448C29.1337 10.6472 28.8656 10.8068 28.5041 10.9141C28.504 10.909 28.5034 10.904 28.5034 10.8988C28.5034 10.759 28.5578 10.6276 28.6566 10.5288ZM26.0917 7.79432L24.0035 10.4934C23.579 10.3553 23.1496 10.1944 22.7207 10.0105C21.9022 9.65952 21.1412 9.25072 20.4709 8.80689L20.1116 5.02068C20.0981 4.87937 20.073 4.74155 20.0382 4.60758C20.0461 4.60758 20.0538 4.60728 20.0618 4.60728C20.0621 4.60728 20.0621 4.60728 20.0624 4.60728C21.3817 4.60728 22.9871 4.98409 24.5827 5.66832C25.4599 6.04446 26.2714 6.48695 26.9756 6.96782C26.6421 7.19196 26.3428 7.46976 26.0917 7.79432Z" fill="black"/>
</g>
<defs>
<clipPath id="clip0_165_19417">
<rect width="38" height="38" fill="white"/>
</clipPath>
</defs>
</svg>
