<svg width="38" height="38" viewBox="0 0 38 38" fill="none" xmlns="http://www.w3.org/2000/svg">
<path d="M27.8232 28.6895H3.56253C2.52941 28.6895 1.57347 28.2145 0.950034 27.3832C0.516597 26.8132 0.285034 26.1304 0.285034 25.412V23.227C0.285034 22.271 0.534409 21.3329 1.00347 20.5076C1.47253 19.6882 2.15535 18.9995 2.98066 18.5126C3.6991 18.097 4.2691 17.4795 4.63722 16.7373L5.04097 15.9476C5.04691 15.9298 5.05285 15.9179 5.05878 15.9001L6.85191 12.3079C7.70691 10.5979 9.42285 9.54102 11.3288 9.54102H16.0372C16.3638 9.54102 16.631 9.8082 16.631 10.1348C16.631 10.4613 16.3638 10.7285 16.0372 10.7285H11.3288C9.8741 10.7285 8.56191 11.536 7.90878 12.8423L6.13941 16.3929C6.13347 16.4107 6.1216 16.4285 6.11566 16.4463L5.6941 17.2716C5.2191 18.2216 4.48878 19.0054 3.57441 19.5398C2.93316 19.9198 2.39285 20.4601 2.02472 21.1013C1.6566 21.7426 1.46066 22.4788 1.46066 23.227V25.412C1.46066 25.8691 1.6091 26.3026 1.88222 26.6648C2.28003 27.1991 2.8916 27.502 3.55066 27.502H27.8113C28.4644 27.502 29.07 27.2051 29.4619 26.6826C29.6994 26.3738 29.8478 26.0235 29.8835 25.6554C29.9191 25.3288 30.216 25.0913 30.5366 25.127C30.8632 25.1626 31.1007 25.4535 31.065 25.7801C30.9997 26.3679 30.7741 26.932 30.4 27.407C29.8003 28.2204 28.8503 28.6895 27.8232 28.6895Z" fill="#101010"/>
<path d="M4.40555 33.4994H3.61586C2.08399 33.4994 0.831177 32.2525 0.831177 30.7147V27.0156C0.831177 26.6891 1.09836 26.4219 1.42493 26.4219C1.75149 26.4219 2.01868 26.6891 2.01868 27.0156V30.7147C2.01868 31.5934 2.73711 32.3119 3.61586 32.3119H4.40555C5.27836 32.3119 5.99086 31.5934 5.99086 30.7147V28.1022C5.99086 27.7756 6.25805 27.5084 6.58461 27.5084C6.91118 27.5084 7.17836 27.7756 7.17836 28.1022V30.7147C7.17836 32.2525 5.93743 33.4994 4.40555 33.4994Z" fill="#101010"/>
<path d="M27.7755 33.4992H26.9859C25.454 33.4992 24.2012 32.2523 24.2012 30.7145V28.102C24.2012 27.7755 24.4684 27.5083 24.7949 27.5083C25.1215 27.5083 25.3887 27.7755 25.3887 28.102V30.7145C25.3887 31.5933 26.1071 32.3117 26.9859 32.3117H27.7755C28.6484 32.3117 29.3609 31.5933 29.3609 30.7145V27.0273C29.3609 26.7008 29.628 26.4336 29.9546 26.4336C30.2812 26.4336 30.5484 26.7008 30.5484 27.0273V30.7145C30.5484 32.2523 29.3015 33.4992 27.7755 33.4992Z" fill="#101010"/>
<path d="M16.1084 17.7941H7.46336C7.26149 17.7941 7.07149 17.6932 6.96461 17.521C6.85774 17.3488 6.83993 17.1351 6.92305 16.951L8.64493 13.1926C9.16743 12.207 10.1531 11.6191 11.2337 11.6191H15.4256C15.7521 11.6191 16.0193 11.8863 16.0193 12.2129C16.0193 12.5395 15.7521 12.8066 15.4256 12.8066H11.2337C10.5924 12.8066 10.0106 13.157 9.70774 13.721L8.38962 16.6066H16.1084C16.4349 16.6066 16.7021 16.8738 16.7021 17.2004C16.7021 17.527 16.4409 17.7941 16.1084 17.7941Z" fill="#101010"/>
<path d="M6.35308 25.6257C5.0112 25.6257 3.9187 24.5332 3.9187 23.1854C3.9187 21.8375 5.0112 20.751 6.35308 20.751C7.69495 20.751 8.79339 21.8435 8.79339 23.1854C8.79339 24.5272 7.70089 25.6257 6.35308 25.6257ZM6.35308 21.9385C5.66433 21.9385 5.1062 22.4966 5.1062 23.1854C5.1062 23.8741 5.66433 24.4382 6.35308 24.4382C7.04183 24.4382 7.60589 23.88 7.60589 23.1854C7.60589 22.5025 7.04776 21.9385 6.35308 21.9385Z" fill="#101010"/>
<path d="M25.0443 25.6254C23.6965 25.6254 22.604 24.5329 22.604 23.1851C22.604 22.6686 22.7762 22.1579 23.0849 21.7423C23.2809 21.4811 23.6549 21.4276 23.9162 21.6235C24.1774 21.8195 24.2309 22.1936 24.0349 22.4548C23.8806 22.6686 23.7915 22.9239 23.7915 23.1851C23.7915 23.8739 24.3556 24.4379 25.0443 24.4379C25.7331 24.4379 26.2912 23.8739 26.2912 23.1851C26.2912 22.8111 26.1249 22.4548 25.834 22.2232C25.5787 22.0154 25.5431 21.6414 25.7509 21.3861C25.9587 21.1307 26.3328 21.0951 26.5881 21.3029C27.1581 21.7661 27.4846 22.4548 27.4846 23.1911C27.4787 24.5329 26.3862 25.6254 25.0443 25.6254Z" fill="#101010"/>
<path d="M19.2256 26.5875H12.16C10.9012 26.5875 9.87402 25.5603 9.87402 24.3016C9.87402 23.0428 10.9012 22.0156 12.16 22.0156H19.2256C20.4843 22.0156 21.5115 23.0428 21.5115 24.3016C21.5115 25.5603 20.4843 26.5875 19.2256 26.5875ZM12.16 23.2091C11.5543 23.2091 11.0615 23.7019 11.0615 24.3075C11.0615 24.9131 11.5543 25.4059 12.16 25.4059H19.2256C19.8312 25.4059 20.324 24.9131 20.324 24.3075C20.324 23.7019 19.8312 23.2091 19.2256 23.2091H12.16Z" fill="#101010"/>
<path d="M5.29029 17.367H2.48186C1.25873 17.367 0.26123 16.3695 0.26123 15.1464C0.26123 14.5527 0.492793 13.9945 0.908418 13.5789C1.32998 13.1573 1.88811 12.9258 2.47592 12.9258H3.35467C4.23342 12.9258 5.02904 13.4423 5.39123 14.2498L6.13342 15.9361C6.25811 16.2211 6.14529 16.5477 5.87811 16.6961C5.88404 16.7198 5.88404 16.7495 5.88404 16.7733C5.88404 17.0998 5.62279 17.367 5.29029 17.367ZM2.48186 14.1133C2.20873 14.1133 1.94748 14.2202 1.75154 14.4161C1.55561 14.612 1.44873 14.8673 1.44873 15.1464C1.44873 15.7164 1.91186 16.1795 2.48186 16.1795H4.94592L4.30467 14.7308C4.13842 14.3567 3.76436 14.1133 3.35467 14.1133H2.48186Z" fill="#101010"/>
<path d="M23.8331 22.6986C23.4056 22.6986 22.9781 22.6689 22.5506 22.6096C20.1459 22.2711 18.0143 21.0183 16.5478 19.0768C13.5256 15.0689 14.3272 9.35114 18.329 6.33489C22.3368 3.3127 28.0547 4.11426 31.0709 8.11614C34.0931 12.1239 33.2915 17.8418 29.2897 20.858C27.6984 22.0693 25.7984 22.6986 23.8331 22.6986ZM23.8034 5.6877C22.1468 5.6877 20.4725 6.20426 19.0475 7.27895C15.5622 9.90926 14.8675 14.8789 17.4978 18.3583C18.7684 20.0446 20.6268 21.1371 22.7168 21.428C24.8128 21.7189 26.8909 21.1786 28.5772 19.908C32.0625 17.2777 32.7572 12.308 30.1268 8.82864C28.5772 6.77426 26.2022 5.6877 23.8034 5.6877Z" fill="#101010"/>
<path d="M23.8272 20.229C23.5184 20.229 23.2038 20.2052 22.895 20.1637C21.1434 19.9202 19.5878 19.0058 18.525 17.5927C16.3222 14.6715 16.91 10.5093 19.8253 8.3124C22.7406 6.10959 26.9028 6.69147 29.1056 9.61272C31.3084 12.528 30.7206 16.6902 27.8053 18.893C26.6416 19.7658 25.2581 20.229 23.8272 20.229ZM23.8094 8.16397C22.6694 8.16397 21.5175 8.52022 20.5438 9.25647C18.1509 11.0615 17.67 14.4815 19.475 16.8743C20.3478 18.0321 21.6244 18.7862 23.0613 18.988C24.5041 19.1899 25.9291 18.8158 27.0928 17.943C29.4856 16.138 29.9666 12.718 28.1616 10.3252C27.0869 8.91209 25.4541 8.16397 23.8094 8.16397Z" fill="#101010"/>
<path d="M34.5444 31.0761C34.0575 31.0761 33.5707 30.8564 33.256 30.4349L30.1566 26.3321C29.6222 25.6196 29.7647 24.6043 30.4713 24.0699L32.0507 22.8764C32.7632 22.3421 33.7725 22.4846 34.3128 23.1911L37.4122 27.2939C37.9466 28.0064 37.8041 29.0158 37.0975 29.5561L35.5122 30.7496C35.2213 30.9693 34.8828 31.0761 34.5444 31.0761ZM33.0244 23.7374C32.9353 23.7374 32.8463 23.7671 32.7691 23.8205L31.1838 25.0139C30.9938 25.1564 30.9582 25.4236 31.1007 25.6136L34.1941 29.7164C34.3366 29.9064 34.6038 29.9421 34.7938 29.7996L36.3732 28.6061C36.5632 28.4636 36.5988 28.1964 36.4563 28.0064L33.3628 23.9036C33.2916 23.8146 33.1966 23.7552 33.0838 23.7374C33.066 23.7374 33.0422 23.7374 33.0244 23.7374Z" fill="#101010"/>
<path d="M30.8096 25.157C30.6315 25.157 30.4534 25.0739 30.3346 24.9195L27.6093 21.3095C27.4134 21.0483 27.4668 20.6742 27.7281 20.4783C27.9893 20.2823 28.3634 20.3298 28.5593 20.597L31.2846 24.207C31.4806 24.4683 31.4271 24.8423 31.1659 25.0383C31.059 25.1155 30.9343 25.157 30.8096 25.157Z" fill="#101010"/>
<path d="M32.4366 23.9275C32.2585 23.9275 32.0803 23.8444 31.9616 23.69L29.2363 20.08C29.0403 19.8188 29.0938 19.4447 29.355 19.2488C29.6163 19.0528 29.9903 19.1003 30.1863 19.3675L32.9116 22.9775C33.1075 23.2388 33.0541 23.6128 32.7928 23.8088C32.686 23.8919 32.5553 23.9275 32.4366 23.9275Z" fill="#101010"/>
</svg>
