<svg width="48" height="48" viewBox="0 0 48 48" fill="none" xmlns="http://www.w3.org/2000/svg">
<path d="M8.92786 37.0566C8.73586 37.1526 8.54386 37.1526 8.25586 37.1526C8.44786 37.1526 8.73586 37.1526 8.92786 37.0566Z" fill="#70F46D"/>
<path d="M11.4239 13.2483C11.3279 13.1523 11.3279 12.9603 11.2319 12.8643C11.3279 12.9603 11.4239 13.0563 11.4239 13.2483Z" fill="#70F46D"/>
<path d="M39.2639 37.1523H39.6479C39.5519 37.1523 39.4559 37.1523 39.2639 37.1523ZM11.2319 12.8643C11.3279 12.9603 11.3279 13.1523 11.4239 13.2483C11.4239 13.0563 11.3279 12.9603 11.2319 12.8643Z" fill="#70F46D"/>
<path d="M42.8159 12.4801C42.1439 11.4241 40.8959 10.8481 39.7439 10.8481C35.9999 6.33605 30.3359 3.45605 23.9999 3.45605C17.6639 3.45605 11.9999 6.33605 8.25592 10.8481C7.00792 10.8481 5.85592 11.4241 5.18392 12.4801C3.07192 15.9361 1.91992 19.9681 1.91992 24.0001C1.91992 28.0321 3.07192 32.0641 5.18392 35.5201C5.85592 36.5761 7.00792 37.1521 8.06392 37.1521H8.15992C10.9439 40.4161 14.5919 42.8161 18.9119 43.8721C20.5439 44.2561 22.1759 44.4481 23.9039 44.4481C25.6319 44.4481 27.2639 44.2561 28.8959 43.8721C33.1199 42.8161 36.8639 40.4161 39.6479 37.1521H39.8399C40.9919 37.1521 42.1439 36.5761 42.7199 35.5201C44.9279 32.0641 45.9839 28.0321 45.9839 24.0001C46.0799 19.9681 44.9279 15.9361 42.8159 12.4801ZM11.0399 16.1281C11.6159 15.2641 11.7119 14.2081 11.4239 13.2481C11.4239 13.1521 11.3279 12.9601 11.2319 12.8641C11.3279 12.9601 11.3279 13.1521 11.4239 13.2481C14.4959 9.69605 19.0079 7.48805 23.9999 7.48805C29.0879 7.48805 33.5039 9.69605 36.5759 13.2481C36.2879 14.2081 36.3839 15.2641 36.9599 16.1281C37.9199 17.6641 38.5919 19.2961 38.8799 21.0241C34.3679 19.0081 29.2799 17.8561 23.9999 17.8561C18.7199 17.8561 13.6319 19.0081 9.11992 21.0241C9.50392 19.2961 10.0799 17.5681 11.0399 16.1281ZM21.0239 40.3201C16.9919 39.5521 14.1119 37.7281 11.4239 34.7521C11.7119 33.7921 11.6159 32.7361 11.0399 31.8721C9.98392 30.2401 9.31192 28.3201 9.02392 26.4961C9.11992 26.4961 9.31192 26.4001 9.40792 26.4001H9.50392C9.69592 26.4001 9.88792 26.3041 10.1759 26.3041H11.0399C16.8959 26.3041 21.6959 31.0081 21.6959 36.8641C21.5999 38.1121 21.4079 39.2641 21.0239 40.3201ZM23.9999 28.0321C22.1759 28.0321 20.7359 26.5921 20.7359 24.7681C20.7359 22.9441 22.1759 21.5041 23.9999 21.5041C25.8239 21.5041 27.2639 22.9441 27.2639 24.7681C27.2639 26.5921 25.8239 28.0321 23.9999 28.0321ZM36.9599 31.9681C36.3839 32.8321 36.2879 33.8881 36.5759 34.8481C34.1759 37.6321 30.7199 39.6481 26.8799 40.3201C26.4959 39.2641 26.3039 38.1121 26.3039 36.9601C26.3039 31.1041 31.0079 26.4001 36.8639 26.4001C37.5359 26.4001 38.2079 26.4961 38.8799 26.5921C38.6879 28.4161 37.9199 30.2401 36.9599 31.9681Z" fill="#70F46D"/>
</svg>
