<?xml version="1.0" encoding="UTF-8"?>
<svg id="Layer_1" xmlns="http://www.w3.org/2000/svg" xmlns:xlink="http://www.w3.org/1999/xlink" version="1.1" viewBox="0 0 48 48">
  <!-- Generator: Adobe Illustrator 29.5.1, SVG Export Plug-In . SVG Version: 2.1.0 Build 141)  -->
  <defs>
    <style>
      .st0, .st1, .st2 {
        fill: #70f46d;
      }

      .st1 {
        fill-rule: evenodd;
      }

      .st3 {
        clip-path: url(#clippath-1);
      }

      .st2 {
        clip-rule: evenodd;
      }

      .st4 {
        clip-path: url(#clippath);
      }
    </style>
    <clipPath id="clippath">
      <path class="st2" d="M33.8,44.3l1.2-1.2-1.1-5.2-4-3.6-.7-3.3s.6-.6.9-1.6c.2-1.1.1-2,.1-2,0,0,1.5-.3,1.9-.3.3,0,.7.1.7.1,0,0,2,3.6,5,4.5,3,.9,4.7.3,4.7.3l2-1.4s-1.5.5-4-1.6-3.9-3.9-6.1-4c-2.2-.2-3,.4-3,.4l-1.6,1.1s-1.1-1.6-3.5-1.6c-2.3,0-3.5,0-3.5,0,0,0-2.4-.5-3.4-.9-.9-.4-1.2-.9-1.2-.9l1.9-1.7s-1.5-2.8-1.6-2.9c-.1,0-1.5-1.6-1.5-1.6l2.6-5.3s2,.7,2.7,1.1c.7.5,1.4,1,1.4,1,0,0-2.5,3.3-2.6,3.3,0,0,2.4,3.1,5.3,3.5,2.8.4,5-.8,5.1-.8,0,0,1.4-.9,1.4-.9,0,0-3.2-1.3-5.3-3.1-2.1-1.8-2.6-3.7-2.6-3.7l2.8-3.5s-.5-1.3-2.1-1.9c-1.6-.6-3.4-1-3.4-1l.6-1.2-1.3-.6-5.4,12.2s-1.8-1.3-3.1-1.5c-1.3-.3-3-.4-3-.4h-.5c0,0-1.6-.2-1.6-.2l.2.6-3.6,2.2,2.4.9v1.4c.1,0-.7,1.5-.7,1.5v1.3c0,0,.6,0,1,0,.4,0,.6,0,.6,0,0,0,.5-.8,1.1-1.2.6-.4,1.3-.7,1.3-.7,0,0,.5,1.4.3,2.6-.2,1.1-.4,2.6-.4,2.6,0,0-.5,1.4-.4,2.6,0,1.2.4,2,.4,2s-3.7,1.7-3.7,1.7l.2,5.9s-3.1,7.2-3.1,7.2,1.4,0,1.4,0c0,0,3.2-6.8,3.2-6.8,0,0,.9.1,1.7-.2.8-.4,1.2-1,1.2-1l-2-1.3.7-1.7s1.5.4,2.3.1c.9-.2,2.1-.6,2.1-.6l.6,1,.6,9.1s-1.1.2-1.4.5c-.4.3-.8.9-.8.9h2.7s1.2-1.1,1.2-1.1v-6.2s1.5-1.7,1.8-2.6c.3-.9.6-1.6.6-1.6l4.2-.8s.9,2.3,1.8,2.7c1,.5,1.4.7,1.4.7l1.7,2.2-1.8,3.3s2.1,2.6,2.7,2.7c.7.1.2-1.9.2-1.9l-1.5-.9,2.2-3.1s1.2.4,1.2.4,2.3,4.6,2.3,4.6c0,0-1.2.2-1.2.3,0,.1-.5,1.4-.5,1.4h1.9Z"/>
    </clipPath>
    <clipPath id="clippath-1">
      <path class="st0" d="M24.6,26.1c-.6.6-1,1.4-1,2.3s.4,1.7,1,2.3c.6.6,1.4.9,2.3.9s1.7-.4,2.3-.9c.6-.6,1-1.4,1-2.3s-.4-1.7-1-2.3c-.6-.6-1.4-.9-2.3-.9s-1.7.4-2.3.9h0ZM25.1,28.4c0,.5.2.9.5,1.3.3.3.8.5,1.3.5s1-.2,1.3-.5c.3-.3.5-.8.5-1.3s-.2-.9-.5-1.3c-.3-.3-.8-.5-1.3-.5s-1,.2-1.3.5c-.3.3-.5.8-.5,1.3ZM28.4,26.9c.4.4.7.9.7,1.5s-.2,1.1-.7,1.5c-.4.4-1,.6-1.6.6s-1.2-.2-1.6-.6c-.4-.4-.7-.9-.7-1.5s.2-1.1.7-1.5c.4-.4,1-.6,1.6-.6s1.2.2,1.6.6ZM12.9,27.4c0,.6.2,1.1.6,1.5.4.4.9.6,1.5.6s1.1-.2,1.5-.6c.4-.4.6-.9.6-1.5s-.2-1.1-.6-1.5c-.4-.4-.9-.6-1.5-.6s-1.1.2-1.5.6c-.4.4-.6.9-.6,1.5ZM16.9,25.6c.5.5.8,1.1.8,1.8s-.3,1.3-.8,1.8c-.5.5-1.1.7-1.8.7s-1.3-.3-1.8-.7c-.5-.5-.8-1.1-.8-1.8s.3-1.3.8-1.8c.5-.5,1.1-.7,1.8-.7s1.3.3,1.8.7ZM17.6,24.9c-.7-.6-1.5-1-2.5-1s-1.9.4-2.5,1c-.6.6-1.1,1.5-1.1,2.5s.4,1.9,1.1,2.5c.7.6,1.5,1,2.5,1s1.9-.4,2.5-1c.6-.6,1.1-1.5,1.1-2.5s0-.7-.1-1c0,0,0-.1,0-.2-.2-.5-.5-1-.9-1.3ZM16.4,33c-.2.6-.5,1.1-.9,1.6l1.3,2.2c.7-.7,3.1-3.6,2.1-8.6-.2.8-.5,1.4-1.1,1.9-.4.4-.8.6-1.3.8,0,.7,0,1.3-.3,2ZM15.3,34.3c.3-.4.6-.9.7-1.3.2-.6.2-1.2.2-1.7-.4.1-.8.2-1.2.2-.7,0-1.3-.2-1.8-.4l2,3.4ZM15.4,42.8v.2s-.2,0-.2,0c-1,0-1.6.7-1.9,1.1h2.2s1.1-1.1,1.1-1.1v-5.8s-1.7-2.8-1.7-2.8l.5,8.4ZM24.3,30.9c-.4-.4-.6-.8-.8-1.3,0,2.2.7,6,6.6,6.1l-.3-1.3c-.9-.1-1.6-.4-2.2-.8-.7-.5-1.2-1.1-1.5-1.7-.7-.2-1.3-.5-1.8-1ZM26.9,32c-.1,0-.2,0-.3,0,.3.5.7.9,1.3,1.3.5.3,1.1.6,1.9.7l-.7-2.7c-.6.4-1.3.7-2.2.7ZM27,35.7c.6.6,1.4,1.5,1.4,1.8,0,.4-1.4,2.8-1.7,3.3.3.5.7,1,1.1,1.4.8.7,1.4,1.1,1.4,1.1,0,0,0-1.6,0-1.6-.3-.1-1.4-.6-1.5-.9h0c0-.3,2.2-3.3,2.6-3.8l-.2-1c-1.2,0-2.3-.2-3.1-.4ZM23.3,31.9c-.3-1.3-.2-2.6-.2-3.2l-3.6.3c.2,1.3,0,2.5-.1,3.6l3.9-.6ZM8.6,17.8c.2-.2.3-.3.3-.3,0-.1,0-.3,0-.5-.3.3-.8.6-.8.7v.6c.2-.1.3-.3.4-.4ZM10,19.5c3.1-3.9-.7-5.2-2-5.5l.9,1.6h0c0,.1-.1.2-.1.2l-1.8,1.7c0,.2,0,1,0,1.2s-.4.8-.7,1.2c-.2.2-.3.4-.3.4v1.1c.4.1.9,0,1.2,0-.3-.3-.7-1-.3-1.8.4-.8.7-1.2.8-1.3v-.9c0-.2,1.3-1.2,1.3-1.2l.3-.3v.4s0,.8-.2,1.1c0,0-.2.3-.4.4-.2.2-.5.5-.8.8,0,.1-.3.5-.7,1.2-.3.6,0,1.1.3,1.3.5-1,2.1-1.7,2.4-1.9ZM3.6,44.1h1.1s4.7-10.7,4.7-10.7c-.3,0-.6-.2-.9-.3l-4.9,11ZM31.6,37.9c.5,0,1.2,0,1.9-.1l-3.2-2.9.2,1h0s0,0,0,0v.2c0,0,0,0,0,0l.2,1h0c0,0,0,.2,0,.2,0,0-.1.1-.3.4.3.1.7.2,1.1.3ZM33.7,42.6v.3c.1,0-.2,0-.2,0-.9,0-1.3.8-1.4,1.2h1.6s1.1-1.1,1.1-1.1l-1.1-4.9c-.8.2-1.5.2-2,.2l2,4.3ZM9.5,37.1c.4-.2.7-.4,1.1-.8l-1.5-1-.9,2c.4,0,.9,0,1.3-.2ZM6.7,36.3l1.5-3.4c-.6-.3-1.2-.7-1.8-1.3l.3,4.7ZM18.9,26.3h0s0,0,0,0c.3.8.4,1.6.5,2.3l3.7-.3s0,0,0,0c0-.9.5-1.7,1.1-2.3.5-.5,1.2-.8,1.9-1-.6,0-1.3,0-2.1,0h0s0,0,0,0c-1.4.1-3,.5-5,1.4ZM8.5,15.7l-.5-1-3.2,1.8,2.1.8,1.7-1.6ZM11.4,15.7c.6.2,2.5,1,4.2,2.8,1,1,1.9,2.3,2.5,4.1.5-.5,1.4-1.2,1.7-1.4-.4-1-3.4-7.1-10.1-7,.7.3,1.4.8,1.8,1.6ZM22.4,4.4l-.8-.4-5.3,11.9c.3.2.5.4.7.6l5.4-12.1ZM30.5,28.4c0,1-.4,1.9-1.1,2.5,0,0,0,0,0,0l.8,3.2,3.9,3.6h0c0,0,0,.3,0,.3l1.1,5h0c0,.1,0,.2,0,.2l-1.2,1.2h0c0,0,0,0,0,0h-2s-.2,0-.2,0v-.2s.2-1.6,1.6-1.8l-2-4.3c-.4,0-.8-.2-1-.3-.8,1-2.1,2.7-2,2.8,0,.2,1.3.6,1.3.6h.1s0,.2,0,.2c0,0,0,2.3,0,2.3-.1,0-1.3-.6-2.1-1.4-.5-.5-.9-1-1.2-1.7h0c0,0,0-.2,0-.2,0,0,1.8-2.8,1.7-3.1,0-.3-1.6-1.9-1.9-2.2-1.5-.7-2.3-1.9-2.7-3.1l-4.1.7c-.6,2.5-2,4-2.3,4.3v5.9s0,0,0,0h0c0,0-1.2,1.3-1.2,1.3h0c0,0,0,0,0,0h-2.7s-.3,0-.3,0l.2-.3s.8-1.4,2.3-1.6l-.5-9-.4-.6c-.5.2-2.2.9-4.2.5l-.6,1.5,1.8,1.2h.2c0,.1-.1.3-.1.3-.4.5-.9.9-1.4,1.1-.6.2-1.1.3-1.6.2l-2.9,6.6h0c0,.1-.1.1-.1.1h-1.6s-.3,0-.3,0v-.3c.1,0,3.3-7.1,3.3-7.1l-.4-5.9v-.2s.1,0,.1,0l3.6-1.6c-.2-.6-.4-1.3-.4-2s0-1.2.3-1.7c0-.2,1-4.3.4-5.7-.5.3-1.8,1-2.1,1.8h0c0,0,0,.1,0,.1,0,0-1.1.4-1.9,0h-.1v-1.4c0-.1.2-.3.4-.6.3-.4.6-.8.6-1,0-.3,0-.9,0-1.1l-2.5-1-.4-.2.4-.2,3.6-2.1-.3-.5-.2-.3h.4c0,0,.5.1,1.1.3,3-.3,5.4.6,7.1,1.8l5.4-12v-.2c0,0,.3,0,.3,0l1.2.5h.2c0,0,0,.3,0,.3l-.4,1c.8,0,2.1.3,3.3,1,.9.5,1.7,1.1,2.2,2.1h0c0,.1,0,.2,0,.2l-2.7,3.4c1.6,4.3,7.8,6.3,7.9,6.3h.4c0,.1-.4.4-.4.4-8,5-12-1.9-12-1.9h0c0-.1,0-.2,0-.2l2.4-3c-.5-.4-1.2-.8-2-1.2-.6-.3-1.2-.5-1.8-.6l-2.3,5.1c2.1,2,3,4.3,3,4.3h0c0,.1-.1.2-.1.2,0,0-1.1.9-1.7,1.5,0,0,.2.1.3.2,2.5,1.6,5.2,1.4,5.2,1.4h0c3.4-.3,5,1,5,1,.2.1.3.2.5.4,0,0,.2.2.3.3.6-.6,1.5-1.2,2.5-1.5,1.2-.3,2.6-.3,4.1.6,1.6,1,2.7,2,3.6,2.8,1.4,1.3,2.4,2.3,4.6,2h.4c0,0-.3.3-.3.3,0,0-2.3,3.4-7.5,1.2-2.7-1.2-3.8-2.9-4.6-4.4-.2,0-.4,0-.6,0-.7,0-1.3,0-1.6.2,0,.3.1.6.1.9ZM30.3,27.1c.4-.2,1.1-.2,1.7-.2.1,0,.2,0,.4,0h0c-.3-.6-.6-1.1-.9-1.4-.6.3-1.1.7-1.5,1.1.1.2.2.4.3.6ZM10.4,19.8c.4,1,.2,3.1,0,4.5.2-.3.4-.6.7-.9.7-.7,1.5-1.1,2.4-1.4-.2-.6-.5-1.4-1-2.1-.3-.5-.8-1-1.3-1.3-.2.4-.5.8-.8,1.2ZM15.1,21.8c.7,0,1.3.1,1.9.3.2,0,.4.2.6.3-.6-1.5-1.4-2.7-2.3-3.6-1.4-1.5-3-2.3-3.7-2.6.1.6,0,1.2-.3,2,.6.4,1.1.9,1.5,1.5.5.8.9,1.6,1,2.2.4,0,.8-.1,1.2-.1ZM6.5,31.2c2.6,2.7,5.7,2.1,7,1.6-1-.3-1.9-.8-2.5-1.5-.4.2-1.1.3-1.8.2-.5,0-1.1-.3-1.6-.7l-1,.4ZM9.8,29.7l-1.9.8c.4.3.9.5,1.3.5.6,0,1.1,0,1.5-.1-.3-.4-.6-.8-.8-1.2ZM27.4,8.5c-.5-.8-1.2-1.4-1.9-1.8-1.2-.6-2.5-.9-3.2-.9l-.8,1.8c.7.2,1.5.5,2.2.9.8.5,1.5,1.1,2.2,2l1.6-2ZM19.7,11.3c.6.1,1.3.4,1.8.7.8.4,1.5.9,2,1.3l2-2.5c-.6-.9-1.4-1.5-2.1-2-.7-.4-1.5-.7-2.2-.9l-1.5,3.4ZM21.4,16.7c.5.7,3.1,4.4,8,3.2-.9-.3-2.2-.8-3.5-1.7-1.1-.8-2.1-1.8-3.1-3.2l-1.4,1.8ZM32.4,18.6c-1.4-.5-6.1-2.5-7.6-6.2l-1.7,2.2c1,1.4,2,2.5,3.1,3.3,1.6,1.1,3.1,1.6,4,1.8.7-.2,1.5-.6,2.3-1.1ZM32.4,25c-.2,0-.3.1-.5.2.3.4.6.9.9,1.4.8,1.5,1.8,3.4,4.7,4.6.9.4,1.8.6,2.5.7-.4-.3-.9-.8-1.4-1.5-.5-.7-1.1-1.6-1.5-2.7-.2-.6-.5-1.1-.8-1.5-.3-.5-.6-.8-1-1.2-1-.4-2-.3-2.8,0ZM44.1,30.6c-2,0-3-.9-4.4-2.2-.9-.8-1.9-1.8-3.5-2.8.1.2.2.3.3.5.3.4.6,1,.8,1.5.4,1.1,1,1.9,1.5,2.6.7.9,1.3,1.4,1.8,1.8,1.8,0,3-.9,3.5-1.4ZM17.9,24.6c.3.3.6.7.8,1.2h0s0,0,0,0c1.3-.5,2.4-.9,3.4-1.1-1.2-.2-2.8-.6-4.3-1.8-.3-.2-.7-.4-1-.5-.6-.2-1.2-.3-1.8-.3-1.5,0-2.8.6-3.8,1.5-1,.9-1.6,2.3-1.6,3.7s.5,2.5,1.3,3.4c.7.8,1.7,1.4,2.7,1.7l-1.3-2.1c0,0-.2-.1-.2-.2-.7-.7-1.2-1.7-1.2-2.8s.4-2.1,1.2-2.8c.7-.7,1.7-1.1,2.8-1.1s2.1.4,2.8,1.1Z"/>
    </clipPath>
  </defs>
  <path class="st0" d="M8.9,37.1c-.2,0-.4,0-.7,0,.2,0,.5,0,.7,0Z"/>
  <path class="st0" d="M11.4,13.2c0,0,0-.3-.2-.4,0,0,.2.2.2.4Z"/>
  <path class="st0" d="M39.3,37.2h.4-.4ZM11.2,12.9c0,0,0,.3.2.4,0-.2,0-.3-.2-.4Z"/>
  <g>
    <g>
      <path class="st1" d="M33.8,44.3l1.2-1.2-1.1-5.2-4-3.6-.7-3.3s.6-.6.9-1.6c.2-1.1.1-2,.1-2,0,0,1.5-.3,1.9-.3.3,0,.7.1.7.1,0,0,2,3.6,5,4.5,3,.9,4.7.3,4.7.3l2-1.4s-1.5.5-4-1.6-3.9-3.9-6.1-4c-2.2-.2-3,.4-3,.4l-1.6,1.1s-1.1-1.6-3.5-1.6c-2.3,0-3.5,0-3.5,0,0,0-2.4-.5-3.4-.9-.9-.4-1.2-.9-1.2-.9l1.9-1.7s-1.5-2.8-1.6-2.9c-.1,0-1.5-1.6-1.5-1.6l2.6-5.3s2,.7,2.7,1.1c.7.5,1.4,1,1.4,1,0,0-2.5,3.3-2.6,3.3,0,0,2.4,3.1,5.3,3.5,2.8.4,5-.8,5.1-.8,0,0,1.4-.9,1.4-.9,0,0-3.2-1.3-5.3-3.1-2.1-1.8-2.6-3.7-2.6-3.7l2.8-3.5s-.5-1.3-2.1-1.9c-1.6-.6-3.4-1-3.4-1l.6-1.2-1.3-.6-5.4,12.2s-1.8-1.3-3.1-1.5c-1.3-.3-3-.4-3-.4h-.5c0,0-1.6-.2-1.6-.2l.2.6-3.6,2.2,2.4.9v1.4c.1,0-.7,1.5-.7,1.5v1.3c0,0,.6,0,1,0,.4,0,.6,0,.6,0,0,0,.5-.8,1.1-1.2.6-.4,1.3-.7,1.3-.7,0,0,.5,1.4.3,2.6-.2,1.1-.4,2.6-.4,2.6,0,0-.5,1.4-.4,2.6,0,1.2.4,2,.4,2s-3.7,1.7-3.7,1.7l.2,5.9s-3.1,7.2-3.1,7.2,1.4,0,1.4,0c0,0,3.2-6.8,3.2-6.8,0,0,.9.1,1.7-.2.8-.4,1.2-1,1.2-1l-2-1.3.7-1.7s1.5.4,2.3.1c.9-.2,2.1-.6,2.1-.6l.6,1,.6,9.1s-1.1.2-1.4.5c-.4.3-.8.9-.8.9h2.7s1.2-1.1,1.2-1.1v-6.2s1.5-1.7,1.8-2.6c.3-.9.6-1.6.6-1.6l4.2-.8s.9,2.3,1.8,2.7c1,.5,1.4.7,1.4.7l1.7,2.2-1.8,3.3s2.1,2.6,2.7,2.7c.7.1.2-1.9.2-1.9l-1.5-.9,2.2-3.1s1.2.4,1.2.4,2.3,4.6,2.3,4.6c0,0-1.2.2-1.2.3,0,.1-.5,1.4-.5,1.4h1.9Z"/>
      <g class="st4">
        <rect class="st0" x="3.3" y="3.7" width="41.2" height="40.6"/>
      </g>
    </g>
    <path class="st1" d="M11.4,16c.3,2.3-1.2,3.8-1.2,3.8,0,0,0,.8.2,1.7.1.8-.5,3.4-.4,3.4,0,0,2.9-2.6,2.9-2.5,0,.1-1.1-1.2-.6-3.4.5-2.3-1-2.9-1-2.9h0ZM13.1,30.6c3.3,1.3,5.1-.7,5.1-.7-1.1,3-3.6,3.5-3.6,3.5l2.1,3.6s-1.7,1.7-1.8,1.8c0,0-.2-4.8-.2-4.8l-.6-1.3s-1.5.5-2.4.8c-.9.3-1.9-.2-1.9-.1,0,0-.6,1.8-.7,1.8,0,0,.7,1.9.3,2.1-.4.1-1.3.2-1.4.2s.7-2.4.7-2.4l-1-.7-.7,1.5-.7-4.5s1.7,1.4,2.6.4c1-1,.9-2.3.9-2.3,0,0,.6,1.6.5-.5-.1-2.1,1.3-3.5,1.3-3.5-1.6,3.4,1.3,5.1,1.3,5.1ZM19.4,28.9c.1.8-.1,4-.2,3.9,0,0,4.2-.8,4.2-.8,0,0-.3-2.1.8-.3,1.2,1.8,5.7,2.5,5.6,2.6-.1,0,.5,1.6.5,1.6,0,0-3.4-.2-3.5-.2,0,0,3.5,2.3,3.5,2.3l2.2-1.4-2.4-2.2s-1.2-3.3-1-3.3-1.4.6-1.4.6c0,0-1.4.5-3.1-.8-1.7-1.3-1-4-1-4,0,0-1,1.3-2.5,1.1-1.4-.2-2-1.3-2-1.3,0,0,.2,1.3.3,2.2ZM32.7,26.9s-1-1.7-1-1.7c0,0-2,1.2-2,1.2,0,0,.6.9.6,1,0,0,2.4-.4,2.4-.4ZM21.2,16.7l3.7-4.6.6,1.2s-.9.8-1.2,2.9c-.3,2.1.6,3.7.6,3.7-2.5-.9-3.6-3.2-3.6-3.2ZM19.5,11.4l2.6-5.8-.5,6.6-2.1-.8ZM17,16.7l-.9-.9.8-2.1.6,2.3-.5.7ZM18.1,22.8s-.8-1.8-1.1-2.4c-.4-.6-3.3-3.5-3.3-3.5,0,0,1.7.6,3.3,2.1,1.5,1.6,2.9,2,2.8,2.1l-1.7,1.7ZM8.7,15.8l-.7-1.2-.5,2.3,1.2-1.1Z"/>
    <g>
      <path class="st0" d="M24.6,26.1c-.6.6-1,1.4-1,2.3s.4,1.7,1,2.3c.6.6,1.4.9,2.3.9s1.7-.4,2.3-.9c.6-.6,1-1.4,1-2.3s-.4-1.7-1-2.3c-.6-.6-1.4-.9-2.3-.9s-1.7.4-2.3.9h0ZM25.1,28.4c0,.5.2.9.5,1.3.3.3.8.5,1.3.5s1-.2,1.3-.5c.3-.3.5-.8.5-1.3s-.2-.9-.5-1.3c-.3-.3-.8-.5-1.3-.5s-1,.2-1.3.5c-.3.3-.5.8-.5,1.3ZM28.4,26.9c.4.4.7.9.7,1.5s-.2,1.1-.7,1.5c-.4.4-1,.6-1.6.6s-1.2-.2-1.6-.6c-.4-.4-.7-.9-.7-1.5s.2-1.1.7-1.5c.4-.4,1-.6,1.6-.6s1.2.2,1.6.6ZM12.9,27.4c0,.6.2,1.1.6,1.5.4.4.9.6,1.5.6s1.1-.2,1.5-.6c.4-.4.6-.9.6-1.5s-.2-1.1-.6-1.5c-.4-.4-.9-.6-1.5-.6s-1.1.2-1.5.6c-.4.4-.6.9-.6,1.5ZM16.9,25.6c.5.5.8,1.1.8,1.8s-.3,1.3-.8,1.8c-.5.5-1.1.7-1.8.7s-1.3-.3-1.8-.7c-.5-.5-.8-1.1-.8-1.8s.3-1.3.8-1.8c.5-.5,1.1-.7,1.8-.7s1.3.3,1.8.7ZM17.6,24.9c-.7-.6-1.5-1-2.5-1s-1.9.4-2.5,1c-.6.6-1.1,1.5-1.1,2.5s.4,1.9,1.1,2.5c.7.6,1.5,1,2.5,1s1.9-.4,2.5-1c.6-.6,1.1-1.5,1.1-2.5s0-.7-.1-1c0,0,0-.1,0-.2-.2-.5-.5-1-.9-1.3ZM16.4,33c-.2.6-.5,1.1-.9,1.6l1.3,2.2c.7-.7,3.1-3.6,2.1-8.6-.2.8-.5,1.4-1.1,1.9-.4.4-.8.6-1.3.8,0,.7,0,1.3-.3,2ZM15.3,34.3c.3-.4.6-.9.7-1.3.2-.6.2-1.2.2-1.7-.4.1-.8.2-1.2.2-.7,0-1.3-.2-1.8-.4l2,3.4ZM15.4,42.8v.2s-.2,0-.2,0c-1,0-1.6.7-1.9,1.1h2.2s1.1-1.1,1.1-1.1v-5.8s-1.7-2.8-1.7-2.8l.5,8.4ZM24.3,30.9c-.4-.4-.6-.8-.8-1.3,0,2.2.7,6,6.6,6.1l-.3-1.3c-.9-.1-1.6-.4-2.2-.8-.7-.5-1.2-1.1-1.5-1.7-.7-.2-1.3-.5-1.8-1ZM26.9,32c-.1,0-.2,0-.3,0,.3.5.7.9,1.3,1.3.5.3,1.1.6,1.9.7l-.7-2.7c-.6.4-1.3.7-2.2.7ZM27,35.7c.6.6,1.4,1.5,1.4,1.8,0,.4-1.4,2.8-1.7,3.3.3.5.7,1,1.1,1.4.8.7,1.4,1.1,1.4,1.1,0,0,0-1.6,0-1.6-.3-.1-1.4-.6-1.5-.9h0c0-.3,2.2-3.3,2.6-3.8l-.2-1c-1.2,0-2.3-.2-3.1-.4ZM23.3,31.9c-.3-1.3-.2-2.6-.2-3.2l-3.6.3c.2,1.3,0,2.5-.1,3.6l3.9-.6ZM8.6,17.8c.2-.2.3-.3.3-.3,0-.1,0-.3,0-.5-.3.3-.8.6-.8.7v.6c.2-.1.3-.3.4-.4ZM10,19.5c3.1-3.9-.7-5.2-2-5.5l.9,1.6h0c0,.1-.1.2-.1.2l-1.8,1.7c0,.2,0,1,0,1.2s-.4.8-.7,1.2c-.2.2-.3.4-.3.4v1.1c.4.1.9,0,1.2,0-.3-.3-.7-1-.3-1.8.4-.8.7-1.2.8-1.3v-.9c0-.2,1.3-1.2,1.3-1.2l.3-.3v.4s0,.8-.2,1.1c0,0-.2.3-.4.4-.2.2-.5.5-.8.8,0,.1-.3.5-.7,1.2-.3.6,0,1.1.3,1.3.5-1,2.1-1.7,2.4-1.9ZM3.6,44.1h1.1s4.7-10.7,4.7-10.7c-.3,0-.6-.2-.9-.3l-4.9,11ZM31.6,37.9c.5,0,1.2,0,1.9-.1l-3.2-2.9.2,1h0s0,0,0,0v.2c0,0,0,0,0,0l.2,1h0c0,0,0,.2,0,.2,0,0-.1.1-.3.4.3.1.7.2,1.1.3ZM33.7,42.6v.3c.1,0-.2,0-.2,0-.9,0-1.3.8-1.4,1.2h1.6s1.1-1.1,1.1-1.1l-1.1-4.9c-.8.2-1.5.2-2,.2l2,4.3ZM9.5,37.1c.4-.2.7-.4,1.1-.8l-1.5-1-.9,2c.4,0,.9,0,1.3-.2ZM6.7,36.3l1.5-3.4c-.6-.3-1.2-.7-1.8-1.3l.3,4.7ZM18.9,26.3h0s0,0,0,0c.3.8.4,1.6.5,2.3l3.7-.3s0,0,0,0c0-.9.5-1.7,1.1-2.3.5-.5,1.2-.8,1.9-1-.6,0-1.3,0-2.1,0h0s0,0,0,0c-1.4.1-3,.5-5,1.4ZM8.5,15.7l-.5-1-3.2,1.8,2.1.8,1.7-1.6ZM11.4,15.7c.6.2,2.5,1,4.2,2.8,1,1,1.9,2.3,2.5,4.1.5-.5,1.4-1.2,1.7-1.4-.4-1-3.4-7.1-10.1-7,.7.3,1.4.8,1.8,1.6ZM22.4,4.4l-.8-.4-5.3,11.9c.3.2.5.4.7.6l5.4-12.1ZM30.5,28.4c0,1-.4,1.9-1.1,2.5,0,0,0,0,0,0l.8,3.2,3.9,3.6h0c0,0,0,.3,0,.3l1.1,5h0c0,.1,0,.2,0,.2l-1.2,1.2h0c0,0,0,0,0,0h-2s-.2,0-.2,0v-.2s.2-1.6,1.6-1.8l-2-4.3c-.4,0-.8-.2-1-.3-.8,1-2.1,2.7-2,2.8,0,.2,1.3.6,1.3.6h.1s0,.2,0,.2c0,0,0,2.3,0,2.3-.1,0-1.3-.6-2.1-1.4-.5-.5-.9-1-1.2-1.7h0c0,0,0-.2,0-.2,0,0,1.8-2.8,1.7-3.1,0-.3-1.6-1.9-1.9-2.2-1.5-.7-2.3-1.9-2.7-3.1l-4.1.7c-.6,2.5-2,4-2.3,4.3v5.9s0,0,0,0h0c0,0-1.2,1.3-1.2,1.3h0c0,0,0,0,0,0h-2.7s-.3,0-.3,0l.2-.3s.8-1.4,2.3-1.6l-.5-9-.4-.6c-.5.2-2.2.9-4.2.5l-.6,1.5,1.8,1.2h.2c0,.1-.1.3-.1.3-.4.5-.9.9-1.4,1.1-.6.2-1.1.3-1.6.2l-2.9,6.6h0c0,.1-.1.1-.1.1h-1.6s-.3,0-.3,0v-.3c.1,0,3.3-7.1,3.3-7.1l-.4-5.9v-.2s.1,0,.1,0l3.6-1.6c-.2-.6-.4-1.3-.4-2s0-1.2.3-1.7c0-.2,1-4.3.4-5.7-.5.3-1.8,1-2.1,1.8h0c0,0,0,.1,0,.1,0,0-1.1.4-1.9,0h-.1v-1.4c0-.1.2-.3.4-.6.3-.4.6-.8.6-1,0-.3,0-.9,0-1.1l-2.5-1-.4-.2.4-.2,3.6-2.1-.3-.5-.2-.3h.4c0,0,.5.1,1.1.3,3-.3,5.4.6,7.1,1.8l5.4-12v-.2c0,0,.3,0,.3,0l1.2.5h.2c0,0,0,.3,0,.3l-.4,1c.8,0,2.1.3,3.3,1,.9.5,1.7,1.1,2.2,2.1h0c0,.1,0,.2,0,.2l-2.7,3.4c1.6,4.3,7.8,6.3,7.9,6.3h.4c0,.1-.4.4-.4.4-8,5-12-1.9-12-1.9h0c0-.1,0-.2,0-.2l2.4-3c-.5-.4-1.2-.8-2-1.2-.6-.3-1.2-.5-1.8-.6l-2.3,5.1c2.1,2,3,4.3,3,4.3h0c0,.1-.1.2-.1.2,0,0-1.1.9-1.7,1.5,0,0,.2.1.3.2,2.5,1.6,5.2,1.4,5.2,1.4h0c3.4-.3,5,1,5,1,.2.1.3.2.5.4,0,0,.2.2.3.3.6-.6,1.5-1.2,2.5-1.5,1.2-.3,2.6-.3,4.1.6,1.6,1,2.7,2,3.6,2.8,1.4,1.3,2.4,2.3,4.6,2h.4c0,0-.3.3-.3.3,0,0-2.3,3.4-7.5,1.2-2.7-1.2-3.8-2.9-4.6-4.4-.2,0-.4,0-.6,0-.7,0-1.3,0-1.6.2,0,.3.1.6.1.9ZM30.3,27.1c.4-.2,1.1-.2,1.7-.2.1,0,.2,0,.4,0h0c-.3-.6-.6-1.1-.9-1.4-.6.3-1.1.7-1.5,1.1.1.2.2.4.3.6ZM10.4,19.8c.4,1,.2,3.1,0,4.5.2-.3.4-.6.7-.9.7-.7,1.5-1.1,2.4-1.4-.2-.6-.5-1.4-1-2.1-.3-.5-.8-1-1.3-1.3-.2.4-.5.8-.8,1.2ZM15.1,21.8c.7,0,1.3.1,1.9.3.2,0,.4.2.6.3-.6-1.5-1.4-2.7-2.3-3.6-1.4-1.5-3-2.3-3.7-2.6.1.6,0,1.2-.3,2,.6.4,1.1.9,1.5,1.5.5.8.9,1.6,1,2.2.4,0,.8-.1,1.2-.1ZM6.5,31.2c2.6,2.7,5.7,2.1,7,1.6-1-.3-1.9-.8-2.5-1.5-.4.2-1.1.3-1.8.2-.5,0-1.1-.3-1.6-.7l-1,.4ZM9.8,29.7l-1.9.8c.4.3.9.5,1.3.5.6,0,1.1,0,1.5-.1-.3-.4-.6-.8-.8-1.2ZM27.4,8.5c-.5-.8-1.2-1.4-1.9-1.8-1.2-.6-2.5-.9-3.2-.9l-.8,1.8c.7.2,1.5.5,2.2.9.8.5,1.5,1.1,2.2,2l1.6-2ZM19.7,11.3c.6.1,1.3.4,1.8.7.8.4,1.5.9,2,1.3l2-2.5c-.6-.9-1.4-1.5-2.1-2-.7-.4-1.5-.7-2.2-.9l-1.5,3.4ZM21.4,16.7c.5.7,3.1,4.4,8,3.2-.9-.3-2.2-.8-3.5-1.7-1.1-.8-2.1-1.8-3.1-3.2l-1.4,1.8ZM32.4,18.6c-1.4-.5-6.1-2.5-7.6-6.2l-1.7,2.2c1,1.4,2,2.5,3.1,3.3,1.6,1.1,3.1,1.6,4,1.8.7-.2,1.5-.6,2.3-1.1ZM32.4,25c-.2,0-.3.1-.5.2.3.4.6.9.9,1.4.8,1.5,1.8,3.4,4.7,4.6.9.4,1.8.6,2.5.7-.4-.3-.9-.8-1.4-1.5-.5-.7-1.1-1.6-1.5-2.7-.2-.6-.5-1.1-.8-1.5-.3-.5-.6-.8-1-1.2-1-.4-2-.3-2.8,0ZM44.1,30.6c-2,0-3-.9-4.4-2.2-.9-.8-1.9-1.8-3.5-2.8.1.2.2.3.3.5.3.4.6,1,.8,1.5.4,1.1,1,1.9,1.5,2.6.7.9,1.3,1.4,1.8,1.8,1.8,0,3-.9,3.5-1.4ZM17.9,24.6c.3.3.6.7.8,1.2h0s0,0,0,0c1.3-.5,2.4-.9,3.4-1.1-1.2-.2-2.8-.6-4.3-1.8-.3-.2-.7-.4-1-.5-.6-.2-1.2-.3-1.8-.3-1.5,0-2.8.6-3.8,1.5-1,.9-1.6,2.3-1.6,3.7s.5,2.5,1.3,3.4c.7.8,1.7,1.4,2.7,1.7l-1.3-2.1c0,0-.2-.1-.2-.2-.7-.7-1.2-1.7-1.2-2.8s.4-2.1,1.2-2.8c.7-.7,1.7-1.1,2.8-1.1s2.1.4,2.8,1.1Z"/>
      <g class="st3">
        <rect class="st0" x="3" y="3.5" width="42" height="41"/>
      </g>
    </g>
  </g>
</svg>