<svg width="168" height="76" viewBox="0 0 168 76" fill="none" xmlns="http://www.w3.org/2000/svg">
<path d="M8.92786 51.0566C8.73586 51.1526 8.54386 51.1526 8.25586 51.1526C8.44786 51.1526 8.73586 51.1526 8.92786 51.0566Z" fill="#5EDD5B"/>
<path d="M11.4239 27.2483C11.3279 27.1523 11.3279 26.9603 11.2319 26.8643C11.3279 26.9603 11.4239 27.0563 11.4239 27.2483Z" fill="#5EDD5B"/>
<path d="M39.2639 51.1523H39.6479C39.5519 51.1523 39.4559 51.1523 39.2639 51.1523ZM11.2319 26.8643C11.3279 26.9603 11.3279 27.1523 11.4239 27.2483C11.4239 27.0563 11.3279 26.9603 11.2319 26.8643Z" fill="#5EDD5B"/>
<path d="M42.8159 26.4801C42.1439 25.4241 40.8959 24.8481 39.7439 24.8481C35.9999 20.3361 30.3359 17.4561 23.9999 17.4561C17.6639 17.4561 11.9999 20.3361 8.25592 24.8481C7.00792 24.8481 5.85592 25.4241 5.18392 26.4801C3.07192 29.9361 1.91992 33.9681 1.91992 38.0001C1.91992 42.0321 3.07192 46.0641 5.18392 49.5201C5.85592 50.5761 7.00792 51.1521 8.06392 51.1521H8.15992C10.9439 54.4161 14.5919 56.8161 18.9119 57.8721C20.5439 58.2561 22.1759 58.4481 23.9039 58.4481C25.6319 58.4481 27.2639 58.2561 28.8959 57.8721C33.1199 56.8161 36.8639 54.4161 39.6479 51.1521H39.8399C40.9919 51.1521 42.1439 50.5761 42.7199 49.5201C44.9279 46.0641 45.9839 42.0321 45.9839 38.0001C46.0799 33.9681 44.9279 29.9361 42.8159 26.4801ZM11.0399 30.1281C11.6159 29.2641 11.7119 28.2081 11.4239 27.2481C11.4239 27.1521 11.3279 26.9601 11.2319 26.8641C11.3279 26.9601 11.3279 27.1521 11.4239 27.2481C14.4959 23.6961 19.0079 21.4881 23.9999 21.4881C29.0879 21.4881 33.5039 23.6961 36.5759 27.2481C36.2879 28.2081 36.3839 29.2641 36.9599 30.1281C37.9199 31.6641 38.5919 33.2961 38.8799 35.0241C34.3679 33.0081 29.2799 31.8561 23.9999 31.8561C18.7199 31.8561 13.6319 33.0081 9.11992 35.0241C9.50392 33.2961 10.0799 31.5681 11.0399 30.1281ZM21.0239 54.3201C16.9919 53.5521 14.1119 51.7281 11.4239 48.7521C11.7119 47.7921 11.6159 46.7361 11.0399 45.8721C9.98392 44.2401 9.31192 42.3201 9.02392 40.4961C9.11992 40.4961 9.31192 40.4001 9.40792 40.4001H9.50392C9.69592 40.4001 9.88792 40.3041 10.1759 40.3041H11.0399C16.8959 40.3041 21.6959 45.0081 21.6959 50.8641C21.5999 52.1121 21.4079 53.2641 21.0239 54.3201ZM23.9999 42.0321C22.1759 42.0321 20.7359 40.5921 20.7359 38.7681C20.7359 36.9441 22.1759 35.5041 23.9999 35.5041C25.8239 35.5041 27.2639 36.9441 27.2639 38.7681C27.2639 40.5921 25.8239 42.0321 23.9999 42.0321ZM36.9599 45.9681C36.3839 46.8321 36.2879 47.8881 36.5759 48.8481C34.1759 51.6321 30.7199 53.6481 26.8799 54.3201C26.4959 53.2641 26.3039 52.1121 26.3039 50.9601C26.3039 45.1041 31.0079 40.4001 36.8639 40.4001C37.5359 40.4001 38.2079 40.4961 38.8799 40.5921C38.6879 42.4161 37.9199 44.2401 36.9599 45.9681Z" fill="#5EDD5B"/>
<path d="M63.288 49.416C61.7733 49.416 60.3493 49.1173 59.016 48.52C57.6827 47.912 56.5093 47.0747 55.496 46.008C54.4933 44.9413 53.704 43.7093 53.128 42.312C52.5627 40.904 52.28 39.4 52.28 37.8C52.28 36.1893 52.5627 34.6853 53.128 33.288C53.704 31.88 54.4933 30.648 55.496 29.592C56.5093 28.5253 57.6827 27.6933 59.016 27.096C60.3493 26.488 61.7733 26.184 63.288 26.184C65.1013 26.184 66.7707 26.6053 68.296 27.448C69.8213 28.28 71.0853 29.3947 72.088 30.792L68.152 32.92C67.5547 32.216 66.8347 31.656 65.992 31.24C65.1493 30.8133 64.248 30.6 63.288 30.6C62.3813 30.6 61.528 30.7867 60.728 31.16C59.928 31.5333 59.224 32.0507 58.616 32.712C58.0187 33.3733 57.5493 34.136 57.208 35C56.8667 35.864 56.696 36.7973 56.696 37.8C56.696 38.792 56.8667 39.7253 57.208 40.6C57.5493 41.464 58.0187 42.2267 58.616 42.888C59.224 43.5387 59.928 44.056 60.728 44.44C61.528 44.8133 62.3813 45 63.288 45C64.2587 45 65.16 44.7867 65.992 44.36C66.8347 43.9333 67.5547 43.368 68.152 42.664L72.088 44.808C71.0853 46.1947 69.8213 47.3093 68.296 48.152C66.7707 48.9947 65.1013 49.416 63.288 49.416ZM85.9453 33H90.3612V49H85.9293L85.7213 47.336C85.3053 47.9547 84.7719 48.456 84.1213 48.84C83.4706 49.224 82.7079 49.416 81.8333 49.416C80.6386 49.416 79.5239 49.192 78.4893 48.744C77.4546 48.296 76.5426 47.6773 75.7533 46.888C74.9639 46.0987 74.3453 45.1867 73.8973 44.152C73.4599 43.1067 73.2413 41.9867 73.2413 40.792C73.2413 39.6507 73.4493 38.584 73.8653 37.592C74.2813 36.6 74.8679 35.7253 75.6253 34.968C76.3826 34.2107 77.2519 33.6187 78.2333 33.192C79.2253 32.7653 80.2919 32.552 81.4333 32.552C82.4146 32.552 83.2946 32.76 84.0733 33.176C84.8626 33.592 85.5506 34.12 86.1373 34.76L85.9453 33ZM81.7213 45.176C82.4466 45.176 83.1026 44.9893 83.6893 44.616C84.2759 44.2427 84.7399 43.7413 85.0813 43.112C85.4226 42.472 85.5933 41.768 85.5933 41C85.5933 40.2213 85.4226 39.5173 85.0813 38.888C84.7399 38.2587 84.2759 37.7573 83.6893 37.384C83.1026 37.0107 82.4466 36.824 81.7213 36.824C80.9853 36.824 80.3186 37.0107 79.7213 37.384C79.1239 37.7573 78.6493 38.264 78.2973 38.904C77.9453 39.5333 77.7693 40.232 77.7693 41C77.7693 41.768 77.9453 42.472 78.2973 43.112C78.6599 43.7413 79.1399 44.2427 79.7373 44.616C80.3346 44.9893 80.9959 45.176 81.7213 45.176ZM93.5923 49L93.5763 33H97.9923L98.0083 34.184C98.5416 33.672 99.1656 33.272 99.8802 32.984C100.606 32.696 101.368 32.552 102.168 32.552C102.755 32.552 103.342 32.6373 103.928 32.808L102.184 37.272C101.8 37.112 101.411 37.032 101.016 37.032C100.462 37.032 99.9549 37.1653 99.4963 37.432C99.0376 37.6987 98.6749 38.0613 98.4083 38.52C98.1416 38.968 98.0083 39.4747 98.0083 40.04V49H93.5923ZM111.96 49.416C110.488 49.416 109.144 49.0373 107.928 48.28C106.723 47.5227 105.757 46.504 105.032 45.224C104.317 43.944 103.96 42.5307 103.96 40.984C103.96 39.8213 104.168 38.7333 104.584 37.72C105 36.696 105.571 35.8 106.296 35.032C107.032 34.2533 107.885 33.6453 108.856 33.208C109.827 32.7707 110.861 32.552 111.96 32.552C113.229 32.552 114.387 32.824 115.432 33.368C116.488 33.912 117.379 34.6533 118.104 35.592C118.84 36.5307 119.363 37.592 119.672 38.776C119.992 39.96 120.045 41.192 119.832 42.472H108.728C108.867 42.9413 109.08 43.368 109.368 43.752C109.667 44.1253 110.029 44.424 110.456 44.648C110.893 44.872 111.395 44.9893 111.96 45C112.515 45.0107 113.027 44.8827 113.496 44.616C113.965 44.3493 114.365 43.992 114.696 43.544L119.208 44.584C118.557 46.0027 117.587 47.1653 116.296 48.072C115.005 48.968 113.56 49.416 111.96 49.416ZM108.568 39.208H115.368C115.229 38.6747 114.995 38.1947 114.664 37.768C114.333 37.3413 113.933 37.0053 113.464 36.76C113.005 36.5147 112.504 36.392 111.96 36.392C111.427 36.392 110.925 36.5147 110.456 36.76C109.997 37.0053 109.603 37.3413 109.272 37.768C108.952 38.184 108.717 38.664 108.568 39.208ZM137.253 38.824V49H132.837V40.04C132.837 39.4747 132.698 38.968 132.421 38.52C132.154 38.0613 131.791 37.6987 131.333 37.432C130.885 37.1653 130.383 37.032 129.829 37.032C129.274 37.032 128.767 37.1653 128.309 37.432C127.85 37.6987 127.487 38.0613 127.221 38.52C126.954 38.968 126.821 39.4747 126.821 40.04V49H122.405L122.389 33H126.805L126.821 34.184C127.354 33.672 127.978 33.272 128.693 32.984C129.418 32.696 130.181 32.552 130.981 32.552C132.143 32.552 133.194 32.8347 134.133 33.4C135.082 33.9653 135.839 34.7227 136.405 35.672C136.97 36.6107 137.253 37.6613 137.253 38.824ZM149.155 37.416H146.275V49H141.859V37.416H139.651V33H141.859V27.976H146.275V33H149.155V37.416ZM158.741 49.416C157.269 49.416 155.925 49.0373 154.709 48.28C153.504 47.5227 152.539 46.5093 151.813 45.24C151.099 43.96 150.741 42.5467 150.741 41C150.741 39.8267 150.949 38.7333 151.365 37.72C151.781 36.696 152.352 35.8 153.077 35.032C153.813 34.2533 154.667 33.6453 155.637 33.208C156.608 32.7707 157.643 32.552 158.741 32.552C160.213 32.552 161.552 32.9307 162.757 33.688C163.973 34.4453 164.939 35.464 165.653 36.744C166.379 38.024 166.741 39.4427 166.741 41C166.741 42.1627 166.533 43.2507 166.117 44.264C165.701 45.2773 165.125 46.1733 164.389 46.952C163.664 47.72 162.816 48.3227 161.845 48.76C160.885 49.1973 159.851 49.416 158.741 49.416ZM158.741 45C159.424 45 160.037 44.8187 160.581 44.456C161.125 44.0827 161.552 43.592 161.861 42.984C162.171 42.376 162.325 41.7147 162.325 41C162.325 40.264 162.16 39.592 161.829 38.984C161.509 38.3653 161.077 37.8747 160.533 37.512C159.989 37.1493 159.392 36.968 158.741 36.968C158.069 36.968 157.461 37.1547 156.917 37.528C156.373 37.9013 155.941 38.392 155.621 39C155.312 39.608 155.157 40.2747 155.157 41C155.157 41.7573 155.317 42.44 155.637 43.048C155.968 43.6453 156.405 44.12 156.949 44.472C157.493 44.824 158.091 45 158.741 45Z" fill="#101010"/>
</svg>
