<?xml version="1.0" encoding="UTF-8"?>
<svg id="Layer_1" xmlns="http://www.w3.org/2000/svg" xmlns:xlink="http://www.w3.org/1999/xlink" version="1.1" viewBox="0 0 168 76">
  <!-- Generator: Adobe Illustrator 29.5.1, SVG Export Plug-In . SVG Version: 2.1.0 Build 141)  -->
  <defs>
    <style>
      .st0, .st1, .st2 {
        fill: #70f46d;
      }

      .st1 {
        fill-rule: evenodd;
      }

      .st3 {
        clip-path: url(#clippath-1);
      }

      .st2 {
        clip-rule: evenodd;
      }

      .st4 {
        fill: #fff;
      }

      .st5 {
        clip-path: url(#clippath);
      }
    </style>
    <clipPath id="clippath">
      <path class="st2" d="M34.5,58l1.2-1.2-1.1-5.2-4-3.6-.7-3.3s.6-.6.9-1.6c.2-1.1.1-2,.1-2,0,0,1.5-.3,1.9-.3.3,0,.7.1.7.1,0,0,2,3.6,5,4.5,3,.9,4.7.3,4.7.3l2-1.4s-1.5.5-4-1.6-3.9-3.9-6.1-4c-2.2-.2-3,.4-3,.4l-1.6,1.1s-1.1-1.6-3.5-1.6c-2.3,0-3.5,0-3.5,0,0,0-2.4-.5-3.4-.9-.9-.4-1.2-.9-1.2-.9l1.9-1.7s-1.5-2.8-1.6-2.9c-.1,0-1.5-1.6-1.5-1.6l2.6-5.3s2,.7,2.7,1.1c.7.5,1.4,1,1.4,1,0,0-2.5,3.3-2.6,3.3,0,0,2.4,3.1,5.3,3.5,2.8.4,5-.8,5.1-.8,0,0,1.4-.9,1.4-.9,0,0-3.2-1.3-5.3-3.1-2.1-1.8-2.6-3.7-2.6-3.7l2.8-3.5s-.5-1.3-2.1-1.9c-1.6-.6-3.4-1-3.4-1l.6-1.2-1.3-.6-5.4,12.2s-1.8-1.3-3.1-1.5c-1.3-.3-3-.4-3-.4h-.5c0,0-1.6-.2-1.6-.2l.2.6-3.6,2.2,2.4.9v1.4c.1,0-.7,1.5-.7,1.5v1.3c0,0,.6,0,1,0,.4,0,.6,0,.6,0,0,0,.5-.8,1.1-1.2.6-.4,1.3-.7,1.3-.7,0,0,.5,1.4.3,2.6-.2,1.1-.4,2.6-.4,2.6,0,0-.5,1.4-.4,2.6,0,1.2.4,2,.4,2s-3.7,1.7-3.7,1.7l.2,5.9s-3.1,7.2-3.1,7.2,1.4,0,1.4,0c0,0,3.2-6.8,3.2-6.8,0,0,.9.1,1.7-.2.8-.4,1.2-1,1.2-1l-2-1.3.7-1.7s1.5.4,2.3.1c.9-.2,2.1-.6,2.1-.6l.6,1,.6,9.1s-1.1.2-1.4.5c-.4.3-.8.9-.8.9h2.7s1.2-1.1,1.2-1.1v-6.2s1.5-1.7,1.8-2.6c.3-.9.6-1.6.6-1.6l4.2-.8s.9,2.3,1.8,2.7c1,.5,1.4.7,1.4.7l1.7,2.2-1.8,3.3s2.1,2.6,2.7,2.7c.7.1.2-1.9.2-1.9l-1.5-.9,2.2-3.1s1.2.4,1.2.4,2.3,4.6,2.3,4.6c0,0-1.2.2-1.2.3,0,.1-.5,1.4-.5,1.4h1.9Z"/>
    </clipPath>
    <clipPath id="clippath-1">
      <path class="st0" d="M25.2,39.8c-.6.6-1,1.4-1,2.3s.4,1.7,1,2.3c.6.6,1.4.9,2.3.9s1.7-.4,2.3-.9c.6-.6,1-1.4,1-2.3s-.4-1.7-1-2.3c-.6-.6-1.4-.9-2.3-.9s-1.7.4-2.3.9h0ZM25.7,42.1c0,.5.2.9.5,1.3.3.3.8.5,1.3.5s1-.2,1.3-.5c.3-.3.5-.8.5-1.3s-.2-.9-.5-1.3c-.3-.3-.8-.5-1.3-.5s-1,.2-1.3.5c-.3.3-.5.8-.5,1.3ZM29.1,40.5c.4.4.7.9.7,1.5s-.2,1.1-.7,1.5c-.4.4-1,.6-1.6.6s-1.2-.2-1.6-.6c-.4-.4-.7-.9-.7-1.5s.2-1.1.7-1.5c.4-.4,1-.6,1.6-.6s1.2.2,1.6.6ZM13.6,41.1c0,.6.2,1.1.6,1.5.4.4.9.6,1.5.6s1.1-.2,1.5-.6c.4-.4.6-.9.6-1.5s-.2-1.1-.6-1.5c-.4-.4-.9-.6-1.5-.6s-1.1.2-1.5.6c-.4.4-.6.9-.6,1.5ZM17.5,39.3c.5.5.8,1.1.8,1.8s-.3,1.3-.8,1.8c-.5.5-1.1.7-1.8.7s-1.3-.3-1.8-.7c-.5-.5-.8-1.1-.8-1.8s.3-1.3.8-1.8c.5-.5,1.1-.7,1.8-.7s1.3.3,1.8.7ZM18.3,38.6c-.7-.6-1.5-1-2.5-1s-1.9.4-2.5,1c-.6.6-1.1,1.5-1.1,2.5s.4,1.9,1.1,2.5c.7.6,1.5,1,2.5,1s1.9-.4,2.5-1c.6-.6,1.1-1.5,1.1-2.5s0-.7-.1-1c0,0,0-.1,0-.2-.2-.5-.5-1-.9-1.3ZM17,46.7c-.2.6-.5,1.1-.9,1.6l1.3,2.2c.7-.7,3.1-3.6,2.1-8.6-.2.8-.5,1.4-1.1,1.9-.4.4-.8.6-1.3.8,0,.7,0,1.3-.3,2ZM15.9,47.9c.3-.4.6-.9.7-1.3.2-.6.2-1.2.2-1.7-.4.1-.8.2-1.2.2-.7,0-1.3-.2-1.8-.4l2,3.4ZM16.1,56.4v.2s-.2,0-.2,0c-1,0-1.6.7-1.9,1.1h2.2s1.1-1.1,1.1-1.1v-5.8s-1.7-2.8-1.7-2.8l.5,8.4ZM24.9,44.6c-.4-.4-.6-.8-.8-1.3,0,2.2.7,6,6.6,6.1l-.3-1.3c-.9-.1-1.6-.4-2.2-.8-.7-.5-1.2-1.1-1.5-1.7-.7-.2-1.3-.5-1.8-1ZM27.5,45.7c-.1,0-.2,0-.3,0,.3.5.7.9,1.3,1.3.5.3,1.1.6,1.9.7l-.7-2.7c-.6.4-1.3.7-2.2.7ZM27.7,49.4c.6.6,1.4,1.5,1.4,1.8,0,.4-1.4,2.8-1.7,3.3.3.5.7,1,1.1,1.4.8.7,1.4,1.1,1.4,1.1,0,0,0-1.6,0-1.6-.3-.1-1.4-.6-1.5-.9h0c0-.3,2.2-3.3,2.6-3.8l-.2-1c-1.2,0-2.3-.2-3.1-.4ZM23.9,45.6c-.3-1.3-.2-2.6-.2-3.2l-3.6.3c.2,1.3,0,2.5-.1,3.6l3.9-.6ZM9.3,31.5c.2-.2.3-.3.3-.3,0-.1,0-.3,0-.5-.3.3-.8.6-.8.7v.6c.2-.1.3-.3.4-.4ZM10.7,33.2c3.1-3.9-.7-5.2-2-5.5l.9,1.6h0c0,.1-.1.2-.1.2l-1.8,1.7c0,.2,0,1,0,1.2s-.4.8-.7,1.2c-.2.2-.3.4-.3.4v1.1c.4.1.9,0,1.2,0-.3-.3-.7-1-.3-1.8.4-.8.7-1.2.8-1.3v-.9c0-.2,1.3-1.2,1.3-1.2l.3-.3v.4s0,.8-.2,1.1c0,0-.2.3-.4.4-.2.2-.5.5-.8.8,0,.1-.3.5-.7,1.2-.3.6,0,1.1.3,1.3.5-1,2.1-1.7,2.4-1.9ZM4.3,57.8h1.1s4.7-10.7,4.7-10.7c-.3,0-.6-.2-.9-.3l-4.9,11ZM32.2,51.6c.5,0,1.2,0,1.9-.1l-3.2-2.9.2,1h0s0,0,0,0v.2c0,0,0,0,0,0l.2,1h0c0,0,0,.2,0,.2,0,0-.1.1-.3.4.3.1.7.2,1.1.3ZM34.4,56.3v.3c.1,0-.2,0-.2,0-.9,0-1.3.8-1.4,1.2h1.6s1.1-1.1,1.1-1.1l-1.1-4.9c-.8.2-1.5.2-2,.2l2,4.3ZM10.2,50.8c.4-.2.7-.4,1.1-.8l-1.5-1-.9,2c.4,0,.9,0,1.3-.2ZM7.3,50l1.5-3.4c-.6-.3-1.2-.7-1.8-1.3l.3,4.7ZM19.6,39.9h0s0,0,0,0c.3.8.4,1.6.5,2.3l3.7-.3s0,0,0,0c0-.9.5-1.7,1.1-2.3.5-.5,1.2-.8,1.9-1-.6,0-1.3,0-2.1,0h0s0,0,0,0c-1.4.1-3,.5-5,1.4ZM9.2,29.4l-.5-1-3.2,1.8,2.1.8,1.7-1.6ZM12.1,29.4c.6.2,2.5,1,4.2,2.8,1,1,1.9,2.3,2.5,4.1.5-.5,1.4-1.2,1.7-1.4-.4-1-3.4-7.1-10.1-7,.7.3,1.4.8,1.8,1.6ZM23,18l-.8-.4-5.3,11.9c.3.2.5.4.7.6l5.4-12.1ZM31.2,42.1c0,1-.4,1.9-1.1,2.5,0,0,0,0,0,0l.8,3.2,3.9,3.6h0c0,0,0,.3,0,.3l1.1,5h0c0,.1,0,.2,0,.2l-1.2,1.2h0c0,0,0,0,0,0h-2s-.2,0-.2,0v-.2s.2-1.6,1.6-1.8l-2-4.3c-.4,0-.8-.2-1-.3-.8,1-2.1,2.7-2,2.8,0,.2,1.3.6,1.3.6h.1s0,.2,0,.2c0,0,0,2.3,0,2.3-.1,0-1.3-.6-2.1-1.4-.5-.5-.9-1-1.2-1.7h0c0,0,0-.2,0-.2,0,0,1.8-2.8,1.7-3.1,0-.3-1.6-1.9-1.9-2.2-1.5-.7-2.3-1.9-2.7-3.1l-4.1.7c-.6,2.5-2,4-2.3,4.3v5.9s0,0,0,0h0c0,0-1.2,1.3-1.2,1.3h0c0,0,0,0,0,0h-2.7s-.3,0-.3,0l.2-.3s.8-1.4,2.3-1.6l-.5-9-.4-.6c-.5.2-2.2.9-4.2.5l-.6,1.5,1.8,1.2h.2c0,.1-.1.3-.1.3-.4.5-.9.9-1.4,1.1-.6.2-1.1.3-1.6.2l-2.9,6.6h0c0,.1-.1.1-.1.1h-1.6s-.3,0-.3,0v-.3c.1,0,3.3-7.1,3.3-7.1l-.4-5.9v-.2s.1,0,.1,0l3.6-1.6c-.2-.6-.4-1.3-.4-2s0-1.2.3-1.7c0-.2,1-4.3.4-5.7-.5.3-1.8,1-2.1,1.8h0c0,0,0,.1,0,.1,0,0-1.1.4-1.9,0h-.1v-1.4c0-.1.2-.3.4-.6.3-.4.6-.8.6-1,0-.3,0-.9,0-1.1l-2.5-1-.4-.2.4-.2,3.6-2.1-.3-.5-.2-.3h.4c0,0,.5.1,1.1.3,3-.3,5.4.6,7.1,1.8l5.4-12v-.2c0,0,.3,0,.3,0l1.2.5h.2c0,0,0,.3,0,.3l-.4,1c.8,0,2.1.3,3.3,1,.9.5,1.7,1.1,2.2,2.1h0c0,.1,0,.2,0,.2l-2.7,3.4c1.6,4.3,7.8,6.3,7.9,6.3h.4c0,.1-.4.4-.4.4-8,5-12-1.9-12-1.9h0c0-.1,0-.2,0-.2l2.4-3c-.5-.4-1.2-.8-2-1.2-.6-.3-1.2-.5-1.8-.6l-2.3,5.1c2.1,2,3,4.3,3,4.3h0c0,.1-.1.2-.1.2,0,0-1.1.9-1.7,1.5,0,0,.2.1.3.2,2.5,1.6,5.2,1.4,5.2,1.4h0c3.4-.3,5,1,5,1,.2.1.3.2.5.4,0,0,.2.2.3.3.6-.6,1.5-1.2,2.5-1.5,1.2-.3,2.6-.3,4.1.6,1.6,1,2.7,2,3.6,2.8,1.4,1.3,2.4,2.3,4.6,2h.4c0,0-.3.3-.3.3,0,0-2.3,3.4-7.5,1.2-2.7-1.2-3.8-2.9-4.6-4.4-.2,0-.4,0-.6,0-.7,0-1.3,0-1.6.2,0,.3.1.6.1.9ZM30.9,40.8c.4-.2,1.1-.2,1.7-.2.1,0,.2,0,.4,0h0c-.3-.6-.6-1.1-.9-1.4-.6.3-1.1.7-1.5,1.1.1.2.2.4.3.6ZM11,33.4c.4,1,.2,3.1,0,4.5.2-.3.4-.6.7-.9.7-.7,1.5-1.1,2.4-1.4-.2-.6-.5-1.4-1-2.1-.3-.5-.8-1-1.3-1.3-.2.4-.5.8-.8,1.2ZM15.7,35.4c.7,0,1.3.1,1.9.3.2,0,.4.2.6.3-.6-1.5-1.4-2.7-2.3-3.6-1.4-1.5-3-2.3-3.7-2.6.1.6,0,1.2-.3,2,.6.4,1.1.9,1.5,1.5.5.8.9,1.6,1,2.2.4,0,.8-.1,1.2-.1ZM7.1,44.9c2.6,2.7,5.7,2.1,7,1.6-1-.3-1.9-.8-2.5-1.5-.4.2-1.1.3-1.8.2-.5,0-1.1-.3-1.6-.7l-1,.4ZM10.5,43.4l-1.9.8c.4.3.9.5,1.3.5.6,0,1.1,0,1.5-.1-.3-.4-.6-.8-.8-1.2ZM28,22.1c-.5-.8-1.2-1.4-1.9-1.8-1.2-.6-2.5-.9-3.2-.9l-.8,1.8c.7.2,1.5.5,2.2.9.8.5,1.5,1.1,2.2,2l1.6-2ZM20.4,25c.6.1,1.3.4,1.8.7.8.4,1.5.9,2,1.3l2-2.5c-.6-.9-1.4-1.5-2.1-2-.7-.4-1.5-.7-2.2-.9l-1.5,3.4ZM22,30.4c.5.7,3.1,4.4,8,3.2-.9-.3-2.2-.8-3.5-1.7-1.1-.8-2.1-1.8-3.1-3.2l-1.4,1.8ZM33,32.3c-1.4-.5-6.1-2.5-7.6-6.2l-1.7,2.2c1,1.4,2,2.5,3.1,3.3,1.6,1.1,3.1,1.6,4,1.8.7-.2,1.5-.6,2.3-1.1ZM33,38.7c-.2,0-.3.1-.5.2.3.4.6.9.9,1.4.8,1.5,1.8,3.4,4.7,4.6.9.4,1.8.6,2.5.7-.4-.3-.9-.8-1.4-1.5-.5-.7-1.1-1.6-1.5-2.7-.2-.6-.5-1.1-.8-1.5-.3-.5-.6-.8-1-1.2-1-.4-2-.3-2.8,0ZM44.7,44.2c-2,0-3-.9-4.4-2.2-.9-.8-1.9-1.8-3.5-2.8.1.2.2.3.3.5.3.4.6,1,.8,1.5.4,1.1,1,1.9,1.5,2.6.7.9,1.3,1.4,1.8,1.8,1.8,0,3-.9,3.5-1.4ZM18.6,38.3c.3.3.6.7.8,1.2h0s0,0,0,0c1.3-.5,2.4-.9,3.4-1.1-1.2-.2-2.8-.6-4.3-1.8-.3-.2-.7-.4-1-.5-.6-.2-1.2-.3-1.8-.3-1.5,0-2.8.6-3.8,1.5-1,.9-1.6,2.3-1.6,3.7s.5,2.5,1.3,3.4c.7.8,1.7,1.4,2.7,1.7l-1.3-2.1c0,0-.2-.1-.2-.2-.7-.7-1.2-1.7-1.2-2.8s.4-2.1,1.2-2.8c.7-.7,1.7-1.1,2.8-1.1s2.1.4,2.8,1.1Z"/>
    </clipPath>
  </defs>
  <path class="st0" d="M8.9,51.1c-.2,0-.4,0-.7,0,.2,0,.5,0,.7,0Z"/>
  <path class="st0" d="M11.4,27.2c0,0,0-.3-.2-.4,0,0,.2.2.2.4Z"/>
  <path class="st0" d="M39.3,51.2h.4-.4ZM11.2,26.9c0,0,0,.3.2.4,0-.2,0-.3-.2-.4Z"/>
  <g>
    <g>
      <path class="st1" d="M34.5,58l1.2-1.2-1.1-5.2-4-3.6-.7-3.3s.6-.6.9-1.6c.2-1.1.1-2,.1-2,0,0,1.5-.3,1.9-.3.3,0,.7.1.7.1,0,0,2,3.6,5,4.5,3,.9,4.7.3,4.7.3l2-1.4s-1.5.5-4-1.6-3.9-3.9-6.1-4c-2.2-.2-3,.4-3,.4l-1.6,1.1s-1.1-1.6-3.5-1.6c-2.3,0-3.5,0-3.5,0,0,0-2.4-.5-3.4-.9-.9-.4-1.2-.9-1.2-.9l1.9-1.7s-1.5-2.8-1.6-2.9c-.1,0-1.5-1.6-1.5-1.6l2.6-5.3s2,.7,2.7,1.1c.7.5,1.4,1,1.4,1,0,0-2.5,3.3-2.6,3.3,0,0,2.4,3.1,5.3,3.5,2.8.4,5-.8,5.1-.8,0,0,1.4-.9,1.4-.9,0,0-3.2-1.3-5.3-3.1-2.1-1.8-2.6-3.7-2.6-3.7l2.8-3.5s-.5-1.3-2.1-1.9c-1.6-.6-3.4-1-3.4-1l.6-1.2-1.3-.6-5.4,12.2s-1.8-1.3-3.1-1.5c-1.3-.3-3-.4-3-.4h-.5c0,0-1.6-.2-1.6-.2l.2.6-3.6,2.2,2.4.9v1.4c.1,0-.7,1.5-.7,1.5v1.3c0,0,.6,0,1,0,.4,0,.6,0,.6,0,0,0,.5-.8,1.1-1.2.6-.4,1.3-.7,1.3-.7,0,0,.5,1.4.3,2.6-.2,1.1-.4,2.6-.4,2.6,0,0-.5,1.4-.4,2.6,0,1.2.4,2,.4,2s-3.7,1.7-3.7,1.7l.2,5.9s-3.1,7.2-3.1,7.2,1.4,0,1.4,0c0,0,3.2-6.8,3.2-6.8,0,0,.9.1,1.7-.2.8-.4,1.2-1,1.2-1l-2-1.3.7-1.7s1.5.4,2.3.1c.9-.2,2.1-.6,2.1-.6l.6,1,.6,9.1s-1.1.2-1.4.5c-.4.3-.8.9-.8.9h2.7s1.2-1.1,1.2-1.1v-6.2s1.5-1.7,1.8-2.6c.3-.9.6-1.6.6-1.6l4.2-.8s.9,2.3,1.8,2.7c1,.5,1.4.7,1.4.7l1.7,2.2-1.8,3.3s2.1,2.6,2.7,2.7c.7.1.2-1.9.2-1.9l-1.5-.9,2.2-3.1s1.2.4,1.2.4,2.3,4.6,2.3,4.6c0,0-1.2.2-1.2.3,0,.1-.5,1.4-.5,1.4h1.9Z"/>
      <g class="st5">
        <rect class="st0" x="4" y="17.4" width="41.2" height="40.6"/>
      </g>
    </g>
    <path class="st1" d="M12.1,29.6c.3,2.3-1.2,3.8-1.2,3.8,0,0,0,.8.2,1.7.1.8-.5,3.4-.4,3.4,0,0,2.9-2.6,2.9-2.5,0,.1-1.1-1.2-.6-3.4.5-2.3-1-2.9-1-2.9h0ZM13.7,44.3c3.3,1.3,5.1-.7,5.1-.7-1.1,3-3.6,3.5-3.6,3.5l2.1,3.6s-1.7,1.7-1.8,1.8c0,0-.2-4.8-.2-4.8l-.6-1.3s-1.5.5-2.4.8c-.9.3-1.9-.2-1.9-.1,0,0-.6,1.8-.7,1.8,0,0,.7,1.9.3,2.1-.4.1-1.3.2-1.4.2s.7-2.4.7-2.4l-1-.7-.7,1.5-.7-4.5s1.7,1.4,2.6.4c1-1,.9-2.3.9-2.3,0,0,.6,1.6.5-.5-.1-2.1,1.3-3.5,1.3-3.5-1.6,3.4,1.3,5.1,1.3,5.1ZM20,42.5c.1.8-.1,4-.2,3.9,0,0,4.2-.8,4.2-.8,0,0-.3-2.1.8-.3,1.2,1.8,5.7,2.5,5.6,2.6-.1,0,.5,1.6.5,1.6,0,0-3.4-.2-3.5-.2,0,0,3.5,2.3,3.5,2.3l2.2-1.4-2.4-2.2s-1.2-3.3-1-3.3-1.4.6-1.4.6c0,0-1.4.5-3.1-.8-1.7-1.3-1-4-1-4,0,0-1,1.3-2.5,1.1-1.4-.2-2-1.3-2-1.3,0,0,.2,1.3.3,2.2ZM33.3,40.6s-1-1.7-1-1.7c0,0-2,1.2-2,1.2,0,0,.6.9.6,1,0,0,2.4-.4,2.4-.4ZM21.8,30.4l3.7-4.6.6,1.2s-.9.8-1.2,2.9c-.3,2.1.6,3.7.6,3.7-2.5-.9-3.6-3.2-3.6-3.2ZM20.2,25.1l2.6-5.8-.5,6.6-2.1-.8ZM17.6,30.4l-.9-.9.8-2.1.6,2.3-.5.7ZM18.8,36.5s-.8-1.8-1.1-2.4c-.4-.6-3.3-3.5-3.3-3.5,0,0,1.7.6,3.3,2.1,1.5,1.6,2.9,2,2.8,2.1l-1.7,1.7ZM9.4,29.5l-.7-1.2-.5,2.3,1.2-1.1Z"/>
    <g>
      <path class="st0" d="M25.2,39.8c-.6.6-1,1.4-1,2.3s.4,1.7,1,2.3c.6.6,1.4.9,2.3.9s1.7-.4,2.3-.9c.6-.6,1-1.4,1-2.3s-.4-1.7-1-2.3c-.6-.6-1.4-.9-2.3-.9s-1.7.4-2.3.9h0ZM25.7,42.1c0,.5.2.9.5,1.3.3.3.8.5,1.3.5s1-.2,1.3-.5c.3-.3.5-.8.5-1.3s-.2-.9-.5-1.3c-.3-.3-.8-.5-1.3-.5s-1,.2-1.3.5c-.3.3-.5.8-.5,1.3ZM29.1,40.5c.4.4.7.9.7,1.5s-.2,1.1-.7,1.5c-.4.4-1,.6-1.6.6s-1.2-.2-1.6-.6c-.4-.4-.7-.9-.7-1.5s.2-1.1.7-1.5c.4-.4,1-.6,1.6-.6s1.2.2,1.6.6ZM13.6,41.1c0,.6.2,1.1.6,1.5.4.4.9.6,1.5.6s1.1-.2,1.5-.6c.4-.4.6-.9.6-1.5s-.2-1.1-.6-1.5c-.4-.4-.9-.6-1.5-.6s-1.1.2-1.5.6c-.4.4-.6.9-.6,1.5ZM17.5,39.3c.5.5.8,1.1.8,1.8s-.3,1.3-.8,1.8c-.5.5-1.1.7-1.8.7s-1.3-.3-1.8-.7c-.5-.5-.8-1.1-.8-1.8s.3-1.3.8-1.8c.5-.5,1.1-.7,1.8-.7s1.3.3,1.8.7ZM18.3,38.6c-.7-.6-1.5-1-2.5-1s-1.9.4-2.5,1c-.6.6-1.1,1.5-1.1,2.5s.4,1.9,1.1,2.5c.7.6,1.5,1,2.5,1s1.9-.4,2.5-1c.6-.6,1.1-1.5,1.1-2.5s0-.7-.1-1c0,0,0-.1,0-.2-.2-.5-.5-1-.9-1.3ZM17,46.7c-.2.6-.5,1.1-.9,1.6l1.3,2.2c.7-.7,3.1-3.6,2.1-8.6-.2.8-.5,1.4-1.1,1.9-.4.4-.8.6-1.3.8,0,.7,0,1.3-.3,2ZM15.9,47.9c.3-.4.6-.9.7-1.3.2-.6.2-1.2.2-1.7-.4.1-.8.2-1.2.2-.7,0-1.3-.2-1.8-.4l2,3.4ZM16.1,56.4v.2s-.2,0-.2,0c-1,0-1.6.7-1.9,1.1h2.2s1.1-1.1,1.1-1.1v-5.8s-1.7-2.8-1.7-2.8l.5,8.4ZM24.9,44.6c-.4-.4-.6-.8-.8-1.3,0,2.2.7,6,6.6,6.1l-.3-1.3c-.9-.1-1.6-.4-2.2-.8-.7-.5-1.2-1.1-1.5-1.7-.7-.2-1.3-.5-1.8-1ZM27.5,45.7c-.1,0-.2,0-.3,0,.3.5.7.9,1.3,1.3.5.3,1.1.6,1.9.7l-.7-2.7c-.6.4-1.3.7-2.2.7ZM27.7,49.4c.6.6,1.4,1.5,1.4,1.8,0,.4-1.4,2.8-1.7,3.3.3.5.7,1,1.1,1.4.8.7,1.4,1.1,1.4,1.1,0,0,0-1.6,0-1.6-.3-.1-1.4-.6-1.5-.9h0c0-.3,2.2-3.3,2.6-3.8l-.2-1c-1.2,0-2.3-.2-3.1-.4ZM23.9,45.6c-.3-1.3-.2-2.6-.2-3.2l-3.6.3c.2,1.3,0,2.5-.1,3.6l3.9-.6ZM9.3,31.5c.2-.2.3-.3.3-.3,0-.1,0-.3,0-.5-.3.3-.8.6-.8.7v.6c.2-.1.3-.3.4-.4ZM10.7,33.2c3.1-3.9-.7-5.2-2-5.5l.9,1.6h0c0,.1-.1.2-.1.2l-1.8,1.7c0,.2,0,1,0,1.2s-.4.8-.7,1.2c-.2.2-.3.4-.3.4v1.1c.4.1.9,0,1.2,0-.3-.3-.7-1-.3-1.8.4-.8.7-1.2.8-1.3v-.9c0-.2,1.3-1.2,1.3-1.2l.3-.3v.4s0,.8-.2,1.1c0,0-.2.3-.4.4-.2.2-.5.5-.8.8,0,.1-.3.5-.7,1.2-.3.6,0,1.1.3,1.3.5-1,2.1-1.7,2.4-1.9ZM4.3,57.8h1.1s4.7-10.7,4.7-10.7c-.3,0-.6-.2-.9-.3l-4.9,11ZM32.2,51.6c.5,0,1.2,0,1.9-.1l-3.2-2.9.2,1h0s0,0,0,0v.2c0,0,0,0,0,0l.2,1h0c0,0,0,.2,0,.2,0,0-.1.1-.3.4.3.1.7.2,1.1.3ZM34.4,56.3v.3c.1,0-.2,0-.2,0-.9,0-1.3.8-1.4,1.2h1.6s1.1-1.1,1.1-1.1l-1.1-4.9c-.8.2-1.5.2-2,.2l2,4.3ZM10.2,50.8c.4-.2.7-.4,1.1-.8l-1.5-1-.9,2c.4,0,.9,0,1.3-.2ZM7.3,50l1.5-3.4c-.6-.3-1.2-.7-1.8-1.3l.3,4.7ZM19.6,39.9h0s0,0,0,0c.3.8.4,1.6.5,2.3l3.7-.3s0,0,0,0c0-.9.5-1.7,1.1-2.3.5-.5,1.2-.8,1.9-1-.6,0-1.3,0-2.1,0h0s0,0,0,0c-1.4.1-3,.5-5,1.4ZM9.2,29.4l-.5-1-3.2,1.8,2.1.8,1.7-1.6ZM12.1,29.4c.6.2,2.5,1,4.2,2.8,1,1,1.9,2.3,2.5,4.1.5-.5,1.4-1.2,1.7-1.4-.4-1-3.4-7.1-10.1-7,.7.3,1.4.8,1.8,1.6ZM23,18l-.8-.4-5.3,11.9c.3.2.5.4.7.6l5.4-12.1ZM31.2,42.1c0,1-.4,1.9-1.1,2.5,0,0,0,0,0,0l.8,3.2,3.9,3.6h0c0,0,0,.3,0,.3l1.1,5h0c0,.1,0,.2,0,.2l-1.2,1.2h0c0,0,0,0,0,0h-2s-.2,0-.2,0v-.2s.2-1.6,1.6-1.8l-2-4.3c-.4,0-.8-.2-1-.3-.8,1-2.1,2.7-2,2.8,0,.2,1.3.6,1.3.6h.1s0,.2,0,.2c0,0,0,2.3,0,2.3-.1,0-1.3-.6-2.1-1.4-.5-.5-.9-1-1.2-1.7h0c0,0,0-.2,0-.2,0,0,1.8-2.8,1.7-3.1,0-.3-1.6-1.9-1.9-2.2-1.5-.7-2.3-1.9-2.7-3.1l-4.1.7c-.6,2.5-2,4-2.3,4.3v5.9s0,0,0,0h0c0,0-1.2,1.3-1.2,1.3h0c0,0,0,0,0,0h-2.7s-.3,0-.3,0l.2-.3s.8-1.4,2.3-1.6l-.5-9-.4-.6c-.5.2-2.2.9-4.2.5l-.6,1.5,1.8,1.2h.2c0,.1-.1.3-.1.3-.4.5-.9.9-1.4,1.1-.6.2-1.1.3-1.6.2l-2.9,6.6h0c0,.1-.1.1-.1.1h-1.6s-.3,0-.3,0v-.3c.1,0,3.3-7.1,3.3-7.1l-.4-5.9v-.2s.1,0,.1,0l3.6-1.6c-.2-.6-.4-1.3-.4-2s0-1.2.3-1.7c0-.2,1-4.3.4-5.7-.5.3-1.8,1-2.1,1.8h0c0,0,0,.1,0,.1,0,0-1.1.4-1.9,0h-.1v-1.4c0-.1.2-.3.4-.6.3-.4.6-.8.6-1,0-.3,0-.9,0-1.1l-2.5-1-.4-.2.4-.2,3.6-2.1-.3-.5-.2-.3h.4c0,0,.5.1,1.1.3,3-.3,5.4.6,7.1,1.8l5.4-12v-.2c0,0,.3,0,.3,0l1.2.5h.2c0,0,0,.3,0,.3l-.4,1c.8,0,2.1.3,3.3,1,.9.5,1.7,1.1,2.2,2.1h0c0,.1,0,.2,0,.2l-2.7,3.4c1.6,4.3,7.8,6.3,7.9,6.3h.4c0,.1-.4.4-.4.4-8,5-12-1.9-12-1.9h0c0-.1,0-.2,0-.2l2.4-3c-.5-.4-1.2-.8-2-1.2-.6-.3-1.2-.5-1.8-.6l-2.3,5.1c2.1,2,3,4.3,3,4.3h0c0,.1-.1.2-.1.2,0,0-1.1.9-1.7,1.5,0,0,.2.1.3.2,2.5,1.6,5.2,1.4,5.2,1.4h0c3.4-.3,5,1,5,1,.2.1.3.2.5.4,0,0,.2.2.3.3.6-.6,1.5-1.2,2.5-1.5,1.2-.3,2.6-.3,4.1.6,1.6,1,2.7,2,3.6,2.8,1.4,1.3,2.4,2.3,4.6,2h.4c0,0-.3.3-.3.3,0,0-2.3,3.4-7.5,1.2-2.7-1.2-3.8-2.9-4.6-4.4-.2,0-.4,0-.6,0-.7,0-1.3,0-1.6.2,0,.3.1.6.1.9ZM30.9,40.8c.4-.2,1.1-.2,1.7-.2.1,0,.2,0,.4,0h0c-.3-.6-.6-1.1-.9-1.4-.6.3-1.1.7-1.5,1.1.1.2.2.4.3.6ZM11,33.4c.4,1,.2,3.1,0,4.5.2-.3.4-.6.7-.9.7-.7,1.5-1.1,2.4-1.4-.2-.6-.5-1.4-1-2.1-.3-.5-.8-1-1.3-1.3-.2.4-.5.8-.8,1.2ZM15.7,35.4c.7,0,1.3.1,1.9.3.2,0,.4.2.6.3-.6-1.5-1.4-2.7-2.3-3.6-1.4-1.5-3-2.3-3.7-2.6.1.6,0,1.2-.3,2,.6.4,1.1.9,1.5,1.5.5.8.9,1.6,1,2.2.4,0,.8-.1,1.2-.1ZM7.1,44.9c2.6,2.7,5.7,2.1,7,1.6-1-.3-1.9-.8-2.5-1.5-.4.2-1.1.3-1.8.2-.5,0-1.1-.3-1.6-.7l-1,.4ZM10.5,43.4l-1.9.8c.4.3.9.5,1.3.5.6,0,1.1,0,1.5-.1-.3-.4-.6-.8-.8-1.2ZM28,22.1c-.5-.8-1.2-1.4-1.9-1.8-1.2-.6-2.5-.9-3.2-.9l-.8,1.8c.7.2,1.5.5,2.2.9.8.5,1.5,1.1,2.2,2l1.6-2ZM20.4,25c.6.1,1.3.4,1.8.7.8.4,1.5.9,2,1.3l2-2.5c-.6-.9-1.4-1.5-2.1-2-.7-.4-1.5-.7-2.2-.9l-1.5,3.4ZM22,30.4c.5.7,3.1,4.4,8,3.2-.9-.3-2.2-.8-3.5-1.7-1.1-.8-2.1-1.8-3.1-3.2l-1.4,1.8ZM33,32.3c-1.4-.5-6.1-2.5-7.6-6.2l-1.7,2.2c1,1.4,2,2.5,3.1,3.3,1.6,1.1,3.1,1.6,4,1.8.7-.2,1.5-.6,2.3-1.1ZM33,38.7c-.2,0-.3.1-.5.2.3.4.6.9.9,1.4.8,1.5,1.8,3.4,4.7,4.6.9.4,1.8.6,2.5.7-.4-.3-.9-.8-1.4-1.5-.5-.7-1.1-1.6-1.5-2.7-.2-.6-.5-1.1-.8-1.5-.3-.5-.6-.8-1-1.2-1-.4-2-.3-2.8,0ZM44.7,44.2c-2,0-3-.9-4.4-2.2-.9-.8-1.9-1.8-3.5-2.8.1.2.2.3.3.5.3.4.6,1,.8,1.5.4,1.1,1,1.9,1.5,2.6.7.9,1.3,1.4,1.8,1.8,1.8,0,3-.9,3.5-1.4ZM18.6,38.3c.3.3.6.7.8,1.2h0s0,0,0,0c1.3-.5,2.4-.9,3.4-1.1-1.2-.2-2.8-.6-4.3-1.8-.3-.2-.7-.4-1-.5-.6-.2-1.2-.3-1.8-.3-1.5,0-2.8.6-3.8,1.5-1,.9-1.6,2.3-1.6,3.7s.5,2.5,1.3,3.4c.7.8,1.7,1.4,2.7,1.7l-1.3-2.1c0,0-.2-.1-.2-.2-.7-.7-1.2-1.7-1.2-2.8s.4-2.1,1.2-2.8c.7-.7,1.7-1.1,2.8-1.1s2.1.4,2.8,1.1Z"/>
      <g class="st3">
        <rect class="st0" x="3.6" y="17.1" width="42" height="41"/>
      </g>
    </g>
  </g>
  <g>
    <path class="st4" d="M66.4,44.8c0,1-.3,1.9-1,2.7s-1.5,1.2-2.6,1.5c-.9.2-1.7.3-2.5.4s-3.1,0-6.9,0-.9,0-.9,0c-.1,0-.2,0-.2-.2,0-.1.3-.2.8-.2s.9,0,1-.2c.1-.2.2-.5.2-1.2v-14.3c0-.5-.4-.7-1.2-.8-.6,0-.9,0-.9-.2s.2-.2.6-.2h7c3.9,0,5.8,1.3,5.8,4s-1.4,3.5-4.3,4.1h0c1.7.5,2.9.9,3.5,1.4,1.1.9,1.6,2,1.6,3.3ZM62.4,44.7c0-2.3-.7-3.7-2-4.1-.5-.2-1.3-.2-2.3-.2v1.5c0,.4,0,1,0,1.8,0,.4,0,1.1,0,2.1,0,1.8,0,2.8.1,2.9.1.2.5.3,1.1.3,2.1,0,3.1-1.4,3.1-4.2ZM61.9,36.2c0-2.4-.7-3.6-2.2-3.6s-.9,0-1.1,0c-.4.1-.5.4-.5.8v6.6c1.5,0,2.5-.3,3-.8s.8-1.5.8-3Z"/>
    <path class="st4" d="M80.8,48.6c0,.1-.1.2-.4.2-1.5,0-2.6.1-3.1.2-.6.1-1.1.3-1.5.6-.1,0-.2.1-.3.1s0,0,0-.2v-1.1c0-.2,0-.3,0-.4-1,1.1-2.2,1.7-3.4,1.7s-2-.4-2.6-1.1c-.4-.4-.6-1.2-.6-2.4v-6.5c0-.4,0-.6-.2-.7-.1,0-.4-.1-.9-.2-.4,0-.6,0-.6-.2s.1-.2.4-.2h.3c.2,0,.6,0,1.1,0,.5,0,.9,0,1,0s.2,0,.5,0c.3,0,.8,0,1.4,0h.5v2.7c0,1.3,0,2.2,0,2.8,0,.6,0,.9,0,.8,0,1.8.1,2.9.3,3.3s.6.7,1.1.7,1.1-.3,1.5-.9c.1-.2.2-.4.3-.6s0-.7,0-1.4v-4.3c0-1.2,0-2,0-2.2,0-.3-.2-.5-.6-.5h-.7c-.2,0-.3,0-.3-.2s.4-.2,1.3-.2,2,0,3.7,0v8.1c0,.8,0,1.2,0,1.4,0,.1.2.2.4.3.1,0,.6,0,1.4,0s.3,0,.3.2Z"/>
    <path class="st4" d="M90.1,40.8c0,.4-.1.7-.4,1s-.5.4-.9.4c-.9,0-1.3-.4-1.3-1.2s0-.4.2-.7c.1-.3.2-.5.2-.6,0-.3-.1-.6-.4-.8-.2-.2-.5-.3-.9-.3-1.5,0-2.3,1.7-2.3,5.1s.3,3.3,1,4.2c.5.6,1.2,1,1.9,1s1.6-.5,2.4-1.5c.1-.1.2-.2.3-.2s0,0,0,.2c0,.3-.3.8-.9,1.3-.9.8-1.9,1.2-3.1,1.2s-2.8-.5-3.8-1.6c-1.1-1.1-1.6-2.4-1.6-3.9s.6-3.1,1.7-4.2,2.5-1.7,4.1-1.7,1.9.2,2.7.8,1.1,1.1,1.1,1.8Z"/>
    <path class="st4" d="M100.3,46.3c0,.4-.2.8-.6,1.5-.9,1.3-2.2,1.9-3.7,1.9s-3.1-.5-4.2-1.6c-1.1-1.1-1.6-2.4-1.6-4.1s.5-3,1.6-4.1,2.4-1.6,3.9-1.6,2,.2,2.7.7c.8.5,1.4,1.3,1.6,2.2,0,.3.1.7.1,1.1-.4,0-1.9,0-4.6,0-.4,0-.9,0-1.6,0,0,.6,0,1.1,0,1.5,0,1.9.4,3.3,1.2,4.1.5.5,1.1.7,1.8.7s1.1-.2,1.7-.6c.5-.4,1-.9,1.2-1.5.1-.3.2-.5.3-.5s0,0,0,.2ZM97.1,41.9c0-1.3,0-2.2-.3-2.7-.2-.5-.5-.7-1-.7-1,0-1.6,1.1-1.8,3.4h3.1Z"/>
    <path class="st4" d="M112.9,43.8c0,1.7-.5,3.1-1.4,4.2-1,1.1-2.2,1.7-3.6,1.7s-2-.4-2.6-1.3v5.6c0,.5,0,.8,0,.9,0,.1.2.2.3.2.2,0,.6,0,1.3,0,.2,0,.3,0,.3.2s-.1.2-.3.2h-6.3c-.4,0-.5,0-.5-.2s.3-.2.9-.2.8,0,.8-.1c0-.1,0-.4,0-1v-13.9c0-.3-.1-.6-.4-.6-.1,0-.4,0-.9,0h-.5c-.1,0-.2,0-.2-.2s.1-.2.3-.1c1.8,0,3.3-.4,4.7-1,0,.1.1.2.1.4v.6s0,.4,0,.4c.5-.6.9-.9,1.3-1.1.4-.2,1-.3,1.7-.3,1.4,0,2.5.5,3.5,1.6.9,1,1.4,2.3,1.4,3.9ZM109.2,43.7c0-3.2-.7-4.8-2.1-4.8s-1.2.3-1.6.9c-.2.3-.3.8-.3,1.4v4.9c0,1.1.1,1.8.4,2.2.4.6.9.8,1.5.8,1.4,0,2.1-1.8,2.1-5.5Z"/>
    <path class="st4" d="M126.2,49.3c0,.1,0,.2-.2.2,0,0-.1,0-.5,0h-1.5c-1.4,0-2.3,0-2.6,0h-1c-.2,0-.3,0-.3-.1s0-.2.1-.2h.6c.4,0,.6,0,.6-.3,0-.1,0-1,0-2.5v-3.7c0-1.5,0-2.5-.2-2.8-.2-.4-.6-.7-1.2-.7s-1.1.3-1.5.9c-.2.3-.2.9-.2,1.8v6.9c0,.3.3.4,1,.4s.2,0,.2.2-.1.2-.3.2h-.2c-.1,0-.3,0-.6,0h-2.5s-1.5,0-1.5,0h-.8c-.2,0-.4,0-.4-.2s0,0,0,0,.1,0,.2,0c.6,0,1,0,1.1,0,.1,0,.2-.2.2-.6,0-.2,0-1.2,0-3v-9.2c0-1.8,0-2.8-.1-3.1,0-.3-.4-.4-1.1-.4s-.7,0-.7-.2.3-.2.8-.2c1.3,0,2.5-.3,3.6-.6.2,0,.4-.1.5-.1s.2.5.2,1.4v6.9c.5-.7,1-1.2,1.4-1.4s1.1-.4,1.9-.4c1.7,0,2.7.7,3.1,2,.1.4.2,1.1.2,2.1v5.8c0,.4,0,.7.2.8.1,0,.5.1,1.1.1s.2,0,.2.2Z"/>
    <path class="st4" d="M137.4,48c0,.1-.1.3-.4.6-.7.7-1.6,1-2.7,1s-1.2-.1-1.5-.4c-.3-.3-.5-.8-.6-1.5-.8,1.4-1.8,2-3.1,2s-1.3-.2-1.7-.7c-.4-.5-.7-1-.7-1.8,0-2.1,1.8-3.3,5.4-3.7v-.5c0-1.7,0-2.7-.2-3.1h0c-.2-1-.8-1.4-1.8-1.4s-1,.2-1.3.5c-.3.3-.5.6-.5.9s.2.3.6.3c.6,0,.9.4.9,1.1s-.1.7-.4.9-.6.4-.9.4-.9-.1-1.2-.4c-.3-.3-.5-.7-.5-1.1,0-.7.4-1.4,1.1-2,.7-.6,1.7-.9,2.8-.9,1.7,0,2.9.3,3.6.9.5.5.8,1.4.8,2.7v4.3c0,.8,0,1.3,0,1.5,0,.7.3,1,.7,1s.6-.2,1.1-.6c0,0,.1-.1.2-.1,0,0,.1,0,.1.1ZM132.2,45.1v-1.2c-1.6.3-2.4,1.2-2.4,2.8s.4,1.8,1.2,1.8.8-.2.9-.8.3-1.3.3-2.5Z"/>
    <path class="st4" d="M143.5,49.2c0,.1-.3.2-.9.2s-.6,0-1.4,0c-.4,0-.8,0-1.2,0s-1,0-2,0h-.7c-.4,0-.5,0-.5-.1s.2-.2.6-.2c.6,0,.9,0,1-.2,0-.1.1-.6.1-1.5v-13.2c0-.6,0-.9-.2-1-.1-.1-.5-.2-1-.2s-.6,0-.6-.2.2-.2.6-.2c1.9,0,3.4-.4,4.6-.9v15c0,1.1,0,1.8,0,2s.3.3.6.3h.8c.2,0,.3,0,.3.2Z"/>
    <path class="st4" d="M156.8,48.6c0,.1-.1.2-.4.2-1.5,0-2.6.1-3.1.2-.6.1-1.1.3-1.5.6-.1,0-.2.1-.3.1s0,0,0-.2v-1.1c0-.2,0-.3,0-.4-1,1.1-2.2,1.7-3.4,1.7s-2-.4-2.6-1.1c-.4-.4-.6-1.2-.6-2.4v-6.5c0-.4,0-.6-.2-.7-.1,0-.4-.1-.9-.2-.4,0-.6,0-.6-.2s.1-.2.3-.2h.3c.2,0,.6,0,1.1,0,.5,0,.9,0,1,0s.2,0,.5,0c.3,0,.8,0,1.4,0h.5v2.7c0,1.3,0,2.2,0,2.8,0,.6,0,.9,0,.8,0,1.8.1,2.9.3,3.3.2.4.6.7,1.1.7s1.1-.3,1.6-.9c.1-.2.2-.4.3-.6,0-.2,0-.7,0-1.4v-4.3c0-1.2,0-2,0-2.2,0-.3-.2-.5-.6-.5h-.7c-.2,0-.3,0-.3-.2s.4-.2,1.3-.2,2,0,3.7,0v8.1c0,.8,0,1.2,0,1.4s.2.2.4.3c.2,0,.6,0,1.4,0s.3,0,.3.2Z"/>
    <path class="st4" d="M164.5,45.9c0,1.1-.3,2-1,2.7-.7.7-1.6,1-2.6,1s-1.2-.1-1.9-.4c-.6-.2-1-.3-1.2-.3-.3,0-.5.1-.6.4s-.2.4-.2.4c0,0-.1,0-.1-.2s0-.3,0-.5c0-.3,0-.9,0-1.7v-1.2c0-.2,0-.3.1-.3s.2.1.2.4c.1.9.6,1.6,1.3,2.2.7.6,1.5.9,2.3.9s1-.2,1.3-.5c.3-.3.5-.8.5-1.3s-.2-.8-.5-1.1c-.2-.2-.9-.5-1.9-.8-1.2-.4-2.2-.9-2.7-1.5-.6-.6-.8-1.3-.8-2.3s.3-1.8,1-2.5,1.5-1,2.5-1,1,.1,1.9.4c.1,0,.2,0,.3,0,.4,0,.6-.2.8-.7,0,0,0-.1.1-.1.1,0,.2.1.2.3v.5c0,0,0,.2,0,.4,0,.7,0,1.4.1,2.1h0c0,.3,0,.3-.2.3s-.2,0-.2-.2c-.5-1.7-1.5-2.5-3-2.5s-1,.1-1.4.5c-.4.3-.5.7-.5,1.2s.1.8.5,1c.3.2.9.5,1.8.9,1.5.5,2.5,1.1,3.1,1.6s.8,1.3.8,2.2Z"/>
  </g>
</svg>